<svg xmlns="http://www.w3.org/2000/svg" viewBox="0 0 112.27 69.22"><defs><style>.cls-1{fill:#3DB3F1;stroke:#000;stroke-miterlimit:11;stroke-width:0.4px;}.cls-2{isolation:isolate;font-size:11px;font-family:Tahoma;}</style></defs><g id="Layer_2" data-name="Layer 2"><g id="Layer_1-2" data-name="Layer 1"><path class="cls-1" d="M110.79,49.45l-1.16-.14-.48.28-.47.06-.51.26-.2-.31-.22,0-.18,1-.36.22-.68.15-2.19,1.22h-.66l-1.7,1-1.83,1-.31.26-.28.41-.22-.08.1-.84-.1-1-.54.24-.67.5-1,1.08-.63.42-.82.31.07.81.18.36-.36.36-.9.52-1.45.22-1.41.06.18-1.2L92,56.24l-.21-.38-.17-1.43-.14-.11-.13.29-.42.41-.78.51-.87.36-.78-.34-.67-.07-.2.12-.39.9-.33.16-.1-.49-.33.11-1.64-.34-.23-.5V54.6l-.28-.78-.68.44-1,.12-1.38-.1-2.64.21-.92,3.79L75.8,58l-1.54.38-2.06.2-1-.34h-.91l-.36-.19-.8.33-3.07-2-.69.14H64.1l-1.91.36-.14-.54-.51.48-1.76.33-3,.81-.27-.47-1.46.07-.59.72-1.58-.19-.42.13-2.13,1.33-.48,0-.23.59.16,1.14,0,.46.47.41-.27.49-.5.14-1.79,1-.81-.54-.6.84-1.57,1.16,0,.37.45.28L44.56,67l0,.45-.73-.27-2.56,1-.69-.36-1.07.07L39,67.39l-.47-.07-.6.14-.27.48H37l-.87.15-.68.27L35,68.24l-1,.55-.55-.22-.43.22L30.35,69l-.44-.66-1.22-.41L28,67.56l-.55-.82-1-2.32L25.91,64l-.63-.11-1.49,0-3.33.32-1.11-1.65-.86-.73-2.36-1.66-1.06-2-.67-.74L14.11,54l.22-.52.24-1.13V51l-.26-.53-.44.13-.16-.48-.37,0-.81.31-1.22-.34-.41-.48.14-.28L11,49.05l-.31.13-1.27-.64L8.51,48l-.79-.74-.47-.55.19-.2-.24-.37-.64-.38L6.26,45l-.72-.3-1.83,0-.87-.58-.58-.67-.38-.09-.61.2-.74-.08L.8,43l0-.75-.35-.53L.21,41l.28-1L.7,38.84l0-1L.79,36.8l.62-.75.71-.55L2.35,35l.14-.62,1.27-.56.87-.12.64-.28.5-1.17.66-.66,2.2-4,1.41.54.38-.05,1-.5.84.19L14,27.62l1.85.19.78-.91.77-.6L19,25.67l1.17-1.44.56-.49.48-.2.58,0,.26.28.53-.21.6-.61L24,21.9l.46-1.6L24,19l.18-1-.19-2.49-.3-.58.07-1.08.45-.7L25.4,12l1-1.35.22-.37.05-.31.61-.27,1.45-.09.49.58.28.18.4-.46.25-1L32.4,10l.72.1.5.21.66,1,.63,1.22h1.16l.45-.56-.47-1.24.23-.23,1.62.89.55.17.3-.65.49-.57.85-.31.3-.4L40.22,9l.46-.14.73-.07.44.73.59.71.41.06.22-.3.36-1.9L44.7,6.22l0-1-.49-1.42,1.14.39L45.92,4l.58-.63V.76l.07-.34.58-.21L48,.46,49,.59l3.07,1.55-.16,3.6,2.54.1.5.51,1.87,0,.54.56.18,1.35-.37,1-.44.49-1.17.2H55l-.61.63-.64.11-.44.68.44,1,.49.81.5.43.06-.52.68-.3.19-.69.1-1.52.32-.25h.47l.58.64.91,1.6.62.34-.46.72-.21.93-.27.47,1.06.22.45.2.63.59.75,1.12.63.16L62.59,16l-.1-.47.23-.6,1.6-.19,1.53.15,1-.35.46-.87.31.91.6.62.6-.1.4-.76.14-.5.9.25L72,13.22l.36-.87-.07-.52.09-.81.31-.67.84-.45,1.49.18L75.4,8.9l-.2-.17L74.76,8V7.54l-.39.07,0-.6L75,6.46l.34-.93L75.76,5l.58.1,2,1.12.82.31.66,0,1-.11-.51,1.37.15,2.53.74.58.2-1.28.21-.43.5-.07.07,2.41-.58,3.31V16l.42.57.42.07.32.79.56.06,1,.31.57-.63,0-.87-.33-1.61-.15-1.17.4-.82.48-.2.7.73.33.78.1.62.51.61,1,.84.59.19.24-.46V14.65l-.76-1.38-.65-1.42-.12-1.12.07-.93.37-.4.67.33.7.49.3.89.62.26.55.36.3,1.09.63.42.77-.36.7-.58.34-.52.06-.66.41-.34.77-.16.72-1,.33-2,.56-.87.5-.35,1.42,1.76.53.33.6.08.62-.52.51-.5,1.08-.4h1.3l1,.19.5-.1.19.24.31,1.75.48.51.7.27.35.93.65.57,1.73.19.42.82.24.8.45.82v.95l-.33,1.37-.21,1.36-.37,1.7-.68,2.17.21.82.58.54.67.37.44.64-.51,1.76-.46,2.32.54,1.89-.13,1.34.15.37,1.25.46.33.44-.09.62v1.73l.24,1,.27.6L112,37l-.42.54-.42.29-.21.6.32,1.58,0,.48-.37.5-.22.55.45.88.76,1,.28,1L112,45.71l-.27,1L111.53,48l-.25.74Z"/><text class="cls-2" transform="translate(39.13 40.4)">Simdega</text></g></g></svg>