<svg xmlns="http://www.w3.org/2000/svg" viewBox="0 0 512 512" id="RupeesSave"><g fill="#34a853" class="color000000 svgShape"><path d="M144.992,234.5A116.008,116.008,0,1,0,261,118.492,116.139,116.139,0,0,0,144.992,234.5ZM261,134.492A100.008,100.008,0,1,1,160.992,234.5,100.121,100.121,0,0,1,261,134.492Z" fill="#34a853" class="color000000 svgShape"></path><path d="M216.623,210a8,8,0,0,0,8,8h42.612a22.887,22.887,0,0,1-21.794,15H224.623a7.935,7.935,0,0,0-5.5,13.724l52.034,49.155A7.982,7.982,0,0,0,282.15,284.3L244.737,249h.7c18.882,0,34.688-14,38.392-31h13.544a8,8,0,0,0,0-16H283.833a43.541,43.541,0,0,0-6.812-16h20.356a8,8,0,0,0,0-16H224.623a8,8,0,0,0,0,16h20.818c9.991,0,18.527,7,21.794,16H224.623A8,8,0,0,0,216.623,210Z" fill="#34a853" class="color000000 svgShape"></path><path d="M416.446,369.729l-62.639,29.6a51.249,51.249,0,0,0-7.886-10.9,50.692,50.692,0,0,0-35.658-15.934L252.411,370.9a61.124,61.124,0,0,1-26.294-6.792l-5.886-3.048a103.831,103.831,0,0,0-96.176.1l.367-13.337a8,8,0,0,0-7.776-8.217L53.207,337.86a8.11,8.11,0,0,0-5.719,2.187,8,8,0,0,0-2.5,5.591L41.159,484.85a8,8,0,0,0,7.777,8.216l63.438,1.746.224,0a8,8,0,0,0,7.993-7.78l.183-6.66,16.481-8.825a28.285,28.285,0,0,1,21.1-2.31l98.411,27.624c.172.049.345.091.52.128a105.459,105.459,0,0,0,21.629,2.231,106.743,106.743,0,0,0,44.591-9.729,7.922,7.922,0,0,0,.993-.548l142.689-92.3a8,8,0,0,0,2.621-10.653A40.409,40.409,0,0,0,416.446,369.729ZM57.373,477.292l3.391-123.218,47.444,1.307L104.817,478.6ZM316.3,475.2a90.724,90.724,0,0,1-55.471,6.189l-98.147-27.55a44.237,44.237,0,0,0-32.977,3.608l-8.42,4.509,2.254-81.927a87.938,87.938,0,0,1,89.336-4.762l5.885,3.049a77.265,77.265,0,0,0,33.214,8.579l57.851,1.591a35.068,35.068,0,0,1,33.361,27.957L257,414.067a8,8,0,0,0-.441,16l95.1,2.617.224,0a8,8,0,0,0,7.993-7.78,51.549,51.549,0,0,0-.767-10.383l64.27-30.366.188-.091a24.43,24.43,0,0,1,27.64,3.871Z" fill="#34a853" class="color000000 svgShape"></path><path d="M269 97V21a8 8 0 0 0-16 0V97a8 8 0 0 0 16 0zM329 97V61a8 8 0 0 0-16 0V97a8 8 0 0 0 16 0zM209 97V61a8 8 0 0 0-16 0V97a8 8 0 0 0 16 0z" fill="#34a853" class="color000000 svgShape"></path></g></svg>