<svg width="199" height="55" viewBox="0 0 199 55" fill="none" xmlns="http://www.w3.org/2000/svg">
<g clip-path="url(#clip0_2395_2396)">
<path d="M171.5 0H27.5C12.3122 0 0 12.3122 0 27.5C0 42.6878 12.3122 55 27.5 55H171.5C186.688 55 199 42.6878 199 27.5C199 12.3122 186.688 0 171.5 0Z" fill="url(#paint0_linear_2395_2396)"/>
<path d="M166 45C175.389 45 183 37.165 183 27.5C183 17.835 175.389 10 166 10C156.611 10 149 17.835 149 27.5C149 37.165 156.611 45 166 45Z" fill="white"/>
<path d="M24.4868 34V18.9256H30.1397C31.2978 18.9256 32.2694 19.1415 33.0545 19.5733C33.8445 20.0052 34.4407 20.5989 34.8431 21.3546C35.2504 22.1054 35.454 22.9592 35.454 23.9161C35.454 24.8827 35.2504 25.7415 34.8431 26.4923C34.4358 27.243 33.8347 27.8343 33.0398 28.2661C32.2448 28.6931 31.2659 28.9065 30.1029 28.9065H26.3564V26.6615H29.7349C30.4121 26.6615 30.9666 26.5438 31.3984 26.3082C31.8302 26.0727 32.1491 25.7488 32.3552 25.3366C32.5662 24.9245 32.6717 24.4509 32.6717 23.9161C32.6717 23.3812 32.5662 22.9101 32.3552 22.5028C32.1491 22.0956 31.8277 21.7791 31.391 21.5533C30.9592 21.3227 30.4022 21.2074 29.7202 21.2074H27.2176V34H24.4868ZM37.826 34V18.9256H47.6302V21.2147H40.5567V25.3072H47.1223V27.5963H40.5567V31.7109H47.6891V34H37.826ZM62.8039 18.9256V34H60.375L53.272 23.7321H53.1469V34H50.4162V18.9256H52.8599L59.9554 29.2009H60.0879V18.9256H62.8039ZM70.8877 34H65.7794V18.9256H70.9907C72.4873 18.9256 73.773 19.2274 74.8476 19.831C75.9272 20.4296 76.7565 21.2908 77.3355 22.4145C77.9145 23.5382 78.204 24.8827 78.204 26.4481C78.204 28.0183 77.9121 29.3678 77.3281 30.4964C76.7491 31.625 75.9124 32.4911 74.8182 33.0947C73.7288 33.6982 72.4186 34 70.8877 34ZM68.5102 31.6373H70.7552C71.8053 31.6373 72.6812 31.4459 73.3829 31.0631C74.0846 30.6755 74.6121 30.0989 74.9654 29.3334C75.3187 28.563 75.4953 27.6012 75.4953 26.4481C75.4953 25.2949 75.3187 24.3381 74.9654 23.5775C74.6121 22.812 74.0895 22.2403 73.3976 21.8625C72.7106 21.4797 71.8568 21.2884 70.8361 21.2884H68.5102V31.6373ZM83.5294 18.9256V34H80.7986V18.9256H83.5294ZM98.8743 18.9256V34H96.4453L89.3424 23.7321H89.2172V34H86.4865V18.9256H88.9302L96.0257 29.2009H96.1582V18.9256H98.8743ZM111.948 23.7394C111.826 23.3419 111.656 22.9862 111.441 22.6721C111.23 22.3532 110.974 22.0808 110.675 21.8551C110.381 21.6294 110.042 21.4601 109.659 21.3472C109.277 21.2295 108.859 21.1706 108.408 21.1706C107.598 21.1706 106.877 21.3742 106.244 21.7815C105.611 22.1888 105.113 22.7874 104.75 23.5775C104.392 24.3626 104.212 25.3195 104.212 26.4481C104.212 27.5865 104.392 28.5507 104.75 29.3408C105.108 30.1308 105.606 30.7319 106.244 31.1441C106.882 31.5514 107.623 31.755 108.467 31.755C109.232 31.755 109.895 31.6078 110.454 31.3134C111.019 31.019 111.453 30.6019 111.757 30.0621C112.061 29.5174 112.213 28.8795 112.213 28.1484L112.832 28.2441H108.739V26.1095H114.856V27.9202C114.856 29.2107 114.581 30.3271 114.031 31.2692C113.482 32.2114 112.726 32.9376 111.764 33.448C110.803 33.9534 109.699 34.2061 108.452 34.2061C107.063 34.2061 105.844 33.8945 104.794 33.2713C103.749 32.6432 102.932 31.7526 102.343 30.5994C101.759 29.4414 101.467 28.0674 101.467 26.4775C101.467 25.2606 101.639 24.1737 101.982 23.2168C102.331 22.2599 102.816 21.4478 103.44 20.7805C104.063 20.1082 104.794 19.5979 105.633 19.2495C106.472 18.8962 107.385 18.7195 108.371 18.7195C109.205 18.7195 109.983 18.8422 110.704 19.0876C111.426 19.328 112.066 19.6715 112.626 20.118C113.19 20.5646 113.654 21.0945 114.017 21.7079C114.38 22.3213 114.618 22.9985 114.731 23.7394H111.948Z" fill="white"/>
<path d="M174.839 27.9944C175.522 28.0916 175.998 28.7245 175.9 29.4079C175.603 31.4979 174.652 33.4403 173.184 34.9568C171.715 36.4731 169.804 37.486 167.725 37.8501C165.646 38.2143 163.504 37.911 161.608 36.9838C160.717 36.5481 159.901 35.9851 159.184 35.3171L158.134 36.3672C157.346 37.1547 156 36.597 156 35.4834V30.5H160.983C162.097 30.5 162.655 31.8464 161.867 32.6339L160.953 33.5479C161.475 34.0226 162.064 34.4242 162.706 34.7379C164.128 35.4332 165.734 35.6606 167.294 35.3876C168.853 35.1145 170.286 34.3549 171.388 33.2175C172.489 32.0801 173.202 30.6235 173.425 29.0559C173.523 28.3725 174.156 27.8972 174.839 27.9944ZM170.392 19.0162C171.285 19.4527 172.102 20.0169 172.82 20.6863L173.866 19.6399C174.654 18.8525 176 19.4102 176 20.5238V25.5H171.024C169.91 25.5 169.352 24.1536 170.14 23.3661L171.05 22.4555C170.528 21.9793 169.937 21.5766 169.294 21.2622C167.872 20.5668 166.266 20.3393 164.706 20.6124C163.147 20.8855 161.714 21.6451 160.612 22.7825C159.511 23.9198 158.798 25.3766 158.575 26.9441C158.477 27.6275 157.845 28.1028 157.161 28.0056C156.478 27.9084 156.002 27.2755 156.1 26.5921C156.397 24.5021 157.348 22.5598 158.816 21.0433C160.285 19.5269 162.196 18.514 164.275 18.1499C166.354 17.7858 168.496 18.089 170.392 19.0162Z" fill="#F25512"/>
</g>
<defs>
<linearGradient id="paint0_linear_2395_2396" x1="0" y1="27.5" x2="199" y2="27.5" gradientUnits="userSpaceOnUse">
<stop stop-color="#F25512"/>
<stop offset="1" stop-color="#FFB573"/>
</linearGradient>
<clipPath id="clip0_2395_2396">
<rect width="199" height="55" fill="white"/>
</clipPath>
</defs>
</svg>
