<svg width="199" height="55" viewBox="0 0 199 55" fill="none" xmlns="http://www.w3.org/2000/svg">
<g clip-path="url(#clip0_2395_2404)">
<path d="M171.5 0H27.5C12.3122 0 0 12.3122 0 27.5C0 42.6878 12.3122 55 27.5 55H171.5C186.688 55 199 42.6878 199 27.5C199 12.3122 186.688 0 171.5 0Z" fill="url(#paint0_linear_2395_2404)"/>
<path d="M167 45C176.389 45 184 37.165 184 27.5C184 17.835 176.389 10 167 10C157.611 10 150 17.835 150 27.5C150 37.165 157.611 45 167 45Z" fill="white"/>
<path d="M158 29.8871L163.493 35.38L175.577 23.2957M160.197 24.2722L163.577 27.69L171.183 20" stroke="#11763C" stroke-width="2.19714" stroke-linecap="round" stroke-linejoin="round"/>
<path d="M25.6561 37V21.9256H31.0293C32.1972 21.9256 33.1663 22.1268 33.9367 22.5292C34.712 22.9316 35.2911 23.4885 35.6738 24.2C36.0566 24.9066 36.2479 25.7237 36.2479 26.6511C36.2479 27.5736 36.0541 28.3857 35.6665 29.0874C35.2837 29.7842 34.7047 30.3264 33.9294 30.7141C33.159 31.1018 32.1898 31.2956 31.022 31.2956H26.9516V29.3377H30.8159C31.5519 29.3377 32.1506 29.2322 32.6118 29.0212C33.078 28.8102 33.419 28.5035 33.6349 28.1011C33.8509 27.6987 33.9588 27.2154 33.9588 26.6511C33.9588 26.0819 33.8484 25.5887 33.6276 25.1716C33.4117 24.7545 33.0706 24.4356 32.6045 24.2147C32.1432 23.989 31.5372 23.8762 30.7864 23.8762H27.9305V37H25.6561ZM33.0976 30.1989L36.8221 37H34.2311L30.5803 30.1989H33.0976ZM39.0155 37V21.9256H48.4664V23.8835H41.2899V28.4765H47.9733V30.427H41.2899V35.0421H48.5548V37H39.0155ZM59.7262 25.8856C59.6477 25.1888 59.3238 24.649 58.7546 24.2663C58.1854 23.8786 57.469 23.6848 56.6053 23.6848C55.9871 23.6848 55.4522 23.7829 55.0007 23.9792C54.5493 24.1706 54.1984 24.4356 53.9482 24.7741C53.7028 25.1078 53.5802 25.4881 53.5802 25.915C53.5802 26.2732 53.6636 26.5824 53.8304 26.8425C54.0022 27.1025 54.2254 27.3209 54.5002 27.4975C54.7799 27.6693 55.0793 27.814 55.3982 27.9318C55.7172 28.0447 56.0239 28.1379 56.3183 28.2115L57.7904 28.5943C58.2713 28.712 58.7644 28.8715 59.2699 29.0727C59.7753 29.2739 60.2439 29.5389 60.6757 29.8676C61.1075 30.1964 61.4559 30.6037 61.7209 31.0895C61.9908 31.5753 62.1257 32.1568 62.1257 32.8339C62.1257 33.6878 61.9049 34.4459 61.4633 35.1083C61.0266 35.7708 60.3911 36.2934 59.5569 36.6761C58.7276 37.0589 57.7241 37.2503 56.5465 37.2503C55.4178 37.2503 54.4413 37.0712 53.617 36.7129C52.7926 36.3547 52.1473 35.8468 51.6811 35.1893C51.215 34.5269 50.9574 33.7417 50.9083 32.8339H53.19C53.2342 33.3786 53.4109 33.8325 53.72 34.1956C54.0341 34.5538 54.434 34.8213 54.9198 34.9979C55.4105 35.1697 55.9478 35.2556 56.5317 35.2556C57.1746 35.2556 57.7462 35.155 58.2467 34.9538C58.7522 34.7477 59.1496 34.4631 59.4391 34.0999C59.7287 33.7319 59.8734 33.3026 59.8734 32.8119C59.8734 32.3653 59.7458 31.9997 59.4907 31.7151C59.2404 31.4305 58.8994 31.195 58.4676 31.0085C58.0406 30.8221 57.5573 30.6577 57.0175 30.5154L55.2363 30.0296C54.0292 29.7008 53.0723 29.2175 52.3657 28.5795C51.664 27.9416 51.3131 27.0976 51.3131 26.0475C51.3131 25.179 51.5486 24.4208 52.0197 23.7731C52.4908 23.1254 53.1287 22.6224 53.9335 22.2642C54.7382 21.9011 55.646 21.7195 56.6569 21.7195C57.6775 21.7195 58.578 21.8986 59.3582 22.2568C60.1433 22.6151 60.7616 23.1082 61.213 23.7363C61.6645 24.3595 61.9 25.0759 61.9196 25.8856H59.7262ZM77.938 29.4628C77.938 31.0723 77.6436 32.4561 77.0548 33.6142C76.4659 34.7673 75.6587 35.6555 74.6331 36.2787C73.6125 36.897 72.452 37.2061 71.1516 37.2061C69.8463 37.2061 68.6809 36.897 67.6553 36.2787C66.6347 35.6555 65.8299 34.7649 65.2411 33.6068C64.6522 32.4487 64.3578 31.0674 64.3578 29.4628C64.3578 27.8533 64.6522 26.472 65.2411 25.3188C65.8299 24.1608 66.6347 23.2726 67.6553 22.6543C68.6809 22.0311 69.8463 21.7195 71.1516 21.7195C72.452 21.7195 73.6125 22.0311 74.6331 22.6543C75.6587 23.2726 76.4659 24.1608 77.0548 25.3188C77.6436 26.472 77.938 27.8533 77.938 29.4628ZM75.6857 29.4628C75.6857 28.2361 75.487 27.2031 75.0895 26.364C74.6969 25.52 74.1572 24.8821 73.4702 24.4503C72.7881 24.0136 72.0152 23.7952 71.1516 23.7952C70.2831 23.7952 69.5077 24.0136 68.8257 24.4503C68.1436 24.8821 67.6038 25.52 67.2064 26.364C66.8138 27.2031 66.6175 28.2361 66.6175 29.4628C66.6175 30.6896 66.8138 31.7249 67.2064 32.569C67.6038 33.4081 68.1436 34.046 68.8257 34.4827C69.5077 34.9145 70.2831 35.1304 71.1516 35.1304C72.0152 35.1304 72.7881 34.9145 73.4702 34.4827C74.1572 34.046 74.6969 33.4081 75.0895 32.569C75.487 31.7249 75.6857 30.6896 75.6857 29.4628ZM80.7737 37V21.9256H83.0481V35.0421H89.8786V37H80.7737ZM92.3131 21.9256L96.5086 34.203H96.6779L100.873 21.9256H103.332L97.9072 37H95.2794L89.8547 21.9256H92.3131ZM105.509 37V21.9256H114.96V23.8835H107.783V28.4765H114.467V30.427H107.783V35.0421H115.048V37H105.509ZM122.878 37H117.998V21.9256H123.032C124.509 21.9256 125.778 22.2274 126.838 22.831C127.898 23.4296 128.71 24.2908 129.274 25.4145C129.843 26.5333 130.128 27.8754 130.128 29.4407C130.128 31.011 129.841 32.3604 129.267 33.489C128.698 34.6176 127.873 35.4862 126.794 36.0947C125.714 36.6982 124.409 37 122.878 37ZM120.272 35.0127H122.753C123.901 35.0127 124.855 34.7967 125.616 34.3649C126.376 33.9282 126.946 33.2976 127.324 32.4733C127.701 31.644 127.89 30.6331 127.89 29.4407C127.89 28.2581 127.701 27.2546 127.324 26.4303C126.951 25.6059 126.394 24.9802 125.653 24.5533C124.912 24.1264 123.992 23.913 122.892 23.913H120.272V35.0127Z" fill="white"/>
</g>
<defs>
<linearGradient id="paint0_linear_2395_2404" x1="0" y1="27.5" x2="199" y2="27.5" gradientUnits="userSpaceOnUse">
<stop stop-color="#12743B"/>
<stop offset="1" stop-color="#00C67B"/>
</linearGradient>
<clipPath id="clip0_2395_2404">
<rect width="199" height="55" fill="white"/>
</clipPath>
</defs>
</svg>
