<svg width="551" height="551" viewBox="0 0 551 551" fill="none" xmlns="http://www.w3.org/2000/svg">
<g clip-path="url(#clip0_89_10434)">
<path d="M503.894 245.717H370.609C370.609 245.717 383.825 209.621 404.163 209.621C424.502 209.621 430.872 234.536 430.872 234.536C430.872 234.536 444.594 221 455.867 221C467.139 221 476.94 238.888 476.94 238.888C476.94 238.888 492.867 229.269 503.894 245.717Z" fill="#EBEBEB"/>
<path d="M391.68 167.471H329.393C329.393 167.471 343.311 147.307 354.276 147.307C365.242 147.307 368.482 160.75 368.482 160.75C368.482 160.75 376.22 154.476 383.389 155.597C390.559 156.716 391.68 167.471 391.68 167.471Z" fill="#EBEBEB"/>
<path d="M177.34 288.677H115.053C115.053 288.677 128.971 268.512 139.936 268.512C150.901 268.512 154.142 281.955 154.142 281.955C154.142 281.955 161.88 275.681 169.05 276.802C176.219 277.923 177.34 288.677 177.34 288.677Z" fill="#EBEBEB"/>
<path d="M168.432 182.732H47.1074C47.1074 182.732 63.7223 145.639 81.4953 143.322C99.2695 141.003 107.769 170.884 107.769 170.884C107.769 170.884 119.232 160.322 128.248 160.322C137.263 160.322 144.218 174.232 144.218 174.232C144.218 174.232 162.25 164.702 168.432 182.732Z" fill="#EBEBEB"/>
<path d="M302.109 97.8376H220.152C220.152 97.8376 234.23 70.9631 249.503 70.5719C264.776 70.1807 272.804 90.9104 272.804 90.9104C272.804 90.9104 296.562 71.8447 302.109 97.8376Z" fill="#EBEBEB"/>
<path d="M479.281 491.809C479.281 496.596 443.854 500.476 400.153 500.476C356.452 500.476 321.025 496.596 321.025 491.809C321.025 487.023 356.452 483.143 400.153 483.143C443.854 483.143 479.281 487.023 479.281 491.809Z" fill="#EBEBEB"/>
<path d="M91.0921 429.708C84.7975 429.93 77.7766 430.288 72.5642 426.207C67.7528 422.44 63.4572 416.823 64.0942 410.375C64.2782 408.536 64.7003 407.401 66.6707 408.186C69.6725 409.382 71.9878 412.694 74.0673 415.018C76.765 418.035 79.5795 420.834 82.7995 423.3C85.0377 425.016 87.4522 426.502 89.7355 428.165C90.0253 428.368 90.3108 428.579 90.5918 428.801C90.6987 428.878 90.81 428.958 90.9169 429.044C90.9753 429.049 91.0381 429.049 91.0954 429.05C91.2166 429.055 91.3059 429.109 91.3544 429.185C91.3764 429.217 91.394 429.253 91.4028 429.293C91.4425 429.476 91.3389 429.7 91.0921 429.708Z" fill="#455A64"/>
<path d="M91.404 429.293C85.8719 429.198 79.8991 429.449 75.4723 425.694C73.427 423.956 71.7233 421.735 70.3337 419.45C69.6946 418.409 67.776 415.305 68.5705 414.069C70.0097 411.833 76.6019 420.945 77.5155 421.818C80.946 425.086 85.2239 427.018 89.7355 428.166C90.0254 428.368 90.3108 428.58 90.5918 428.801C87.3717 428.109 84.2443 426.97 81.4154 425.276C77.4879 422.932 75.3026 419.471 72.2303 416.236C71.5669 415.535 69.5645 413.184 68.8097 414.647C68.3127 415.612 70.164 418.652 70.5629 419.303C71.8864 421.468 73.5053 423.566 75.4206 425.237C79.833 429.091 85.7783 428.956 91.3544 429.185C91.3775 429.217 91.3951 429.252 91.404 429.293Z" fill="white"/>
<path d="M94.5622 433.546C94.5071 433.787 94.4608 434.029 94.4101 434.274C94.4101 434.283 94.4057 434.288 94.4013 434.296C94.3869 434.364 94.3429 434.408 94.2889 434.425C94.1677 434.474 94.0068 434.414 93.9583 434.299C93.9362 434.258 93.9362 434.205 93.955 434.146C93.9638 434.114 93.9737 434.084 93.9869 434.048C94.0101 433.977 94.0321 433.905 94.0552 433.833C94.0508 433.829 94.0464 433.825 94.042 433.816C94.0376 433.794 94.0288 433.766 94.0244 433.744C92.9092 429.58 92.4739 425.249 91.3002 421.08C90.1784 417.104 88.7844 413.202 87.9766 409.142C87.4664 406.583 85.6867 393.741 91.3465 395.341C93.8536 396.051 95.5727 399.681 96.5237 401.853C97.7987 404.766 98.4401 407.916 98.6076 411.082C99.0187 418.912 96.149 426.038 94.5622 433.546Z" fill="#455A64"/>
<path d="M96.3738 417.553C96.4421 414.626 96.2273 411.68 95.4669 408.84C95.2134 407.855 93.9836 403.131 92.3835 403.248C91.3487 403.317 91.1735 405.356 91.0853 406.029C90.7239 408.888 91.6506 411.805 92.2072 414.587C93.3488 420.256 93.9836 425.984 94.2855 431.74C94.237 432.102 94.1786 432.472 94.139 432.834C94.0905 433.137 94.0607 433.439 94.0221 433.742C94.0122 433.849 93.9924 433.947 93.9836 434.054C93.9737 434.132 93.9637 434.21 93.9538 434.297C94.0023 434.414 94.1687 434.472 94.2855 434.424C94.3153 434.19 94.3538 433.955 94.3836 433.721C94.3935 433.916 94.3935 434.101 94.4034 434.297C94.4034 434.287 94.4134 434.287 94.4134 434.277C94.4519 434.072 94.4916 433.877 94.5302 433.682C94.5401 433.634 94.55 433.594 94.5599 433.546C94.5599 433.224 94.55 432.901 94.5401 432.589C95.2619 427.584 96.2471 422.607 96.3738 417.553ZM94.4618 430.521C94.3054 427.154 93.9737 423.797 93.4954 420.46C93.1152 417.767 92.6072 415.104 92.0419 412.449C91.7201 410.946 91.3884 409.444 91.32 407.902C91.2716 406.732 91.4369 402.399 93.6717 405.082C95.2817 407.034 95.6718 411.18 95.8669 413.572C96.0917 416.225 95.9749 418.89 95.7104 421.544C95.4085 424.55 94.9104 427.535 94.4618 430.521Z" fill="white"/>
<path d="M97.9525 450.82H97.9492C97.8423 450.842 97.7321 450.849 97.7166 450.849C91.9609 450.558 84.2932 451.098 79.5061 447.29C75.9698 444.477 72.4952 438.92 73.6137 434.203C74.8854 428.887 82.0649 435.267 83.9648 436.805C88.8037 440.73 98.0693 450.339 98.0682 450.527C98.0902 450.565 98.12 450.593 98.1409 450.631C98.1442 450.638 98.1486 450.645 98.1519 450.649C98.2026 450.74 98.0814 450.79 97.9525 450.82Z" fill="#455A64"/>
<path d="M98.1517 450.651C97.82 450.446 97.4883 450.241 97.1566 450.026C93.3701 447.646 89.6817 445.098 86.1399 442.376C85.2417 441.693 78.7631 435.926 77.7878 437.985C77.2026 439.234 79.3394 441.771 80.0227 442.63C81.2525 444.161 82.7358 445.488 84.3943 446.533C88.2293 448.923 92.883 449.441 97.2249 450.592C97.4299 450.631 97.6348 450.69 97.8398 450.748C97.8784 450.777 97.9081 450.797 97.9467 450.816H97.9566C98.0833 450.788 98.2002 450.739 98.1517 450.651ZM86.7647 447.373C84.9398 446.553 83.2515 445.401 81.798 444.016C80.8315 443.099 77.4264 439.654 78.3344 438.239C78.8127 437.488 79.2127 437.888 80.1296 438.337C80.5494 438.542 80.9594 438.786 81.3495 439.039C82.3159 439.673 83.203 440.415 84.1012 441.128C85.6814 442.396 87.2826 443.616 88.9213 444.806C91.5948 446.758 94.3465 448.593 97.1566 450.339C93.7018 449.276 90.0531 448.856 86.7647 447.373Z" fill="white"/>
<path d="M108.463 438.961C106.998 445.548 103.489 451.563 98.5994 456.19C98.563 456.22 98.5278 456.243 98.4914 456.251C98.379 456.291 98.2633 456.237 98.1961 456.142C98.1288 456.052 98.1167 455.919 98.2247 455.811C98.3239 455.717 98.4176 455.614 98.5167 455.516C99.47 447.692 100.521 439.912 101.327 432.065C101.515 430.217 102.963 418.446 106.579 420.363C108.812 421.547 108.961 426.368 109.151 428.536C109.462 432.018 109.219 435.554 108.463 438.961Z" fill="#455A64"/>
<path d="M106.374 428.47C106.179 427.817 105.837 427.143 105.106 427.602C103.701 428.48 103.144 434.013 102.911 435.545C101.944 441.858 100.451 447.927 98.929 454.104C98.8023 454.621 98.6755 455.149 98.5488 455.675C98.432 455.832 98.3141 455.987 98.1973 456.144C98.2656 456.242 98.3824 456.29 98.4904 456.252C98.5102 456.203 98.5201 456.144 98.5389 456.095C98.6954 455.89 98.8607 455.675 99.0072 455.46C99.0072 455.451 99.0072 455.451 99.0072 455.451C101.486 452.084 103.409 448.259 104.706 444.347C105.535 441.829 106.091 439.243 106.384 436.609C106.657 434.189 107.106 430.842 106.374 428.47ZM98.9874 455.031C98.9191 455.138 98.8408 455.236 98.7725 455.343C98.8408 455.128 98.9092 454.923 98.9676 454.708C100.421 450.004 101.661 445.204 102.491 440.344C102.911 437.876 103.174 435.388 103.681 432.938C103.896 431.903 104.403 428.946 105.261 428.469C106.091 427.991 106.1 429.142 106.188 429.806C106.246 430.284 106.246 431.153 106.256 431.601C106.394 440.15 103.759 448.152 98.9874 455.031Z" fill="white"/>
<path d="M99.5559 473.065H98.4043C98.3844 472.05 98.3657 471.035 98.336 470.03C98.1993 465.942 98.0329 461.853 97.7894 457.765C97.6527 455.433 97.4874 453.12 97.2428 450.828C97.2329 450.749 97.2229 450.671 97.2229 450.593C97.1943 450.408 97.1745 450.223 97.1546 450.028C97.1348 449.833 97.1061 449.628 97.0764 449.423C96.4515 444.271 95.3595 439.236 93.1246 434.396C92.3929 432.805 91.5928 431.254 90.7531 429.712C90.6749 429.566 90.5878 429.419 90.5096 429.274C90.4897 429.235 90.471 429.195 90.4412 429.157C90.363 429 90.2759 428.855 90.1878 428.698C90.1195 428.582 90.061 428.474 89.9927 428.357C87.3292 423.673 84.2844 419.195 81.396 414.686C80.5662 413.398 79.7375 412.101 78.9275 410.803C78.8691 410.725 78.8206 410.646 78.781 410.569C78.7126 410.481 78.6542 410.384 78.5958 410.286C74.9658 404.558 71.3943 398.781 67.6276 393.161C67.4811 392.956 67.8227 392.771 67.9593 392.976C70.506 396.704 73.1409 400.373 75.756 404.061C76.1075 404.549 76.4491 405.046 76.7996 405.534C77.4927 406.51 78.176 407.476 78.8581 408.451C80.2246 410.403 81.5712 412.355 82.8881 414.335C86.5964 419.887 90.4699 425.488 93.485 431.48C93.7098 431.928 93.9236 432.378 94.1384 432.836C94.2751 433.12 94.4117 433.403 94.5285 433.685C94.685 434.007 94.8305 434.338 94.9771 434.67C97.5337 440.535 98.4407 446.575 98.8506 452.8C98.8804 453.23 98.909 453.669 98.9288 454.107C98.9388 454.302 98.9586 454.507 98.9674 454.712C98.9674 454.819 98.9773 454.927 98.9872 455.034C98.9872 455.171 98.9972 455.307 99.0071 455.454C99.0071 455.454 99.0071 455.454 99.0071 455.464C99.0071 455.562 99.017 455.669 99.017 455.776C99.0368 456.146 99.0468 456.517 99.0655 456.897C99.2308 460.986 99.3388 465.074 99.4269 469.153C99.4578 470.45 99.5074 471.758 99.5559 473.065Z" fill="#455A64"/>
<path d="M65.1994 398.999C62.0488 394.762 58.01 386.02 62.6538 381.474C64.5195 379.644 67.1169 379.46 69.2372 380.988C71.6913 382.763 72.7911 386.117 73.5857 388.894C75.7147 396.307 77.1242 403.862 79.7822 411.127C79.8296 411.17 80.007 411.747 80.0709 411.906C80.126 412.057 79.8847 412.12 79.8296 411.973C79.7403 411.736 79.6555 411.499 79.5662 411.262C74.5477 407.622 68.9341 404.025 65.1994 398.999Z" fill="#455A64"/>
<path d="M79.8255 411.143C79.7969 411.105 79.777 411.055 79.7473 411.016C78.6442 409.241 77.6788 407.416 76.8005 405.533C74.9855 401.62 73.6003 397.521 72.2724 393.394C71.7655 391.804 69.502 384.017 66.7205 387.12C65.5491 388.428 65.7155 390.74 65.9007 392.34C66.1839 394.916 67.0721 397.375 68.3206 399.638C70.8189 404.137 74.7023 407.542 78.7808 410.567C78.966 410.713 79.1522 410.85 79.3373 410.987C79.377 411.055 79.4156 411.113 79.4541 411.182C79.474 411.22 79.5037 411.27 79.5324 411.308C79.5522 411.337 79.5721 411.357 79.6007 411.367C79.6988 411.415 79.8244 411.357 79.8443 411.26C79.8553 411.221 79.8553 411.183 79.8255 411.143ZM78.5957 410.285C75.3073 407.689 72.0972 404.859 69.7257 401.385C68.4959 399.58 67.482 397.59 66.8374 395.491C66.5541 394.565 66.3392 393.598 66.2125 392.632C66.1144 391.92 66.056 391.168 66.0858 390.446C66.1343 388.846 66.7977 387.1 67.7443 386.933C68.9157 386.718 69.3058 387.402 70.0761 388.748C70.3395 389.198 70.5643 389.675 70.7693 390.153C71.2861 391.353 71.6862 392.603 72.0763 393.842C72.7297 395.9 73.3932 397.95 74.1348 399.98C74.6318 401.356 75.1685 402.722 75.7547 404.058C76.7598 406.371 77.8915 408.615 79.2095 410.772C79.0056 410.616 78.8007 410.451 78.5957 410.285Z" fill="white"/>
<path d="M460.444 410.848C459.924 415.048 459.121 419.206 458.271 423.35C457.794 425.701 457.285 428.046 456.81 430.404C456.287 432.996 455.516 435.636 456.218 438.252C456.224 438.256 456.231 438.253 456.233 438.258C456.259 438.282 456.263 438.615 456.26 438.62C456.251 438.639 456.241 438.655 456.231 438.666C456.106 438.834 455.772 438.834 455.688 438.57C455.671 438.509 455.658 438.452 455.642 438.396C455.629 438.377 455.613 438.359 455.6 438.341C455.158 437.743 454.875 436.598 454.694 436.162C453.875 434.188 453.192 432.149 452.607 430.09C451.408 425.875 450.681 421.522 450.565 417.135C450.461 413.212 450.855 409.274 451.785 405.465C452.533 402.413 453.599 397.864 455.872 395.529C457.934 393.42 459.649 396.801 460.244 398.511C461.581 402.397 460.936 406.873 460.444 410.848Z" fill="#455A64"/>
<path d="M456.684 401.936C455.152 401.936 454.039 406.882 453.494 409.019C452.625 412.386 452.215 415.849 452.186 419.324C452.127 425.579 453.347 431.736 455.357 437.629C455.435 437.863 455.514 438.108 455.601 438.341C455.611 438.361 455.63 438.38 455.64 438.4C455.66 438.448 455.669 438.507 455.689 438.565C455.767 438.828 456.109 438.838 456.235 438.663C456.137 438.146 456.06 437.638 456.001 437.121C455.942 436.653 455.894 436.195 455.864 435.735C455.444 430.71 456.167 425.568 456.801 420.581C457.542 414.728 458.714 401.944 456.684 401.936ZM455.582 436.721C455.66 437.405 455.767 438.078 455.894 438.741C455.737 438.253 455.582 437.765 455.435 437.278C453.825 432.028 452.704 426.632 452.547 421.129C452.45 418.046 452.664 414.942 453.22 411.899C453.522 410.259 453.914 408.649 454.411 407.069C454.625 406.405 455.737 402.267 456.684 402.472C457.347 402.619 457.504 406.346 457.514 406.424C457.552 407.166 457.552 407.917 457.542 408.668C457.523 410.209 457.416 411.751 457.289 413.283C456.996 416.61 456.519 419.928 456.118 423.245C455.582 427.666 455.064 432.271 455.582 436.721Z" fill="white"/>
<path d="M484.563 422.446C481.751 427.932 477.015 432.133 472.124 435.734C469.5 437.662 466.79 439.466 464.127 441.329C461.894 442.889 459.193 444.542 457.219 446.644C457.131 446.732 457.041 446.828 456.956 446.928C456.405 447.545 455.919 448.202 455.524 448.904C455.489 448.959 455.444 448.986 455.393 448.989C455.365 449.073 455.338 449.151 455.301 449.232C455.279 449.288 455.187 449.278 455.193 449.207C455.199 449.12 455.217 449.022 455.224 448.935C455.226 448.926 455.225 448.922 455.228 448.913C455.181 448.855 455.165 448.782 455.211 448.703C455.222 448.674 455.242 448.644 455.261 448.615C455.272 448.526 455.282 448.435 455.296 448.346C456.097 441.932 460.582 435.453 464.373 430.516C468.145 425.601 472.845 421.216 478.699 418.959C480.173 418.394 483.517 416.833 485.015 418.031C486.383 419.124 485.163 421.285 484.563 422.446Z" fill="#455A64"/>
<path d="M480.218 422.473C478.882 421.137 474.95 424.435 473.963 425.205C470.968 427.537 468.363 430.319 465.825 433.119C461.668 437.734 457.96 442.535 455.433 448.156V448.166C455.385 448.224 455.345 448.282 455.297 448.341C455.277 448.439 455.267 448.526 455.258 448.614C455.238 448.644 455.219 448.672 455.21 448.702C455.161 448.78 455.181 448.859 455.229 448.917C455.298 448.839 455.356 448.761 455.424 448.692C455.913 448.087 456.429 447.502 456.956 446.926C457.044 446.828 457.131 446.731 457.22 446.643C460.888 442.691 465.221 439.364 469.388 435.899C472.276 433.489 475.096 430.932 477.486 428.024C478.101 427.285 481.341 423.596 480.218 422.473ZM478.99 425.411C475.672 430.915 469.925 434.935 465.046 438.945C461.738 441.648 458.499 444.468 455.786 447.737C458.236 442.77 461.758 438.302 465.398 434.213C467.496 431.852 469.652 429.52 472.004 427.412C473.263 426.27 474.589 425.148 476.014 424.201C476.658 423.772 477.946 422.972 478.726 422.738C480.59 422.19 479.555 424.465 478.99 425.411Z" fill="white"/>
<path d="M454.635 461.968C454.583 462.065 454.468 462.124 454.349 462.129C454.375 462.166 454.398 462.195 454.422 462.228C454.459 462.28 454.441 462.335 454.404 462.364C454.369 462.402 454.312 462.411 454.268 462.364C449.069 457.076 444.06 450.65 441.471 443.643C440.379 440.688 439.702 437.574 439.615 434.418C439.557 432.261 439.443 427.916 441.287 426.342C445.004 423.185 448.39 436.592 448.894 438.614C449.816 442.299 450.422 446.054 451.269 449.754C452.201 453.805 453.425 457.78 454.643 461.752C454.67 461.837 454.664 461.91 454.635 461.968Z" fill="#455A64"/>
<path d="M454.636 461.964C454.431 461.623 454.235 461.281 454.05 460.93C450.85 455.261 448.752 449.416 447.357 442.917C446.683 439.785 446.088 436.526 444.888 433.54C444.586 432.799 443.658 429.94 442.43 431.384C441.795 432.135 442.323 437.551 442.576 438.946C443.161 442.137 444.255 445.221 445.591 448.157C447.816 453.056 450.713 457.779 454.11 461.994C454.208 462.121 454.305 462.248 454.403 462.365C454.442 462.336 454.461 462.277 454.423 462.229C454.403 462.2 454.374 462.17 454.354 462.132C454.469 462.12 454.586 462.061 454.636 461.964ZM447.092 450.441C445.629 447.591 444.36 444.606 443.521 441.502C443.189 440.273 442.926 439.014 442.741 437.746C442.604 436.751 442.477 435.746 442.487 434.75C442.507 432.302 442.702 431.667 443.112 431.579C443.365 431.53 443.717 431.794 444.439 433.257C444.897 434.184 445.219 435.237 445.482 436.234C445.862 437.677 446.194 439.132 446.507 440.595C447.142 443.512 447.737 446.45 448.586 449.309C449.786 453.397 451.503 457.389 453.747 461.028C451.259 457.681 449.005 454.187 447.092 450.441Z" fill="white"/>
<path d="M471.306 449.112C470.809 451.706 469.425 454.079 467.896 456.2C464.813 460.462 460.867 464.002 457.498 468.03C456.995 468.632 456.504 469.244 456.028 469.873C455.979 469.943 455.59 470.833 455.596 470.759C455.596 470.741 455.655 470.404 455.767 469.832L455.77 469.827C456.312 467.004 458.084 458.484 460.295 454.126C461.655 451.447 463.236 448.698 465.218 446.422C466.173 445.342 468.416 443.005 470.107 443.515C471.924 444.065 471.568 447.758 471.306 449.112Z" fill="#455A64"/>
<path d="M468.557 447.385C466.752 446.263 462.097 454.577 461.473 455.65C459.16 459.632 457.375 463.885 456.165 468.325C456.019 468.823 455.892 469.32 455.765 469.828C455.658 470.404 455.59 470.735 455.59 470.755C455.62 470.755 455.98 469.945 456.028 469.867C456.107 469.76 456.195 469.652 456.272 469.545C456.672 469.028 457.082 468.52 457.492 468.033C459.512 465.008 461.59 462.013 463.552 458.94C464.967 456.725 466.264 454.451 467.309 452.031C467.542 451.483 469.348 447.873 468.557 447.385ZM468.04 449.727C465.474 456.957 460.235 462.656 456.233 469.077C456.165 469.185 456.107 469.282 456.038 469.389C456.097 469.204 456.145 469.009 456.205 468.822C457.298 465.172 458.693 461.641 460.45 458.264C461.513 456.215 462.713 454.224 464.021 452.312C464.714 451.307 465.416 450.127 466.246 449.219C466.618 448.809 467.681 447.726 468.041 447.912C468.557 448.166 468.206 449.249 468.04 449.727Z" fill="white"/>
<path d="M489.428 389.433C484.065 401.756 469.99 407.495 463.889 419.374C463.877 419.399 463.868 419.417 463.859 419.436C463.673 419.798 463.496 420.166 463.325 420.541C463.24 420.722 463.015 420.711 462.919 420.604C462.874 420.555 462.859 420.484 462.896 420.399C462.932 420.31 462.977 420.218 463.022 420.131C463.974 412.723 467.014 405.095 470.554 398.56C473.636 392.878 477.856 387.566 483.702 384.574C485.141 383.834 487.951 382.272 489.566 383.497C491.277 384.789 490.09 387.914 489.428 389.433Z" fill="#455A64"/>
<path d="M484.6 389.963C483.917 389.456 482.883 390.07 482.297 390.373C480.833 391.115 479.467 392.09 478.228 393.155C475.652 395.341 473.554 398.033 471.739 400.873C468.695 405.655 465.885 410.905 464.089 416.378C463.679 417.617 463.319 418.866 463.026 420.135C462.987 420.291 462.958 420.447 462.918 420.603C463.016 420.711 463.24 420.72 463.328 420.545C463.484 420.175 463.66 419.833 463.836 419.472C463.846 419.443 463.865 419.413 463.884 419.373C464.948 416.925 466.178 414.573 467.709 412.348C470.061 408.923 472.979 405.908 475.74 402.825C476.833 401.614 486.961 391.69 484.6 389.963ZM483.741 392.813C482.111 395.711 479.585 398.073 477.38 400.531C475.155 403.02 472.901 405.478 470.715 407.996C468.988 409.988 467.398 412.134 466.021 414.407C464.87 416.29 463.875 418.281 463.084 420.34C463.641 418.242 464.363 416.183 465.183 414.173C465.193 414.143 465.202 414.125 465.221 414.105C466.695 410.523 468.529 407.07 470.423 403.742C470.442 403.703 470.471 403.653 470.491 403.615C472.179 400.668 474.072 397.8 476.424 395.331C477.702 393.994 479.098 392.755 480.649 391.74C482.416 390.598 483.957 389.856 484.396 390.423C484.688 390.812 484.23 391.963 483.741 392.813Z" fill="white"/>
<path d="M470.696 403.875C469.086 407.348 467.544 410.871 466.021 414.403C465.3 416.062 464.588 417.721 463.885 419.37C463.865 419.41 463.845 419.438 463.836 419.468C463.583 420.063 463.319 420.668 463.065 421.263C460.743 426.669 458.186 432.202 456.771 437.93C456.03 440.925 455.659 444.048 455.483 447.19C455.473 447.512 455.454 447.835 455.435 448.156V448.166C455.435 448.342 455.425 448.518 455.425 448.693C455.415 448.791 455.415 448.888 455.415 448.986C455.318 451.689 455.356 454.401 455.405 457.036C455.473 460.715 455.785 464.365 456.137 468.005C456.137 468.111 456.146 468.219 456.166 468.326C456.176 468.493 456.195 468.658 456.205 468.824C456.215 468.913 456.225 468.991 456.235 469.078C456.245 469.234 456.263 469.39 456.273 469.546C456.39 470.718 456.498 471.888 456.595 473.069H455.473C454.732 469.537 454.322 465.859 454.117 462.219C454.107 462.141 454.107 462.072 454.107 461.994C454.077 461.643 454.058 461.282 454.048 460.931C454.02 460.492 454 460.062 453.99 459.624C453.951 458.57 453.922 457.526 453.902 456.492C453.795 450.481 453.863 444.217 455.19 438.323C455.229 438.157 455.268 438.001 455.307 437.835C455.317 437.767 455.335 437.698 455.355 437.63C455.375 437.513 455.404 437.395 455.433 437.279L455.58 436.722C455.668 436.39 455.765 436.059 455.863 435.736C455.892 435.639 455.922 435.541 455.951 435.443C457.493 430.301 459.933 425.314 462.148 420.484C462.558 419.596 462.968 418.718 463.387 417.839C463.621 417.351 463.855 416.864 464.09 416.376C464.451 415.644 464.821 414.902 465.183 414.171C465.193 414.141 465.203 414.122 465.221 414.102C466.939 410.639 468.725 407.214 470.423 403.739C470.501 403.583 470.774 403.709 470.696 403.875Z" fill="#455A64"/>
<path d="M506.251 473.066L448.562 473.333L390.874 473.431L275.497 473.615L160.121 473.432L102.433 473.335L44.7441 473.066L102.433 472.797L160.121 472.7L275.497 472.516L390.874 472.701L448.562 472.798L506.251 473.066Z" fill="#263238"/>
<path d="M231.396 277.394C243.336 309.929 274.235 373.019 297.174 382.587C316.649 390.709 363.115 391.703 376.992 391.102C384.332 390.785 371.488 328.362 363.634 328.49C355.58 328.621 318.823 327.543 313.053 326.446C307.283 325.348 275.714 286.472 256.049 265.885C231.243 239.918 221.616 250.745 231.396 277.394Z" fill="#FFBF9D"/>
<path d="M367.654 390.603C375.065 391.414 409.781 392.391 419.369 390.458C428.957 388.525 456.143 380.964 455.408 373.47C454.673 365.976 446.537 367.554 446.537 367.554C446.537 367.554 457.512 362.544 456.085 355.069C454.658 347.594 442.081 350.465 442.081 350.465C442.081 350.465 452.976 344.496 451.019 337.142C449.063 329.789 436.899 334.793 436.899 334.793C436.899 334.793 447.115 329.801 442.954 324.42C437.948 317.948 420.153 329.28 409.41 330.62C406.97 330.924 359.516 333.266 359.516 333.266L367.654 390.603Z" fill="#FFBF9D"/>
<path d="M437.949 334.383C424.843 342.685 417.675 344.049 402.402 344.075C402.103 344.075 402.037 344.519 402.349 344.546C417.307 345.884 426.547 345.469 438.385 334.997C438.963 334.485 438.573 333.988 437.949 334.383Z" fill="#263238"/>
<path d="M443.107 349.786C428.743 357.22 420.979 358.769 404.985 359.971C404.759 359.988 404.764 360.374 404.994 360.375C420.782 360.508 429.992 359.882 443.368 350.569C443.974 350.148 443.764 349.445 443.107 349.786Z" fill="#263238"/>
<path d="M445.719 367.589C431.291 373.782 422.853 375.848 407.176 375.022C406.807 375.003 406.743 375.54 407.112 375.596C423.015 377.993 433.565 375.494 445.861 368.048C446.699 367.539 446.627 367.199 445.719 367.589Z" fill="#263238"/>
<path d="M349.76 333.103C349.76 333.103 363.974 319.844 371.504 315.396C379.033 310.949 413.194 304.703 414.962 312.004C417.244 321.432 398.235 328.922 388.444 331.374C388.444 331.374 393.745 353.176 381.265 361.504C368.786 369.831 349.76 333.103 349.76 333.103Z" fill="#FFBF9D"/>
<path d="M414.743 314.8C410.622 324.899 397.564 327.288 388.244 330.377C387.535 330.612 387.475 331.265 387.761 331.771C389.372 341.058 388.943 354.627 381.87 361.624C381.663 361.829 381.925 362.151 382.161 361.972C390.765 355.498 392.276 342.202 389.86 332.142C399.466 329.124 412.458 326.153 414.841 314.834C414.854 314.77 414.768 314.735 414.743 314.8Z" fill="#263238"/>
<path d="M251.286 333.592L314.692 320.381C314.692 320.381 270.062 271.329 247.776 254.409C224.55 236.773 214.307 240.498 227.668 276.73C241.11 313.183 251.286 333.592 251.286 333.592Z" fill="#6366F1"/>
<path d="M258.462 312.778C257.9 312.701 257.47 312.558 257.04 312.282C256.236 311.753 255.773 310.894 255.806 309.935C255.773 308.524 254.803 307.136 253.503 306.673C252.852 306.431 252.114 306.464 251.585 306.563C250.979 306.673 250.417 306.75 249.811 306.926C250.417 307.059 250.979 307.136 251.585 307.246C252.18 307.323 252.61 307.455 253.04 307.698C253.844 308.194 254.34 309.086 254.34 309.979C254.34 311.356 255.233 312.811 256.544 313.274C257.15 313.549 257.9 313.594 258.462 313.483C259.068 313.34 259.63 313.274 260.203 313.131C259.63 312.954 259.068 312.877 258.462 312.778ZM224.255 257.909C223.649 257.843 223.22 257.7 222.79 257.414C222.503 257.215 222.25 256.973 222.062 256.697C222.14 257.259 222.228 257.854 222.349 258.471C222.977 258.725 223.693 258.725 224.255 258.626C224.818 258.516 225.424 258.449 225.986 258.262C225.424 258.086 224.818 258.02 224.255 257.909ZM280.347 284.335C280.27 284.875 280.138 285.25 279.918 285.625C279.411 286.451 278.573 286.947 277.647 286.947C276.259 286.903 274.848 287.829 274.352 289.151C274.055 289.746 274.022 290.485 274.176 291.058C274.275 291.653 274.352 292.226 274.485 292.788C274.661 292.226 274.738 291.653 274.848 291.058C274.914 290.485 275.091 290.055 275.344 289.636C275.873 288.821 276.722 288.358 277.68 288.391C279.135 288.358 280.48 287.399 280.942 286.088C281.064 285.779 281.108 285.437 281.119 285.107C280.865 284.842 280.612 284.589 280.347 284.335ZM253.414 269.018C252.952 269.37 252.555 269.58 252.059 269.679C251.111 269.866 250.186 269.613 249.546 268.907C248.522 267.916 246.846 267.64 245.612 268.235C244.973 268.478 244.477 269.051 244.158 269.514C243.827 270.009 243.452 270.472 243.166 271.001C243.695 270.682 244.158 270.329 244.654 270.009C245.116 269.613 245.513 269.403 245.998 269.304C246.924 269.051 247.915 269.304 248.555 269.932C249.513 270.968 251.144 271.31 252.412 270.748C253.051 270.505 253.58 270.009 253.943 269.514C254.263 269.018 254.616 268.555 254.902 268.015C254.373 268.345 253.91 268.698 253.414 269.018ZM301.737 309.549C301.274 309.913 300.889 310.122 300.393 310.221C299.445 310.409 298.519 310.155 297.88 309.45C296.844 308.458 295.18 308.183 293.946 308.778C293.307 309.02 292.811 309.593 292.491 310.056C292.161 310.552 291.786 311.015 291.489 311.544C292.029 311.224 292.491 310.872 292.987 310.552C293.45 310.155 293.836 309.946 294.332 309.847C295.246 309.593 296.249 309.847 296.888 310.475C297.847 311.511 299.478 311.852 300.745 311.29C301.384 311.048 301.913 310.552 302.277 310.056C302.597 309.549 302.949 309.086 303.236 308.557C302.707 308.888 302.244 309.241 301.737 309.549Z" fill="white"/>
<path d="M253.287 321.787C254.755 321.301 256.307 321.015 257.812 320.667C259.362 320.309 260.911 319.942 262.46 319.577C265.6 318.838 268.753 318.155 271.908 317.487C278.212 316.151 284.511 314.792 290.837 313.564C292.576 313.227 294.317 312.894 296.065 312.601C297.902 312.293 299.764 312.119 301.595 311.808C301.709 311.788 301.726 311.956 301.619 311.982C300.069 312.36 298.546 312.867 296.995 313.253C295.406 313.647 293.81 314.023 292.211 314.377C289.064 315.072 285.911 315.745 282.752 316.389C276.536 317.658 270.319 318.953 264.076 320.089C262.332 320.406 260.588 320.707 258.844 321.024C257.022 321.356 255.177 321.793 253.331 321.955C253.236 321.964 253.188 321.82 253.287 321.787Z" fill="#263238"/>
<path opacity="0.1" d="M282.035 327.186L251.285 333.593C251.285 333.593 241.114 313.183 227.664 276.731C221.994 261.361 220.578 251.837 222.601 247.314L282.035 327.186Z" fill="black"/>
<path d="M273.243 473.063H175.361C174.554 469.912 173.773 466.811 172.991 463.76C172.099 460.25 171.217 456.826 170.374 453.489C170.188 452.745 169.99 452 169.803 451.269C169.159 448.713 168.526 446.22 167.906 443.801C167.533 442.326 167.162 440.874 166.801 439.435C166.417 437.972 166.058 436.533 165.697 435.131C165.598 434.758 165.511 434.387 165.412 434.027C165.313 433.618 165.213 433.22 165.114 432.823C164.99 432.327 164.866 431.856 164.742 431.372V431.36C164.605 430.852 164.482 430.355 164.357 429.859C164.109 428.917 163.873 427.985 163.65 427.081C163.303 425.741 162.968 424.426 162.645 423.149C162.508 422.59 162.359 422.032 162.223 421.487C161.987 420.594 161.763 419.726 161.553 418.87C161.404 418.299 161.267 417.741 161.131 417.195C160.548 414.95 160.014 412.841 159.518 410.868C159.382 410.347 159.258 409.839 159.122 409.343C158.911 408.487 158.7 407.668 158.501 406.874C158.365 406.379 158.241 405.895 158.129 405.423C157.695 403.736 157.298 402.198 156.963 400.845C156.864 400.486 156.777 400.138 156.689 399.804C156.466 398.911 156.255 398.117 156.082 397.41C156.007 397.125 155.946 396.852 155.872 396.604C155.798 396.318 155.735 396.058 155.673 395.822C155.636 395.648 155.586 395.475 155.549 395.327C155.487 395.079 155.424 394.855 155.375 394.657C155.349 394.545 155.325 394.446 155.3 394.359C155.151 393.776 155.076 393.479 155.076 393.479H250.353C250.353 393.479 253.491 404.295 258.514 421.735C259.531 425.282 260.636 429.115 261.814 433.184C265.155 444.805 269.051 458.376 273.243 473.063Z" fill="#37474F"/>
<path d="M191.388 473.061H188.945C185.323 458.064 181.787 443.042 178.414 427.997C177.595 424.337 176.789 420.678 175.983 417.006C175.909 416.659 175.834 416.324 175.759 415.977C175.722 415.791 175.995 415.717 176.045 415.902C176.082 416.013 176.107 416.126 176.144 416.237C177.248 420.169 178.351 424.114 179.431 428.058C183.56 443.018 187.518 458.026 191.388 473.061Z" fill="#263238"/>
<path d="M247.267 393.477L243.062 414.527L239.614 431.793L233.747 461.215L233.139 464.229L232.134 469.253L231.376 473.062H175.349C174.555 469.899 173.761 466.798 172.991 463.759C172.099 460.249 171.217 456.825 170.374 453.488C170.188 452.744 169.99 451.999 169.803 451.268C169.159 448.712 168.526 446.219 167.906 443.8C167.533 442.325 167.162 440.874 166.801 439.434C166.417 437.971 166.058 436.532 165.697 435.13C165.598 434.757 165.511 434.386 165.412 434.026C165.313 433.617 165.213 433.219 165.114 432.822C164.99 432.326 164.866 431.855 164.742 431.371V431.359C164.605 430.851 164.482 430.354 164.357 429.858C164.109 428.916 163.873 427.985 163.65 427.08C163.303 425.74 162.968 424.425 162.645 423.148C162.496 422.577 162.359 422.032 162.223 421.486C161.987 420.593 161.763 419.725 161.553 418.869C161.404 418.298 161.267 417.74 161.131 417.194C160.548 414.949 160.014 412.84 159.518 410.867C159.382 410.346 159.258 409.838 159.122 409.342C158.911 408.486 158.7 407.667 158.501 406.874C158.365 406.378 158.241 405.894 158.129 405.422C157.695 403.735 157.298 402.197 156.963 400.845C156.864 400.485 156.777 400.137 156.69 399.803C156.466 398.911 156.255 398.116 156.082 397.41C156.007 397.124 155.946 396.851 155.872 396.603C155.798 396.317 155.735 396.057 155.673 395.822C155.636 395.647 155.586 395.474 155.549 395.326C155.487 395.078 155.424 394.854 155.375 394.656C155.349 394.544 155.325 394.445 155.3 394.358C155.151 393.775 155.076 393.478 155.076 393.478L247.267 393.477Z" fill="#263238"/>
<path d="M247.282 393.439C247.282 393.439 247.282 393.451 247.282 393.476C247.244 393.997 246.885 399.678 245.967 408.349C245.707 410.879 245.396 413.658 245.037 416.635C244.478 421.336 243.784 426.521 242.929 432.003C241.465 441.566 239.555 451.999 237.074 462.195C236.193 465.866 235.226 469.501 234.197 473.06L111.209 473.104C112.66 454.362 113.987 437.411 115.042 424.051C116.517 405.247 117.461 393.475 117.461 393.475L229.024 393.438L247.282 393.439Z" fill="#37474F"/>
<path d="M247.021 404.739C246.884 409.142 246.698 413.534 246.412 417.912C246.115 422.663 245.681 427.401 245.06 432.14C245.048 432.314 245.023 432.487 244.999 432.661C244.416 437.102 243.758 441.53 243.002 445.946C242.294 450.064 241.774 454.505 239.95 458.312C239.268 459.752 238.289 461.128 237.073 462.195C235.945 463.187 234.63 463.932 233.141 464.229C232.905 464.291 232.657 464.328 232.409 464.353C232.348 464.365 232.273 464.353 232.199 464.365C232.286 464.426 232.348 464.501 232.336 464.625C232.286 466.1 232.323 467.601 232.161 469.066C232.149 469.128 232.149 469.19 232.136 469.252C231.987 470.529 231.751 471.795 231.516 473.061H229.406C229.419 473.036 229.419 473.011 229.432 472.986C229.804 471.596 230.114 470.194 230.461 468.793C230.834 467.367 231.304 465.965 231.639 464.513C231.651 464.452 231.701 464.414 231.738 464.377C229.059 464.414 226.355 462.987 225.387 460.395C224.68 458.51 225.003 456.55 225.288 454.615C225.673 452.097 226.045 449.579 226.43 447.061C227.15 442.434 228.08 437.857 228.898 433.255C229.023 432.561 229.146 431.853 229.271 431.159C230.921 421.794 232.645 412.429 234.716 403.151C234.791 402.766 234.877 402.382 234.964 401.997C235.013 401.737 235.435 401.811 235.41 402.059C235.348 402.679 235.286 403.312 235.212 403.932C234.852 407.492 234.43 411.04 233.935 414.575C233.339 418.731 232.93 422.911 232.347 427.066C232.148 428.48 231.95 429.894 231.739 431.308C230.784 438.143 229.792 444.977 228.626 451.788C228.081 454.95 226.108 460.619 230.66 461.6C231.789 461.848 232.831 461.661 233.749 461.215C235.772 460.21 237.247 457.904 237.979 455.869C239.269 452.247 239.728 448.253 240.398 444.482C241.142 440.315 241.799 436.147 242.382 431.967V431.955C243.126 426.732 243.895 421.523 244.714 416.313C245.124 413.658 245.545 411.004 245.967 408.35C246.166 407.122 246.364 405.894 246.562 404.666C246.612 404.404 247.021 404.479 247.021 404.739Z" fill="#263238"/>
<path d="M138.185 437.434C143.306 437.413 148.405 436.668 153.359 435.393C155.644 434.805 157.903 434.074 160.146 433.338C162.299 432.632 164.531 431.764 166.266 430.267C169.716 427.291 171.323 422.606 172.82 418.449C174.512 413.751 175.736 408.97 176.797 404.098C176.85 403.856 177.2 403.938 177.207 404.164C177.371 409.626 176.59 415.19 175.142 420.457C173.905 424.953 172.24 429.973 168.607 433.123C164.784 436.439 159.594 437.604 154.702 438.208C149.179 438.89 143.672 438.728 138.171 437.979C137.831 437.933 137.826 437.436 138.185 437.434Z" fill="#263238"/>
<path d="M129.664 404.243C129.39 411.127 129.105 418.024 128.795 424.909C128.088 440.959 127.306 457.011 126.476 473.062H124.168C125.223 456.974 126.327 440.898 127.505 424.834C128.014 417.962 128.534 411.102 129.067 404.231C129.106 403.846 129.677 403.871 129.664 404.243Z" fill="#263238"/>
<path d="M268.455 444.383L101.602 431.731C101.602 431.731 135.166 298.689 201.448 249.785C218.388 237.287 236.937 245.31 245.287 254.649C266.497 278.37 268.947 443.852 268.455 444.383Z" fill="#6366F1"/>
<path d="M193.496 309.505C192.934 309.428 192.505 309.296 192.075 309.009C191.259 308.48 190.796 307.621 190.841 306.662C190.796 305.251 189.838 303.863 188.537 303.4C187.887 303.157 187.149 303.191 186.609 303.301C186.014 303.4 185.441 303.488 184.846 303.653C185.441 303.797 186.014 303.863 186.609 303.984C187.215 304.05 187.645 304.193 188.075 304.436C188.879 304.932 189.375 305.824 189.375 306.706C189.375 308.083 190.268 309.549 191.579 310.012C192.174 310.287 192.934 310.32 193.496 310.221C194.102 310.078 194.665 310.012 195.227 309.858C194.665 309.681 194.102 309.615 193.496 309.505ZM258.459 312.778C257.897 312.701 257.467 312.558 257.038 312.282C256.233 311.753 255.77 310.894 255.803 309.935C255.77 308.524 254.801 307.136 253.5 306.673C252.85 306.43 252.112 306.463 251.583 306.563C250.977 306.673 250.415 306.75 249.809 306.926C250.415 307.059 250.977 307.136 251.583 307.246C252.178 307.323 252.608 307.455 253.037 307.698C253.842 308.194 254.338 309.086 254.338 309.979C254.338 311.356 255.23 312.811 256.542 313.274C257.148 313.549 257.897 313.593 258.459 313.483C259.065 313.34 259.627 313.274 260.2 313.131C259.627 312.954 259.065 312.877 258.459 312.778ZM227.229 422.912C226.623 422.835 226.204 422.691 225.785 422.416C224.992 421.887 224.496 421.027 224.529 420.069C224.529 418.625 223.548 417.27 222.226 416.807C221.63 416.564 220.848 416.597 220.319 416.697C219.757 416.807 219.151 416.884 218.589 417.027C219.151 417.203 219.757 417.27 220.319 417.369C220.925 417.457 221.344 417.589 221.763 417.832C222.589 418.328 223.118 419.187 223.118 420.102C223.085 421.49 223.967 422.912 225.278 423.397C225.884 423.683 226.656 423.727 227.229 423.617C227.791 423.485 228.364 423.397 228.97 423.264C228.364 423.088 227.791 423.022 227.229 422.912ZM224.253 257.909C223.647 257.843 223.217 257.7 222.788 257.413C222.016 256.884 221.553 256.025 221.553 255.077C221.553 253.656 220.595 252.267 219.283 251.848C218.633 251.562 217.862 251.595 217.333 251.705C216.76 251.815 216.165 251.892 215.591 252.058C216.165 252.201 216.76 252.267 217.333 252.421C217.928 252.488 218.358 252.598 218.787 252.851C219.603 253.336 220.132 254.229 220.132 255.11C220.099 256.488 221.024 257.953 222.292 258.449C222.931 258.725 223.68 258.725 224.253 258.626C224.815 258.515 225.421 258.449 225.983 258.262C225.421 258.086 224.815 258.02 224.253 257.909ZM180.702 408.31C180.107 408.244 179.677 408.068 179.248 407.825C178.476 407.296 177.969 406.437 178.013 405.478C178.013 404.035 177.01 402.679 175.71 402.216C175.104 401.974 174.322 401.974 173.782 402.073C173.187 402.216 172.614 402.282 172.051 402.437C172.614 402.602 173.187 402.679 173.782 402.778C174.399 402.844 174.817 402.966 175.247 403.241C176.063 403.737 176.592 404.597 176.592 405.511C176.559 406.9 177.44 408.31 178.763 408.806C179.358 409.093 180.14 409.093 180.702 408.994C181.275 408.883 181.837 408.806 182.443 408.63C181.837 408.498 181.275 408.421 180.702 408.31ZM122.065 423.838C121.47 423.771 121.04 423.595 120.61 423.353C119.839 422.824 119.343 421.964 119.376 421.005C119.376 419.562 118.384 418.206 117.073 417.743C116.467 417.501 115.684 417.501 115.155 417.6C114.549 417.743 113.987 417.81 113.414 417.964C113.987 418.14 114.549 418.206 115.155 418.305C115.761 418.383 116.18 418.493 116.61 418.768C117.425 419.264 117.965 420.124 117.965 421.038C117.932 422.427 118.803 423.838 120.125 424.333C120.731 424.62 121.503 424.62 122.065 424.521C122.638 424.422 123.2 424.333 123.806 424.157C123.2 424.025 122.638 423.959 122.065 423.838ZM209.542 356.351C208.979 356.285 208.55 356.142 208.12 355.888C207.315 355.359 206.853 354.478 206.886 353.552C206.853 352.097 205.894 350.753 204.583 350.29C203.965 350.004 203.194 350.037 202.665 350.147C202.059 350.29 201.497 350.356 200.891 350.499C201.497 350.687 202.059 350.753 202.665 350.852C203.26 350.929 203.69 351.028 204.12 351.282C204.924 351.778 205.431 352.659 205.431 353.552C205.431 354.962 206.313 356.384 207.624 356.88C208.23 357.167 208.979 357.167 209.542 357.056C210.148 356.957 210.71 356.88 211.316 356.715C210.71 356.56 210.148 356.494 209.542 356.351ZM253.765 389.069C253.192 388.992 252.729 388.86 252.343 388.573C251.528 388.034 251.065 387.196 251.098 386.237C251.065 384.772 250.106 383.427 248.795 382.964C248.156 382.722 247.406 382.766 246.844 382.865C246.282 382.964 245.709 383.041 245.114 383.174C245.709 383.361 246.282 383.427 246.844 383.537C247.483 383.603 247.913 383.747 248.332 384C249.147 384.496 249.643 385.345 249.643 386.27C249.61 387.659 250.536 389.069 251.803 389.565C252.442 389.852 253.192 389.885 253.765 389.775C254.36 389.631 254.933 389.565 255.495 389.422C254.933 389.235 254.36 389.169 253.765 389.069ZM146.43 360.946C145.857 360.88 145.394 360.737 144.997 360.45C144.193 359.91 143.73 359.073 143.763 358.114C143.73 356.649 142.771 355.315 141.46 354.852C140.81 354.61 140.071 354.643 139.509 354.742C138.936 354.852 138.374 354.918 137.768 355.062C138.374 355.238 138.936 355.315 139.509 355.414C140.149 355.48 140.567 355.624 140.997 355.877C141.813 356.373 142.309 357.222 142.309 358.147C142.275 359.536 143.201 360.946 144.468 361.442C145.108 361.729 145.857 361.762 146.43 361.652C147.025 361.508 147.598 361.442 148.16 361.299C147.598 361.123 147.025 361.046 146.43 360.946ZM250.525 354.599C250.029 354.985 249.632 355.194 249.169 355.348C248.244 355.558 247.263 355.315 246.613 354.665C245.665 353.684 244.001 353.287 242.745 353.86C242.117 354.103 241.544 354.599 241.235 355.095C240.904 355.591 240.552 356.053 240.232 356.582C240.772 356.263 241.235 355.91 241.731 355.591C242.183 355.249 242.613 355.029 243.075 354.918C244.034 354.742 244.949 355.029 245.632 355.69C246.657 356.693 248.288 356.979 249.566 356.373C250.161 356.12 250.701 355.558 251.021 355.095C251.329 354.599 251.693 354.147 251.969 353.607C251.473 353.927 251.021 354.279 250.525 354.599ZM191.414 266.031C191.303 265.425 191.226 264.852 191.094 264.29C190.918 264.852 190.852 265.425 190.73 266.031C190.664 266.637 190.521 267.056 190.279 267.486C189.783 268.301 188.89 268.83 188.008 268.797C186.631 268.797 185.209 269.679 184.702 271.001C184.427 271.596 184.394 272.379 184.493 272.941C184.636 273.514 184.702 274.076 184.857 274.682C185.033 274.076 185.099 273.514 185.209 272.941C185.275 272.346 185.419 271.916 185.705 271.497C186.234 270.715 187.094 270.208 188.053 270.252C189.496 270.252 190.852 269.249 191.303 267.949C191.557 267.342 191.524 266.571 191.414 266.031ZM177.584 368.175C177.473 367.58 177.407 367.007 177.231 366.445C177.099 367.007 177.01 367.58 176.878 368.175C176.801 368.782 176.702 369.211 176.448 369.63C175.953 370.446 175.071 370.975 174.178 370.941C172.801 370.941 171.346 371.834 170.85 373.145C170.608 373.741 170.575 374.49 170.674 375.063C170.773 375.658 170.85 376.231 171.016 376.826C171.203 376.231 171.28 375.658 171.379 375.063C171.445 374.49 171.589 374.071 171.875 373.641C172.404 372.826 173.253 372.363 174.211 372.396C175.633 372.363 177.01 371.404 177.473 370.093C177.727 369.498 177.694 368.704 177.584 368.175ZM158.464 309.659C158.365 309.053 158.288 308.491 158.122 307.929C157.979 308.491 157.902 309.053 157.759 309.659C157.692 310.265 157.582 310.684 157.329 311.114C156.833 311.929 155.951 312.458 155.07 312.425C153.692 312.425 152.227 313.318 151.731 314.618C151.488 315.224 151.455 315.974 151.554 316.547C151.664 317.142 151.731 317.715 151.907 318.31C152.094 317.715 152.16 317.142 152.271 316.547C152.337 315.974 152.469 315.544 152.766 315.125C153.295 314.31 154.144 313.847 155.103 313.88C156.524 313.847 157.902 312.888 158.365 311.577C158.618 310.982 158.585 310.188 158.464 309.659ZM253.743 435.431C253.633 434.824 253.566 434.262 253.39 433.689C253.258 434.262 253.17 434.824 253.037 435.431C252.96 436.026 252.861 436.455 252.608 436.885C252.112 437.69 251.23 438.23 250.338 438.197C248.96 438.197 247.505 439.078 247.01 440.39C246.767 440.996 246.734 441.745 246.833 442.307C246.855 442.45 246.877 442.605 246.91 442.748L247.461 442.792C247.483 442.627 247.516 442.472 247.538 442.307C247.605 441.745 247.748 441.315 248.034 440.885C248.574 440.081 249.412 439.618 250.371 439.651C251.792 439.618 253.17 438.659 253.633 437.348C253.886 436.742 253.853 435.96 253.743 435.431ZM229.455 325.065C229.311 324.492 229.245 323.93 229.102 323.324C228.926 323.93 228.849 324.492 228.749 325.065C228.683 325.704 228.529 326.123 228.287 326.553C227.791 327.379 226.942 327.875 226.016 327.875C224.628 327.82 223.217 328.746 222.721 330.068C222.435 330.674 222.402 331.413 222.545 331.975C222.655 332.581 222.721 333.143 222.865 333.716C223.03 333.143 223.118 332.581 223.217 331.975C223.294 331.413 223.46 330.983 223.713 330.553C224.253 329.749 225.091 329.286 226.049 329.319C227.515 329.286 228.849 328.327 229.311 327.016C229.565 326.377 229.521 325.627 229.455 325.065ZM154.959 428.521C154.827 427.915 154.75 427.353 154.607 426.791C154.431 427.353 154.364 427.915 154.254 428.521C154.188 429.127 154.078 429.546 153.791 429.976C153.295 430.802 152.436 431.32 151.532 431.287C150.144 431.287 148.722 432.18 148.226 433.48C147.973 434.031 147.94 434.703 148.017 435.243C148.028 435.309 148.039 435.375 148.05 435.442C148.072 435.53 148.083 435.64 148.105 435.728C148.303 435.717 148.491 435.717 148.689 435.706C148.711 435.618 148.744 435.53 148.766 435.442C148.766 435.398 148.777 435.353 148.788 435.309C148.821 434.769 148.998 434.373 149.229 433.987C149.758 433.171 150.607 432.709 151.565 432.742C153.02 432.742 154.364 431.75 154.827 430.439C155.07 429.843 155.07 429.05 154.959 428.521ZM122.065 377.432C121.933 376.826 121.855 376.264 121.712 375.691C121.536 376.264 121.47 376.826 121.359 377.432C121.293 378.027 121.183 378.457 120.897 378.887C120.401 379.713 119.541 380.231 118.638 380.198C118.505 380.198 118.362 380.209 118.23 380.231C118.031 380.771 117.833 381.3 117.635 381.829C117.954 381.697 118.307 381.642 118.671 381.653C120.125 381.653 121.47 380.661 121.933 379.35C122.175 378.755 122.175 377.961 122.065 377.432ZM225.521 292.126C225.058 292.479 224.661 292.688 224.165 292.799C223.217 292.975 222.292 292.722 221.652 292.016C220.628 291.024 218.964 290.749 217.729 291.344C217.09 291.586 216.594 292.16 216.264 292.622C215.944 293.118 215.558 293.581 215.272 294.11C215.801 293.79 216.264 293.438 216.76 293.118C217.222 292.722 217.619 292.512 218.104 292.413C219.03 292.16 220.022 292.413 220.661 293.052C221.619 294.077 223.25 294.43 224.529 293.857C225.168 293.614 225.697 293.118 226.049 292.622C226.38 292.126 226.722 291.664 227.019 291.124C226.479 291.454 226.016 291.807 225.521 292.126ZM252.387 269.591C252.288 269.624 252.178 269.657 252.057 269.679C251.109 269.866 250.183 269.613 249.544 268.907C248.519 267.916 246.844 267.64 245.61 268.235C244.971 268.478 244.475 269.051 244.155 269.513C243.825 270.009 243.45 270.472 243.164 271.001C243.692 270.682 244.155 270.329 244.651 270.009C245.114 269.613 245.511 269.403 245.996 269.304C246.921 269.051 247.913 269.304 248.552 269.932C249.511 270.968 251.142 271.31 252.409 270.748C252.508 270.715 252.608 270.671 252.696 270.615C252.597 270.274 252.497 269.932 252.387 269.591ZM178.509 334.708C178.046 335.104 177.661 335.281 177.165 335.38C176.206 335.567 175.28 335.314 174.641 334.609C173.616 333.606 171.941 333.33 170.707 333.936C170.068 334.179 169.572 334.741 169.252 335.204C168.944 335.7 168.547 336.162 168.261 336.702C168.79 336.372 169.252 336.019 169.748 335.7C170.211 335.314 170.608 335.104 171.104 334.994C172.018 334.741 173.01 334.994 173.649 335.633C174.608 336.669 176.239 337.011 177.506 336.449C178.146 336.206 178.674 335.7 179.038 335.204C179.358 334.708 179.71 334.245 179.997 333.716C179.468 334.036 179.005 334.388 178.509 334.708ZM146.672 397.434C146.21 397.819 145.78 398.04 145.317 398.106C144.369 398.315 143.444 398.04 142.771 397.356C141.735 396.332 140.104 396.045 138.87 396.651C138.231 396.938 137.702 397.5 137.416 397.918C137.052 398.414 136.71 398.877 136.413 399.417C136.953 399.131 137.416 398.778 137.912 398.414C138.374 398.04 138.771 397.819 139.256 397.709C140.182 397.5 141.173 397.753 141.78 398.381C142.738 399.384 144.402 399.77 145.67 399.208C146.309 398.954 146.838 398.414 147.168 397.963C147.477 397.467 147.874 397.004 148.16 396.475C147.631 396.75 147.168 397.114 146.672 397.434ZM198.081 434.648C197.618 435.034 197.188 435.254 196.725 435.32C195.778 435.53 194.852 435.254 194.18 434.571C193.144 433.557 191.513 433.26 190.279 433.866C189.639 434.152 189.11 434.725 188.824 435.133C188.46 435.64 188.119 436.103 187.832 436.632C188.361 436.356 188.824 435.993 189.32 435.64C189.783 435.254 190.179 435.034 190.664 434.935C191.59 434.725 192.582 434.968 193.188 435.596C194.147 436.599 195.811 436.984 197.078 436.422C197.717 436.169 198.246 435.64 198.577 435.188C198.885 434.692 199.282 434.229 199.568 433.689C199.039 433.965 198.577 434.329 198.081 434.648ZM218.236 390.954C217.773 391.317 217.344 391.527 216.848 391.626C215.922 391.802 214.974 391.527 214.335 390.855C213.31 389.819 211.635 389.532 210.39 390.171C209.784 390.425 209.255 390.987 208.946 391.45C208.616 391.913 208.274 392.364 207.944 392.904C208.484 392.618 208.946 392.265 209.442 391.913C209.938 391.56 210.324 391.351 210.787 391.196C211.712 390.987 212.704 391.229 213.343 391.879C214.291 392.86 215.966 393.257 217.2 392.695C217.84 392.453 218.402 391.913 218.732 391.45C219.041 390.954 219.404 390.491 219.68 389.962C219.184 390.249 218.732 390.601 218.236 390.954ZM267.804 411.12C267.297 410.999 266.834 410.746 266.46 410.371C265.424 409.368 263.793 409.093 262.559 409.699C261.92 409.941 261.391 410.503 261.104 410.966C260.751 411.462 260.399 411.925 260.112 412.465C260.641 412.134 261.104 411.793 261.6 411.462C262.063 411.076 262.46 410.867 262.955 410.724C263.87 410.503 264.862 410.757 265.468 411.396C266.074 412.013 266.967 412.399 267.848 412.454C267.837 412.013 267.815 411.572 267.804 411.12Z" fill="white"/>
<path d="M240.781 278.183C231.051 278.329 218.289 260.72 214.54 247.903C214.287 247.022 224.461 216.378 225.846 210.096C226.124 208.806 263.191 228.361 263.191 228.361C263.191 228.361 256.41 240.675 254.064 251.641C253.878 252.56 250.185 278.036 240.781 278.183Z" fill="#FFBF9D"/>
<path d="M263.188 228.355C263.188 228.355 256.407 240.67 254.056 251.639C254.015 251.857 253.774 253.449 253.318 255.753C234.949 249.891 225.551 235.763 221.113 226.11C223.281 219.171 225.284 212.644 225.841 210.1C226.128 208.81 263.188 228.355 263.188 228.355Z" fill="#263238"/>
<path d="M217.828 168.206C212.355 182.129 216.674 223.916 226.112 233.895C239.797 248.36 263.806 251.513 276.52 234.719C288.844 218.441 282.25 164.081 271.558 154.847C255.807 141.25 225.915 147.64 217.828 168.206Z" fill="#FFBF9D"/>
<path d="M253.497 190.833C252.333 191.361 251.169 191.653 249.962 192.056C248.6 192.51 247.563 193.013 246.12 192.616C245.345 192.403 244.776 191.371 244.913 190.599C245.232 188.802 246.762 187.832 248.379 187.218C250.133 186.553 251.656 186.488 253.432 187.077C255.154 187.648 255.035 190.136 253.497 190.833Z" fill="#263238"/>
<path d="M254.458 196.855C254.42 196.752 254.257 197.02 254.278 197.134C254.769 199.927 254.859 203.207 252.454 204.501C252.381 204.541 252.408 204.681 252.501 204.654C255.534 203.776 255.369 199.422 254.458 196.855Z" fill="#263238"/>
<path d="M251.532 194.284C246.972 194.588 247.913 203.686 252.137 203.406C256.296 203.129 255.355 194.031 251.532 194.284Z" fill="#263238"/>
<path d="M270.701 194.786C270.711 194.676 270.936 194.896 270.943 195.012C271.146 197.839 271.853 201.043 274.498 201.716C274.581 201.737 274.588 201.879 274.492 201.876C271.336 201.76 270.44 197.497 270.701 194.786Z" fill="#263238"/>
<path d="M272.912 191.583C277.41 190.771 278.704 199.825 274.538 200.577C270.437 201.319 269.142 192.264 272.912 191.583Z" fill="#263238"/>
<path d="M275.759 185.9C274.477 185.825 273.306 185.542 272.046 185.336C270.623 185.103 269.467 185.066 268.368 184.038C267.779 183.487 267.754 182.302 268.237 181.68C269.358 180.23 271.171 180.082 272.894 180.291C274.764 180.518 276.148 181.172 277.452 182.527C278.716 183.841 277.45 185.999 275.759 185.9Z" fill="#263238"/>
<path d="M253.667 222.437C254.411 223.028 255.178 223.866 256.209 223.846C257.199 223.828 258.302 223.266 259.166 222.824C259.251 222.781 259.351 222.866 259.303 222.956C258.682 224.113 257.213 224.949 255.883 224.856C254.584 224.765 253.84 223.727 253.409 222.592C253.349 222.434 253.558 222.351 253.667 222.437Z" fill="#263238"/>
<path d="M255.758 213.697C257.588 215.98 260.046 217.078 262.605 217.305C263.748 217.414 264.93 217.33 266.074 217.106C266.301 217.078 266.525 217.029 266.725 216.963C266.929 216.917 267.112 216.874 267.333 216.805C267.657 216.722 267.811 216.432 267.834 216.115L267.832 216.094C267.819 215.991 267.809 215.909 267.775 215.808C267.775 215.808 267.775 215.808 267.773 215.787L267.742 215.541C267.577 213.365 267.025 210.087 267.025 210.087C267.859 210.402 272.09 211.803 271.909 210.675C270.378 201.348 268.677 190.975 265.183 182.017C265.083 181.715 264.617 181.835 264.677 182.142C265.793 191.165 268.488 199.931 269.755 208.976C268.414 208.619 266.216 207.929 265.082 208.069C264.783 208.19 266.261 214.387 266.258 215.37C266.258 215.37 266.263 215.412 266.25 215.474C262.652 216.317 259.79 215.5 255.997 213.418C255.769 213.277 255.566 213.491 255.758 213.697Z" fill="#263238"/>
<path d="M264.677 216.133C264.677 216.133 263.021 218.928 260.484 220.138C259.55 220.586 258.518 220.832 257.393 220.654C255.081 220.294 254.811 218.235 255.041 216.425C255.225 214.937 255.77 213.615 255.77 213.615C255.77 213.615 259.374 216.351 264.677 216.133Z" fill="#263238"/>
<path d="M260.484 220.136C259.55 220.585 258.518 220.831 257.393 220.652C255.081 220.293 254.811 218.233 255.041 216.424C257.479 216.422 260.037 217.812 260.484 220.136Z" fill="#FF97B8"/>
<path d="M215.069 206.014C222.879 203.764 226.773 177.543 226.773 177.543C226.773 177.543 226.736 188.658 228.819 188.385C230.901 188.112 239.398 172.989 240.329 162.156C240.329 162.156 250.246 168.829 260.152 171.756C270.059 174.681 281.01 173.989 281.007 172.309C280.998 167.298 276.392 154.224 269.573 149.605C261.723 144.292 250.514 139.156 234.362 145.393C218.21 151.629 214.006 162.034 211.633 170.095C209.263 178.158 212.198 206.841 215.069 206.014Z" fill="#263238"/>
<path d="M224.526 204.598C224.526 204.598 216.084 190.64 209.802 193.56C203.519 196.479 209.243 216.277 216.179 219.397C223.114 222.517 226.132 216.162 226.132 216.162L224.526 204.598Z" fill="#FFBF9D"/>
<path d="M211.583 199.193C211.47 199.175 211.437 199.334 211.534 199.38C216.386 201.731 218.701 206.525 220.219 211.437C218.859 209.494 216.907 208.35 214.316 209.947C214.181 210.031 214.292 210.244 214.434 210.223C216.506 209.922 217.956 210.375 219.227 212.1C220.126 213.323 220.696 214.83 221.306 216.213C221.51 216.674 222.331 216.49 222.196 215.965C222.186 215.927 222.174 215.887 222.162 215.847C222.715 209.506 218.367 200.289 211.583 199.193Z" fill="#263238"/>
<path d="M260.989 146.132C256.514 143.577 251.141 140.843 244.719 139.331C238.297 137.819 217.606 137.22 212.244 140.808C206.883 144.396 203.528 163.596 203.092 166.413C202.657 169.23 202.104 186.462 207.856 191.247C213.609 196.033 217.295 167.049 228.099 158.455C238.904 149.863 260.989 146.132 260.989 146.132Z" fill="#6366F1"/>
<path opacity="0.1" d="M260.992 146.137C260.992 146.137 238.9 149.864 228.103 158.462C217.292 167.042 213.61 196.036 207.848 191.254C205.315 189.144 204.278 186.301 203.639 181.639C205.839 173.289 210.676 160.484 218.724 152.114C226.262 144.275 238.125 141.169 250.475 141.09C254.438 142.546 257.92 144.38 260.992 146.137Z" fill="black"/>
<path d="M207.71 208.674C209.089 200.991 219.166 181.107 228.688 170.107C238.21 159.108 263.224 154.754 266.599 155.311C274.787 156.663 277.316 159.456 278.699 158.858C280.082 158.26 272.259 151.163 270.087 149.527C267.914 147.893 262.028 143.952 258.436 143.657C254.845 143.362 232.526 143.204 223.495 151.768C214.464 160.331 200.296 185.517 201.658 192.495C201.985 194.169 204.03 195.444 204.473 197.817C205.054 200.931 205.315 204.491 206.002 206.698C206.556 208.479 207.59 209.343 207.71 208.674Z" fill="#6366F1"/>
<path d="M231.155 164.978C229.379 163.602 227.743 162.137 226.22 160.481C224.717 158.847 223.235 157.052 222.16 155.103C222.082 154.961 221.855 155.048 221.922 155.203C222.859 157.363 223.938 159.362 225.505 161.138C227.009 162.843 228.904 164.325 230.936 165.355C231.162 165.469 231.349 165.127 231.155 164.978Z" fill="#263238"/>
<path d="M208.457 200.936C208.302 200.354 207.987 199.82 207.778 199.255C207.54 198.61 207.357 197.945 207.26 197.264C207.073 195.96 207.249 194.672 206.781 193.411C206.411 192.413 205.822 191.528 205.24 190.642C204.578 189.635 203.93 188.582 204.05 187.334C204.066 187.168 203.812 187.134 203.793 187.301C203.533 189.652 204.934 191.489 205.752 193.567C206.275 194.897 206.092 196.323 206.384 197.701C206.632 198.868 207.105 200.382 208.084 201.152C208.23 201.267 208.512 201.139 208.457 200.936Z" fill="#263238"/>
<path d="M212.019 192.851C211.378 191.89 210.674 191.019 210.125 189.99C209.6 189.005 209.158 187.964 208.77 186.918C208.386 185.884 208.088 184.822 207.724 183.782C207.295 182.551 206.716 181.359 206.348 180.111C206.3 179.952 206.062 180.054 206.11 180.211C206.492 181.506 206.65 182.87 206.99 184.18C207.283 185.308 207.69 186.418 208.127 187.497C208.55 188.537 209.048 189.533 209.66 190.475C210.241 191.368 211.011 192.369 211.919 192.95C211.987 192.995 212.064 192.92 212.019 192.851Z" fill="#263238"/>
<path d="M215.641 185.583C214.188 184.051 212.883 182.266 211.934 180.377C210.997 178.513 210.165 176.584 209.356 174.662C209.302 174.532 209.073 174.585 209.109 174.73C209.627 176.847 210.129 178.947 211.15 180.892C211.634 181.813 212.176 182.763 212.865 183.547C213.615 184.401 214.522 185.122 215.451 185.773C215.569 185.857 215.752 185.701 215.641 185.583Z" fill="#263238"/>
<path d="M219.476 178.667C218.656 178.054 218.17 177.231 217.644 176.376C217.067 175.437 216.509 174.482 215.985 173.514C215.481 172.584 214.952 171.667 214.449 170.736C213.943 169.799 213.441 168.824 213.363 167.745C213.352 167.6 213.115 167.6 213.108 167.746C213.041 168.831 213.316 169.852 213.674 170.867C214.066 171.979 214.525 173.054 215.103 174.081C215.672 175.091 216.287 176.072 216.98 177.001C217.584 177.812 218.308 178.655 219.295 178.976C219.48 179.037 219.649 178.796 219.476 178.667Z" fill="#263238"/>
<path d="M222.665 169.71C222.021 168.93 221.387 168.148 220.807 167.32C220.231 166.494 219.693 165.638 219.169 164.779C218.623 163.879 218.048 162.979 217.558 162.048C217.481 161.9 217.27 161.989 217.32 162.149C217.644 163.165 217.969 164.156 218.448 165.116C218.915 166.056 219.456 166.945 220.051 167.81C220.635 168.659 221.254 169.5 221.944 170.267C222.608 171.006 223.361 171.864 224.273 172.293C224.408 172.357 224.585 172.196 224.51 172.056C224.048 171.192 223.286 170.464 222.665 169.71Z" fill="#263238"/>
<path d="M237.558 161.211C236.896 160.179 236.251 159.169 235.493 158.203C234.724 157.222 233.883 156.289 233.01 155.401C231.299 153.659 229.486 152.044 227.434 150.714C227.319 150.64 227.145 150.781 227.252 150.896C230.58 154.421 234.058 157.811 237.353 161.369C237.467 161.491 237.647 161.351 237.558 161.211Z" fill="#263238"/>
<path d="M242.943 155.085C242.259 154.072 241.476 153.144 240.582 152.312C238.709 150.57 236.542 149.204 234.342 147.915C234.202 147.834 234.052 148.011 234.183 148.12C236.048 149.667 237.941 151.186 239.715 152.839C240.59 153.653 241.461 154.493 242.241 155.4C243.027 156.314 243.59 157.366 244.331 158.305C244.388 158.378 244.522 158.33 244.504 158.232C244.286 157.104 243.577 156.023 242.943 155.085Z" fill="#263238"/>
<path d="M249.715 152.733C249.093 151.739 248.363 150.832 247.554 149.984C246.018 148.377 244.23 147.078 242.253 146.065C242.121 145.996 242.009 146.199 242.124 146.286C243.884 147.617 245.541 149.111 247.047 150.723C247.804 151.533 248.519 152.382 249.243 153.221C249.963 154.055 250.541 155.075 251.342 155.831C251.407 155.892 251.498 155.804 251.471 155.731C251.074 154.678 250.309 153.682 249.715 152.733Z" fill="#263238"/>
<path d="M254.782 149.373C254.039 148.625 253.259 147.918 252.474 147.215C251.698 146.521 250.905 145.839 249.945 145.417C249.801 145.354 249.718 145.541 249.816 145.638C251.266 147.066 252.69 148.53 254.108 149.99C255.446 151.366 256.261 153.041 257.277 154.642C257.322 154.712 257.442 154.658 257.427 154.579C257.036 152.6 256.209 150.81 254.782 149.373Z" fill="#263238"/>
<path d="M260.724 148.744C259.401 147.119 257.709 145.986 255.9 144.975C255.774 144.904 255.648 145.118 255.771 145.197C257.435 146.248 258.83 147.738 260.093 149.23C261.383 150.753 262.384 152.461 263.312 154.22C263.357 154.303 263.51 154.279 263.485 154.171C263.044 152.171 262.008 150.322 260.724 148.744Z" fill="#263238"/>
<path d="M267.966 153.02C267.822 152.592 267.628 152.176 267.428 151.773C267.023 150.956 266.492 150.197 265.926 149.483C264.766 148.019 263.319 146.831 261.895 145.633C261.768 145.526 261.608 145.734 261.738 145.838C263.146 146.977 264.379 148.314 265.478 149.753C266.019 150.46 266.487 151.209 266.918 151.989C267.129 152.369 267.314 152.76 267.49 153.158C267.655 153.532 267.78 153.99 268.013 154.323C268.075 154.412 268.237 154.372 268.244 154.26C268.269 153.86 268.093 153.397 267.966 153.02Z" fill="#263238"/>
<path d="M272.578 153.931C272.199 153.275 271.797 152.649 271.345 152.041C270.895 151.435 270.422 150.867 269.9 150.322C269.367 149.767 268.811 149.232 268.305 148.654C268.184 148.516 267.99 148.703 268.123 148.835C268.673 149.377 269.14 150.004 269.588 150.632C270.011 151.226 270.442 151.815 270.867 152.408C271.291 153 271.718 153.591 272.138 154.186C272.562 154.787 272.922 155.47 273.409 156.019C273.49 156.109 273.62 156.028 273.587 155.915C273.379 155.22 272.942 154.558 272.578 153.931Z" fill="#263238"/>
<path d="M189.996 289.293C195.912 323.441 215.11 390.153 233.436 406.944C247.061 419.427 319.932 423.811 329.722 425.012C337.014 425.907 338.152 364.389 330.402 363.107C322.455 361.793 267.021 354.3 261.541 352.185C256.061 350.071 231.971 306.167 216.313 282.389C196.562 252.396 185.149 261.321 189.996 289.293Z" fill="#FFBF9D"/>
<path d="M331.5 425.687C347.208 429.091 381.084 431.167 399.146 429.054C422.927 426.274 453.715 405.672 450.358 399.933C446.653 393.598 432.729 397.442 419.749 400.288C399.239 404.782 392.763 398.497 386.051 392.417C358.538 367.5 328.27 363.064 328.27 363.064C328.27 363.064 315.283 422.174 331.5 425.687Z" fill="#FFBF9D"/>
<path d="M384.759 396.557C377.833 390.274 404.462 396.534 412.066 389.076C419.669 381.618 409.809 376.981 399.733 375.787C364.762 371.64 358.339 356.91 334.217 361.641C310.094 366.372 384.759 396.557 384.759 396.557Z" fill="#FFBF9D"/>
<path d="M366.8 394.712C366.657 394.763 366.569 394.518 366.709 394.461C369.858 393.178 373.116 392.205 376.516 391.924C379.894 391.644 383.279 391.747 386.661 391.883C390.114 392.023 393.573 392.236 397.029 392.233C398.795 392.232 400.536 392.103 402.295 391.953C403.992 391.809 405.709 391.455 407.405 391.432C407.617 391.428 407.629 391.705 407.484 391.8C406.125 392.684 404.337 393.124 402.758 393.443C401.195 393.757 399.579 393.866 397.99 393.951C394.47 394.14 390.966 393.942 387.454 393.693C384.025 393.451 380.588 393.227 377.147 393.295" fill="#263238"/>
<path d="M265.455 353.146L281.743 355.308C287.172 356.027 292.596 356.776 298.015 357.563L314.279 359.863L322.409 361.015L326.47 361.602L328.497 361.885L329.508 362.023L330.44 362.132L330.001 362.217C332.547 361.179 335.074 360.578 337.693 360.186C340.3 359.805 342.941 359.675 345.573 359.806C350.849 360.049 356.004 361.442 360.846 363.298C365.686 365.19 370.3 367.433 375.06 369.179C377.438 370.052 379.844 370.828 382.299 371.376C384.759 371.944 387.282 372.372 389.806 372.802C394.856 373.669 399.971 374.397 404.996 375.804C407.497 376.523 410.022 377.342 412.318 378.845C413.443 379.604 414.529 380.625 415.122 382.012C415.652 383.454 415.562 384.936 415.076 386.284C414.588 387.638 413.64 388.752 412.58 389.598C411.508 390.446 410.312 391.074 409.086 391.57C406.626 392.563 404.03 393.007 401.455 393.277C396.285 393.754 391.102 393.375 386.037 392.511L386.116 392.346L388.633 394.725L385.986 392.487L385.748 392.285L386.066 392.321C391.154 392.899 396.311 393.112 401.355 392.416C403.866 392.061 406.352 391.48 408.643 390.506C410.893 389.539 413.066 388.021 413.809 385.832C414.177 384.771 414.182 383.526 413.791 382.567C413.341 381.589 412.482 380.771 411.473 380.132C409.427 378.858 406.984 378.108 404.55 377.48C399.637 376.275 394.565 375.537 389.493 374.723C386.954 374.311 384.407 373.904 381.859 373.337C379.297 372.787 376.799 372.004 374.353 371.129C369.454 369.375 364.797 367.158 360.057 365.353C355.342 363.503 350.466 362.152 345.465 361.878C342.97 361.732 340.459 361.836 337.983 362.176C335.527 362.513 333.019 363.112 330.803 363.993L330.537 364.099L330.364 364.078L329.258 363.946L328.235 363.797L326.197 363.495L322.134 362.874C319.426 362.467 316.727 362.002 314.024 361.56L297.819 358.854C292.416 357.961 287.019 357.03 281.629 356.06C276.233 355.106 270.838 354.159 265.455 353.146Z" fill="#263238"/>
<path d="M248.767 331.452L201.174 375.38C201.174 375.38 187.184 310.556 186.36 282.586C185.503 253.437 194.486 247.265 216.21 279.19C238.069 311.312 248.767 331.452 248.767 331.452Z" fill="#6366F1"/>
<path d="M225.06 292.447C224.773 292.612 224.487 292.723 224.167 292.8C223.219 292.976 222.294 292.723 221.655 292.017C220.63 291.026 218.966 290.75 217.732 291.345C217.092 291.588 216.596 292.161 216.266 292.623C215.946 293.119 215.561 293.582 215.274 294.111C215.803 293.792 216.266 293.439 216.762 293.119C217.225 292.723 217.621 292.513 218.106 292.414C219.032 292.161 220.024 292.414 220.663 293.053C221.622 294.078 223.253 294.431 224.531 293.858C224.917 293.714 225.258 293.472 225.556 293.196C225.39 292.943 225.225 292.701 225.06 292.447ZM229.457 325.066C229.314 324.493 229.247 323.931 229.104 323.325C228.928 323.931 228.851 324.493 228.752 325.066C228.685 325.705 228.531 326.124 228.289 326.554C227.793 327.381 226.944 327.876 226.019 327.876C224.63 327.821 223.22 328.747 222.724 330.069C222.437 330.675 222.404 331.414 222.547 331.976C222.657 332.582 222.724 333.144 222.867 333.717C223.032 333.144 223.12 332.582 223.219 331.976C223.297 331.414 223.462 330.984 223.715 330.554C224.255 329.75 225.093 329.287 226.052 329.32C227.517 329.287 228.851 328.328 229.314 327.017C229.567 326.378 229.523 325.628 229.457 325.066ZM191.416 266.032C191.306 265.426 191.228 264.853 191.096 264.291C190.92 264.853 190.854 265.426 190.733 266.032C190.666 266.638 190.523 267.057 190.281 267.487C189.785 268.302 188.892 268.831 188.011 268.798C187.636 268.798 187.25 268.864 186.887 268.986C186.82 269.503 186.754 270.032 186.699 270.583C187.107 270.352 187.57 270.231 188.055 270.253C189.498 270.253 190.854 269.25 191.306 267.95C191.559 267.344 191.526 266.572 191.416 266.032ZM209.544 356.352C208.982 356.286 208.552 356.143 208.122 355.889C207.318 355.36 206.855 354.479 206.888 353.553C206.855 352.098 205.896 350.754 204.585 350.291C203.968 350.005 203.196 350.038 202.667 350.148C202.061 350.291 201.499 350.357 200.893 350.5C201.499 350.688 202.061 350.754 202.667 350.853C203.262 350.93 203.692 351.029 204.122 351.283C204.926 351.779 205.433 352.66 205.433 353.553C205.433 354.964 206.315 356.385 207.626 356.881C208.232 357.168 208.982 357.168 209.544 357.057C210.15 356.958 210.712 356.881 211.318 356.716C210.712 356.561 210.15 356.495 209.544 356.352ZM193.499 309.506C192.937 309.429 192.507 309.297 192.077 309.01C191.262 308.481 190.799 307.622 190.843 306.663C190.799 305.252 189.84 303.864 188.54 303.401C188.451 303.368 188.352 303.335 188.264 303.313C188.319 303.776 188.385 304.239 188.451 304.712C189.035 305.23 189.377 305.969 189.377 306.707C189.377 308.085 190.27 309.55 191.581 310.013C192.176 310.289 192.937 310.322 193.499 310.222C194.105 310.079 194.667 310.013 195.229 309.859C194.667 309.682 194.105 309.616 193.499 309.506Z" fill="white"/>
<path d="M237.998 326.222C236.75 327.134 235.617 328.232 234.458 329.255C233.265 330.308 232.067 331.356 230.871 332.404C228.445 334.53 226.057 336.699 223.679 338.878C218.929 343.234 214.163 347.57 209.487 352.005C208.202 353.224 206.92 354.449 205.667 355.7C204.349 357.017 203.126 358.431 201.808 359.741C201.726 359.823 201.853 359.933 201.936 359.862C203.144 358.82 204.442 357.875 205.657 356.835C206.902 355.772 208.134 354.691 209.351 353.595C211.745 351.437 214.123 349.261 216.484 347.066C221.129 342.744 225.795 338.435 230.347 334.015C231.618 332.781 232.877 331.536 234.148 330.302C235.477 329.011 236.905 327.764 238.11 326.355C238.171 326.283 238.082 326.16 237.998 326.222Z" fill="#263238"/>
<path d="M233.491 300.793C233.437 300.67 233.244 300.758 233.278 300.882C233.954 303.299 234.845 305.666 235.886 307.958C235.261 306.988 234.653 306.006 234.019 305.041C231.975 301.932 229.875 298.86 227.84 295.745C227.765 295.631 227.588 295.732 227.656 295.853C230.834 301.522 233.784 307.329 237.137 312.897C240.492 318.467 246.611 327.962 248.514 330.998C247.319 332.465 245.493 334.03 244.178 335.582C244.061 335.719 244.3 335.891 244.432 335.77C246.005 334.331 248.154 332.899 249.667 331.231C249.86 331.018 243.138 319.335 237.217 310.033C236.057 306.923 234.833 303.828 233.491 300.793Z" fill="#263238"/>
<path d="M211.188 366.143C208.096 369.487 204.9 372.716 201.684 375.924L200.809 376.796L200.461 375.557C199.194 371.043 198.038 366.509 196.95 361.955L195.389 355.108L193.962 348.232C193.061 343.636 192.242 339.023 191.55 334.388C190.892 329.749 190.313 325.092 190.039 320.408L196.043 347.798L199.016 361.489L201.901 375.202L200.679 374.835C204.134 371.886 207.607 368.957 211.188 366.143Z" fill="#263238"/>
<path d="M187.938 326.236C188.452 327.215 188.861 328.209 189.282 329.195L190.526 332.145C190.924 333.134 191.358 334.104 191.769 335.09C192.181 336.078 192.628 337.049 193.011 338.085C191.473 336.507 190.363 334.576 189.511 332.571C188.679 330.553 188.09 328.428 187.938 326.236Z" fill="#263238"/>
<path d="M255.007 262.245C254.549 264.865 253.96 267.458 253.234 270.032C252.584 272.336 251.915 274.638 250.837 276.822C248.902 280.742 245.536 284.238 240.725 284.94C236.128 285.611 231.615 283.816 228.232 281.168C224.533 278.274 221.783 274.366 219.279 270.583C217.73 268.242 216.275 265.843 214.946 263.389C214.272 262.145 213.589 260.905 212.978 259.631C212.368 258.362 211.817 257.064 211.128 255.829C211.073 255.731 210.864 255.783 210.914 255.893C212.202 258.774 216.06 267.892 217.413 270.186C219.871 274.353 222.585 278.631 226.396 281.876C229.996 284.943 234.59 286.985 239.672 286.685C244.681 286.39 248.693 283.336 250.913 279.299C252.276 276.821 253.031 274.07 253.596 271.373C254.23 268.354 254.69 265.297 255.069 262.248C255.074 262.213 255.014 262.209 255.007 262.245Z" fill="#263238"/>
<path d="M448.058 281.465C448.058 299.982 433.496 323.713 405.807 323.713C378.121 323.713 363.557 299.983 363.557 281.465C363.557 269.544 368.894 257.592 375.773 246.42C376.137 264.42 392.525 272.678 406.409 267.146C415.927 263.354 417.627 255.056 423.672 250.958C429.717 246.857 437.419 249.042 441.025 255.672L441.028 255.669C445.224 264.075 448.058 272.775 448.058 281.465Z" fill="#277DFF"/>
<path d="M448.058 281.464C448.058 299.982 433.496 323.712 405.807 323.712C378.121 323.712 363.557 299.982 363.557 281.464C363.557 247.917 405.807 214.142 405.807 198.123C405.811 198.262 405.814 198.403 405.816 198.545V198.569C406.038 206.888 407.249 216.652 402.483 230.166C400.88 236.063 399.266 242.614 399.223 247.068C399.173 252.34 401.663 254.022 402.134 256.425C403.09 261.294 398.582 263.756 395.325 260.675C393.822 259.254 393.088 256.124 393.599 251.817C389.19 266.681 391.421 279.275 404.01 286.036C425.097 297.359 446.141 275.856 441.023 255.672C445.224 264.078 448.058 272.778 448.058 281.464Z" fill="#277DFF"/>
<path d="M402.123 263.445C404.156 263.445 405.808 265.097 405.808 267.13C405.808 269.164 404.156 270.815 402.123 270.815C400.09 270.815 398.441 269.164 398.441 267.13C398.441 265.097 400.09 263.445 402.123 263.445Z" fill="#277DFF"/>
<path d="M415.258 246.241C416.136 246.241 416.848 245.529 416.848 244.651C416.848 243.772 416.136 243.061 415.258 243.061C414.38 243.061 413.668 243.772 413.668 244.651C413.668 245.529 414.38 246.241 415.258 246.241Z" fill="#277DFF"/>
<path d="M419.424 230.375C424.631 229.768 429.872 236.229 435.821 246.603C435.821 246.603 432.888 243.232 428.353 242.216C424.557 241.366 422.536 242.167 418.032 240.513C412.938 238.639 413.542 231.059 419.424 230.375Z" fill="#277DFF"/>
<path d="M443.843 300.452C443.843 300.452 432.577 321.113 410.548 319.37C396.857 318.288 391.491 311.584 388.826 305.64C386.529 300.516 380.903 301.679 380.903 306.324C380.903 310.969 387.596 316.024 387.596 316.024C387.596 316.024 378.17 313.223 375.438 301.952C373.19 292.678 364.782 293.581 365.875 301.679C367.31 312.3 379.306 326.927 404.723 326.377C433.357 325.759 443.843 300.452 443.843 300.452Z" fill="#277DFF"/>
<path d="M383.968 294.524C383.968 296.558 382.319 298.208 380.284 298.208C378.248 298.208 376.6 296.558 376.6 294.524C376.6 292.49 378.248 290.84 380.284 290.84C382.319 290.84 383.968 292.488 383.968 294.524Z" fill="#277DFF"/>
<path d="M414.919 301.19C414.385 302.611 415.272 302.669 415.332 303.261C415.39 303.853 415.332 304.977 413.616 306.694C411.9 308.413 409.059 308.056 408.467 308.768C407.876 309.476 406.868 312.496 405.448 313.503C404.027 314.507 403.791 313.916 401.778 314.332C399.766 314.745 398.225 317.348 397.635 318.593C397.043 319.835 397.752 321.908 396.331 321.968C394.911 322.026 394.26 318.948 392.957 317.291C391.656 315.633 391.241 314.154 390.828 312.201C390.411 310.247 391.065 306.162 390.828 304.566C390.591 302.967 386.329 300.126 384.789 298.172C383.251 296.218 381.119 292.312 381.236 291.009C381.356 289.709 382.302 288.288 383.013 287.755C383.722 287.221 383.427 286.926 383.547 286.451C383.664 285.977 384.255 285.859 384.375 285.268C384.492 284.676 384.018 282.898 383.427 282.602C382.835 282.305 382.423 283.314 382.065 283.135C381.711 282.96 380.644 281.715 380.231 281.598C379.815 281.478 379.936 282.365 379.344 281.241C378.752 280.117 378.453 277.276 377.982 276.804C377.507 276.329 377.153 277.633 376.028 276.804C374.903 275.976 374.429 274.377 373.954 274.14C373.482 273.903 372.829 274.198 372.343 273.253C371.856 272.304 372.771 270.588 372.343 270.766C371.914 270.945 370.996 272.304 370.759 271.003C370.522 269.7 371.943 265.321 371.705 262.952C371.47 260.586 372.296 258.099 373.954 256.088C373.954 256.088 374.191 254.784 374.429 253.955C374.666 253.127 379.756 249.812 380.348 248.865C380.595 248.467 380.677 247.848 380.766 247.18C386.359 243.064 393.004 240.291 400.227 239.342C400.107 239.924 399.995 240.5 399.891 241.064C399.21 241.231 398.729 241.437 398.779 241.644C398.813 241.792 399.204 241.848 399.749 241.875C399.564 242.994 399.417 244.066 399.327 245.07C398.776 244.749 398.095 243.991 397.356 243.893C396.488 243.776 395.778 244.485 395.233 244.565C394.688 244.642 394.044 243.973 393.216 244.131C392.387 244.289 392.19 244.997 391.756 245.274C391.321 245.552 390.295 245.552 390.175 246.183C390.058 246.814 391.479 247.169 391.833 247.564C392.19 247.958 391.399 249.302 391.756 249.576C392.11 249.854 394.319 247.919 394.873 247.447C395.424 246.973 395.896 244.92 397.083 244.961C398.266 244.998 398.66 247.013 399.054 247.21C399.104 247.232 399.156 247.244 399.221 247.248C399.224 249.097 399.541 250.495 399.969 251.641C399.941 251.65 399.914 251.66 399.883 251.669C399.331 251.826 397.871 250.168 397.476 250.643C397.082 251.118 397.871 252.618 398.265 252.972C398.66 253.327 400.12 253.525 400.237 253.918C400.357 254.312 399.25 255.181 397.91 255.101C396.567 255.024 395.464 253.998 394.949 254.433C394.438 254.867 394.712 256.011 394.357 256.404C394.241 256.533 393.954 256.592 393.584 256.648C393.387 255.28 393.378 253.659 393.596 251.823C393.088 253.539 392.666 255.225 392.339 256.874C391.886 257 391.445 257.197 391.122 257.548C390.173 258.574 389.739 260.115 388.792 260.984C387.847 261.852 387.412 260.747 386.149 261.97C384.886 263.193 384.688 265.918 384.648 266.863C384.608 267.809 384.648 268.561 384.334 268.441C384.016 268.324 383.582 267.496 383.465 266.981C383.348 266.47 383.743 265.6 383.743 265.286C383.743 264.969 381.925 263.351 380.862 263.195C379.797 263.037 378.848 263.903 378.061 264.535C377.27 265.166 375.849 265.049 375.337 265.561C374.822 266.075 374.428 270.613 374.822 271.68C375.217 272.743 375.731 272.743 376.994 272.191C378.254 271.64 377.545 270.574 378.295 270.811C379.046 271.047 379.441 271.836 379.441 272.468C379.441 273.099 377.94 274.597 378.137 275.031C378.334 275.465 379.638 274.951 380.269 275.151C380.901 275.349 381.215 275.743 381.018 277.361C380.82 278.979 380.937 280.241 381.886 280.775C382.832 281.308 383.365 280.004 383.782 280.183C384.195 280.358 384.785 281.307 385.377 281.245C385.969 281.187 385.673 280.654 386.798 280.3C387.923 279.945 387.51 279.708 387.746 278.996C387.983 278.288 388.692 277.696 389.462 278.051C390.233 278.404 389.699 278.938 389.758 279.53C389.816 280.121 391.178 280.183 392.244 280.537C393.309 280.891 393.901 280.537 396.03 281.245C398.163 281.957 398.279 284.09 399.17 284.443C399.611 284.622 400.568 284.56 401.678 284.649C402.409 285.137 403.184 285.602 404.004 286.042C404.781 286.461 405.56 286.834 406.336 287.164C407.079 288.634 406.964 290.341 407.75 290.954C408.816 291.783 412.782 292.908 414.322 293.203C415.86 293.498 416.098 292.433 417.338 292.728C418.584 293.027 419.292 293.382 419.708 295.097C420.077 296.603 415.452 299.771 414.919 301.19Z" fill="#277DFF"/>
<path d="M383.111 270.923C383.15 271.258 384.137 271.396 385.32 272.066C386.504 272.738 386.938 274.71 387.569 274.671C388.201 274.631 388.004 273.724 388.241 273.487C388.477 273.25 388.872 272.738 388.241 272.224C387.609 271.711 386.994 270.606 385.841 270.448C384.689 270.29 384.492 269.816 383.978 269.856C383.467 269.897 383.032 270.251 383.111 270.923Z" fill="#277DFF"/>
<path d="M389.624 274.238C389.448 274.721 389.624 275.066 390.887 275.383C392.15 275.698 393.333 275.067 392.939 274.811C392.544 274.554 391.953 274.673 392.19 274.239C392.426 273.804 392.346 273.173 391.32 273.292C390.295 273.409 389.782 273.803 389.624 274.238Z" fill="#277DFF"/>
<path d="M393.73 275.559C393.669 275.473 393.629 275.377 393.604 275.281C393.644 275.374 393.687 275.466 393.73 275.559Z" fill="#FFC727"/>
<path d="M448.054 281.241C448.054 281.531 448.051 281.821 448.046 282.109C448.042 282.356 448.033 282.6 448.024 282.842C448.014 283.085 448.001 283.329 447.989 283.573C447.977 283.773 447.965 283.971 447.952 284.17C447.406 292.144 444.649 299.511 440.286 305.658C440.188 305.802 440.086 305.941 439.984 306.083C444.006 299.94 444.788 291.76 444.905 290.496C445.025 289.233 444.394 289.152 445.025 286.826C445.656 284.496 444.354 282.01 443.882 281.499C443.407 280.984 442.381 281.144 441.553 281.657C440.724 282.168 441.316 282.566 440.764 282.76C440.211 282.96 439.657 282.643 439.146 282.683C438.631 282.722 438.157 284.023 437.054 283.986C435.948 283.946 435.239 282.365 434.411 281.241C434.327 281.128 434.235 281.02 434.133 280.915C439.522 275.156 442.591 267.072 441.617 258.904C441.629 258.891 441.637 258.879 441.651 258.867C443.651 262.062 445.231 265.544 446.324 269.238C446.333 269.274 446.346 269.312 446.355 269.349C447.464 273.119 448.054 277.112 448.054 281.241Z" fill="#277DFF"/>
<path opacity="0.6" d="M367.123 273.716C368.707 254.08 396.836 219.543 396.836 219.543C396.836 219.543 380.417 242.641 378.569 257.91C377.613 265.815 378.635 271.3 377.343 277.451C375.762 284.967 366.099 286.415 367.123 273.716Z" fill="white"/>
<path opacity="0.6" d="M391.314 319.46C392.894 319.905 394.513 320.224 396.138 320.467C397.763 320.711 399.4 320.877 401.038 320.962C404.316 321.124 407.609 320.994 410.836 320.475C412.45 320.218 414.054 319.901 415.621 319.45C417.189 319.008 418.739 318.493 420.232 317.846C423.24 316.603 426.042 314.904 428.593 312.908C431.144 310.895 433.421 308.551 435.419 306.005C437.414 303.451 439.125 300.69 440.605 297.804C442.072 294.911 443.28 291.876 444.225 288.751C444.694 287.188 445.111 285.604 445.448 284.001C445.805 282.401 446.073 280.778 446.252 279.145L446.407 279.147C446.464 282.466 446.023 285.786 445.272 289.031C444.901 290.656 444.427 292.258 443.884 293.839C443.332 295.416 442.693 296.964 441.988 298.484C441.265 299.995 440.45 301.464 439.561 302.887C438.657 304.302 437.658 305.653 436.607 306.961C436.338 307.283 436.058 307.596 435.783 307.913L435.37 308.387L434.938 308.845L434.072 309.756L433.169 310.631C432.58 311.227 431.93 311.757 431.308 312.318C430.992 312.592 430.658 312.846 430.334 313.11C430.004 313.368 429.69 313.645 429.344 313.883C426.659 315.886 423.726 317.568 420.608 318.772C419.058 319.399 417.459 319.892 415.846 320.305C414.233 320.728 412.588 321.015 410.942 321.237C407.642 321.662 404.305 321.688 401.004 321.423C399.353 321.286 397.711 321.067 396.084 320.771C394.456 320.474 392.844 320.106 391.264 319.607L391.314 319.46Z" fill="white"/>
<path d="M310.752 101.997C311.79 101.455 312.871 101.014 313.975 100.616C315.094 100.247 316.205 99.8821 317.49 99.8049C317.818 99.7961 318.156 99.7884 318.581 99.9262C318.681 99.9537 318.804 100.02 318.916 100.085C319.004 100.142 319.058 100.187 319.13 100.24C319.274 100.342 319.384 100.446 319.508 100.55C319.979 100.968 320.387 101.402 320.787 101.844C321.579 102.733 322.282 103.66 322.989 104.612L322.116 104.306C323.305 103.974 324.478 103.717 325.703 103.55C326.315 103.476 326.931 103.414 327.577 103.418C327.901 103.422 328.227 103.434 328.575 103.489C328.739 103.503 328.934 103.573 329.11 103.619C329.291 103.677 329.474 103.785 329.647 103.874C330.26 104.278 330.664 104.75 331.064 105.231C331.453 105.717 331.796 106.221 332.123 106.73C332.756 107.764 333.332 108.819 333.794 109.932C333.023 109.009 332.279 108.081 331.486 107.209C331.097 106.77 330.7 106.338 330.28 105.95C329.869 105.567 329.435 105.171 329.018 104.968C328.688 104.808 328.157 104.806 327.613 104.83C327.067 104.861 326.5 104.953 325.938 105.059C324.811 105.262 323.661 105.542 322.557 105.842L322.002 105.993L321.684 105.536C321.039 104.611 320.338 103.696 319.638 102.817C319.289 102.378 318.929 101.944 318.556 101.569C318.464 101.482 318.37 101.38 318.28 101.31L318.152 101.201C318.138 101.196 318.14 101.179 318.1 101.167C317.98 101.103 317.731 101.058 317.483 101.044C316.449 101.005 315.288 101.18 314.167 101.368C313.034 101.548 311.901 101.785 310.752 101.997Z" fill="#263238"/>
<path d="M323.428 136.244C324.794 135.144 326.254 134.181 327.761 133.274C329.297 132.405 330.822 131.545 332.688 131.057C333.168 130.949 333.662 130.839 334.327 130.916C334.482 130.926 334.682 130.989 334.865 131.051C335.012 131.109 335.105 131.16 335.227 131.216C335.467 131.324 335.659 131.444 335.872 131.561C336.685 132.037 337.411 132.556 338.127 133.088C339.551 134.164 340.855 135.32 342.169 136.513L340.797 136.318C342.448 135.484 344.097 134.764 345.848 134.161C346.727 133.873 347.614 133.603 348.563 133.42C349.039 133.331 349.523 133.253 350.05 133.233C350.297 133.206 350.602 133.25 350.875 133.268C351.157 133.302 351.458 133.406 351.738 133.485C352.756 133.901 353.489 134.476 354.217 135.068C354.931 135.668 355.58 136.309 356.21 136.961C357.442 138.295 358.596 139.678 359.599 141.178C358.198 140.047 356.833 138.899 355.413 137.849C354.714 137.316 354.005 136.798 353.275 136.35C352.56 135.907 351.808 135.451 351.134 135.276C350.604 135.138 349.822 135.288 349.029 135.483C348.237 135.688 347.43 135.989 346.635 136.309C345.039 136.934 343.431 137.682 341.895 138.445L341.124 138.829L340.522 138.25C339.304 137.079 338.008 135.939 336.724 134.852C336.083 134.308 335.427 133.776 334.771 133.334C334.609 133.233 334.441 133.111 334.288 133.034L334.068 132.911C334.044 132.908 334.043 132.884 333.982 132.876C333.788 132.817 333.406 132.823 333.039 132.875C331.509 133.119 329.854 133.716 328.261 134.318C326.65 134.918 325.054 135.596 323.428 136.244Z" fill="#263238"/>
<path d="M120.719 226.732C121.653 226.028 122.648 225.416 123.673 224.843C124.717 224.296 125.753 223.755 127.008 223.47C127.331 223.408 127.662 223.345 128.104 223.41C128.208 223.42 128.34 223.467 128.461 223.512C128.558 223.554 128.619 223.59 128.699 223.63C128.857 223.707 128.983 223.792 129.123 223.873C129.655 224.208 130.129 224.571 130.595 224.94C131.522 225.687 132.367 226.487 133.219 227.311L132.307 227.153C133.426 226.631 134.542 226.186 135.724 225.82C136.315 225.647 136.914 225.486 137.551 225.384C137.87 225.334 138.194 225.293 138.547 225.291C138.712 225.279 138.915 225.316 139.097 225.332C139.284 225.361 139.483 225.437 139.669 225.495C140.34 225.794 140.816 226.194 141.289 226.604C141.753 227.019 142.171 227.46 142.579 227.91C143.373 228.826 144.113 229.773 144.75 230.796C143.84 230.011 142.954 229.217 142.029 228.486C141.574 228.116 141.112 227.754 140.635 227.44C140.168 227.13 139.674 226.809 139.229 226.678C138.878 226.574 138.353 226.658 137.821 226.771C137.287 226.892 136.743 227.074 136.205 227.271C135.127 227.654 134.039 228.118 132.997 228.595L132.475 228.834L132.086 228.435C131.298 227.628 130.458 226.84 129.624 226.087C129.207 225.711 128.781 225.342 128.353 225.032C128.248 224.962 128.139 224.877 128.038 224.822L127.894 224.735C127.878 224.732 127.878 224.715 127.838 224.71C127.709 224.667 127.455 224.662 127.21 224.689C126.184 224.82 125.066 225.181 123.991 225.55C122.897 225.917 121.817 226.335 120.719 226.732Z" fill="#263238"/>
<path d="M92.002 222.083C92.9805 220.627 94.0891 219.274 95.2584 217.96C96.4673 216.675 97.6695 215.4 99.3049 214.381C99.7314 214.135 100.171 213.884 100.828 213.76C100.98 213.724 101.189 213.724 101.382 213.728C101.54 213.74 101.643 213.761 101.777 213.779C102.038 213.81 102.257 213.868 102.495 213.917C103.413 214.131 104.261 214.41 105.103 214.705C106.781 215.309 108.37 216.026 109.979 216.775L108.611 216.997C109.94 215.711 111.3 214.533 112.793 213.437C113.547 212.902 114.314 212.381 115.166 211.924C115.595 211.698 116.033 211.48 116.53 211.304C116.757 211.206 117.063 211.157 117.328 211.093C117.608 211.042 117.925 211.053 118.217 211.045C119.314 211.139 120.183 211.471 121.054 211.82C121.914 212.181 122.724 212.6 123.52 213.035C125.093 213.943 126.605 214.922 128.009 216.057C126.335 215.392 124.692 214.701 123.024 214.121C122.198 213.82 121.367 213.534 120.538 213.324C119.724 213.113 118.869 212.902 118.174 212.934C117.627 212.959 116.925 213.335 116.226 213.756C115.531 214.187 114.85 214.713 114.184 215.255C112.846 216.326 111.533 217.516 110.292 218.702L109.669 219.297L108.923 218.923C107.412 218.166 105.836 217.462 104.287 216.805C103.513 216.477 102.729 216.164 101.971 215.936C101.787 215.887 101.589 215.82 101.421 215.792L101.174 215.741C101.151 215.744 101.143 215.721 101.081 215.732C100.879 215.733 100.517 215.852 100.182 216.011C98.7936 216.698 97.3896 217.759 96.0474 218.807C94.6853 219.861 93.3629 220.982 92.002 222.083Z" fill="#263238"/>
<path d="M282.453 127.836C283.432 126.38 284.54 125.027 285.71 123.714C286.918 122.43 288.121 121.155 289.756 120.135C290.183 119.889 290.622 119.637 291.279 119.515C291.431 119.478 291.64 119.478 291.833 119.484C291.99 119.496 292.095 119.517 292.227 119.535C292.488 119.565 292.707 119.624 292.945 119.672C293.863 119.886 294.711 120.166 295.553 120.461C297.231 121.065 298.819 121.783 300.429 122.532L299.06 122.754C300.389 121.468 301.749 120.289 303.242 119.194C303.996 118.659 304.763 118.137 305.615 117.681C306.044 117.455 306.482 117.237 306.979 117.062C307.206 116.964 307.512 116.915 307.777 116.851C308.057 116.799 308.374 116.81 308.666 116.803C309.762 116.896 310.632 117.229 311.503 117.577C312.363 117.939 313.172 118.358 313.969 118.793C315.542 119.701 317.054 120.68 318.458 121.815C316.784 121.15 315.141 120.459 313.473 119.878C312.647 119.578 311.816 119.292 310.987 119.082C310.173 118.871 309.319 118.66 308.623 118.692C308.076 118.717 307.374 119.093 306.675 119.514C305.98 119.945 305.299 120.471 304.633 121.012C303.295 122.084 301.981 123.274 300.742 124.459L300.119 125.055L299.373 124.681C297.862 123.924 296.287 123.22 294.737 122.563C293.964 122.234 293.179 121.922 292.421 121.693C292.237 121.645 292.039 121.578 291.871 121.55L291.624 121.498C291.601 121.502 291.593 121.479 291.531 121.49C291.329 121.491 290.967 121.61 290.632 121.768C289.244 122.456 287.84 123.517 286.497 124.565C285.137 125.614 283.813 126.735 282.453 127.836Z" fill="#263238"/>
<path d="M524.29 67.0155C524.081 74.7295 516.753 84.3831 506.989 84.1957C497.225 83.9974 490.878 75.3467 488.608 73.892C487.902 73.4512 485.07 73.0435 481.467 72.6908C477.819 72.3272 473.477 72.1839 469.786 72.1288H469.389C465.697 72.1839 461.355 72.3272 457.719 72.6908C454.104 73.0435 451.272 73.4512 450.567 73.892C448.297 75.3467 441.949 83.9974 432.185 84.1957C422.422 84.3831 415.093 74.7295 414.884 67.0155C414.686 59.2905 420.372 49.5929 428.615 48.7113C436.869 47.8297 444.142 54.8054 448.319 57.1967C449.663 57.9681 452.672 58.3869 456.341 58.5742C459.239 58.7285 465.058 58.8056 469.907 58.8387C474.623 58.8056 480.067 58.7175 482.833 58.5742C486.503 58.3869 489.511 57.9681 490.856 57.1967C495.032 54.8054 502.306 47.8297 510.56 48.7113C518.803 49.5929 524.489 59.2905 524.29 67.0155Z" fill="#455A64"/>
<path d="M484 58.5078V72.9661C483.218 72.8669 482.369 72.7787 481.466 72.6906C477.818 72.3269 473.476 72.1836 469.784 72.1285H469.388C465.696 72.1836 461.354 72.3269 457.717 72.6906C456.814 72.7787 455.965 72.8669 455.172 72.9661V58.5078C455.558 58.5299 455.943 58.5519 456.34 58.5739C459.238 58.7282 465.057 58.8054 469.906 58.8384C474.622 58.8054 480.066 58.7172 482.832 58.5739C483.229 58.5519 483.614 58.5299 484 58.5078Z" fill="#37474F"/>
<path d="M480.174 54.793H459.002V91.5182H480.174V54.793Z" fill="#455A64"/>
<path d="M551.001 104.129V151.438C551.001 151.438 435.379 151.823 433.528 153.058C433.352 153.19 433.175 153.322 432.999 153.443C427.87 155.712 426.949 174.106 427.048 179.473H385.271C385.47 169.995 386.351 137.024 389.162 131.26C391.277 126.885 400.666 117.684 409.56 111.545C410.474 110.906 411.389 110.3 412.304 109.738C413.042 109.264 413.769 108.823 414.486 108.416C417.527 106.73 420.315 105.628 422.486 105.484C424.756 105.319 534.394 104.184 551.001 104.129Z" fill="#455A64"/>
<g opacity="0.3">
<path d="M388.779 159.912C388.669 153.966 389.022 148.012 389.878 142.092C390.312 139.129 390.895 136.179 391.877 133.268L392.278 132.18C392.351 131.995 392.402 131.825 392.491 131.627C392.592 131.429 392.693 131.208 392.803 131.032C393.235 130.296 393.721 129.704 394.208 129.096C395.194 127.914 396.235 126.825 397.297 125.759C401.585 121.554 406.182 117.756 411.018 114.242C412.237 113.377 413.47 112.529 414.739 111.724C416.021 110.924 417.288 110.145 418.802 109.574C419 109.512 419.228 109.446 419.419 109.405L419.976 109.309C420.346 109.242 420.719 109.193 421.091 109.142C421.836 109.049 422.582 108.968 423.328 108.908C424.821 108.799 426.319 108.761 427.807 108.852C426.332 109.056 424.876 109.336 423.436 109.647C422.715 109.801 422 109.974 421.289 110.158L420.227 110.444L419.698 110.592C419.532 110.646 419.406 110.695 419.254 110.754C418.023 111.319 416.811 112.206 415.622 113.034C414.433 113.886 413.268 114.784 412.118 115.701C409.803 117.517 407.549 119.42 405.327 121.352C403.098 123.275 400.926 125.267 398.837 127.314C397.795 128.336 396.775 129.383 395.85 130.468C395.403 131.01 394.944 131.568 394.622 132.111C394.336 132.557 394.081 133.338 393.809 133.96C392.798 136.639 392.147 139.514 391.534 142.384C390.37 148.152 389.553 154.022 388.779 159.912Z" fill="white"/>
</g>
<g opacity="0.3">
<path d="M407.916 123.037C410.018 120.667 412.402 118.596 414.908 116.683C416.173 115.742 417.464 114.832 418.828 114.025C420.19 113.243 421.607 112.421 423.191 112.148C422.472 112.478 421.825 112.902 421.195 113.368C420.554 113.808 419.933 114.283 419.305 114.741L415.572 117.564C413.065 119.43 410.581 121.325 407.916 123.037Z" fill="white"/>
</g>
<path d="M492.599 100.498H446.574V157.3H492.599V100.498Z" fill="#37474F"/>
<path d="M431.379 171.896H380.158V191.401H431.379V171.896Z" fill="#37474F"/>
<path d="M484.994 91.5195H454.176V100.498H484.994V91.5195Z" fill="#37474F"/>
<path d="M484.994 100.498H454.176V97.291L484.994 98.3599V100.498Z" fill="#263238"/>
</g>
<defs>
<clipPath id="clip0_89_10434">
<rect width="551" height="551" fill="white"/>
</clipPath>
</defs>
</svg>
