<svg xmlns="http://www.w3.org/2000/svg" viewBox="0 0 86.43 112.09"><defs><style>.cls-1{fill:#3DB3F1;stroke:#000;stroke-miterlimit:11;stroke-width:0.4px;}.cls-2{isolation:isolate;font-size:7.26px;font-family:Tahoma;}</style></defs><g id="Layer_2" data-name="Layer 2"><g id="Layer_1-2" data-name="Layer 1"><path class="cls-1" d="M69,110.89l-.19-.22-1-.13-2,0-1-.3-.85-.75-.42-.71v-.94l-.49-.24-.26.15-.24.45-1,.15-.31-.35-.09-1.94.11-.49-.25-.56,0-.57-.34-.07-.1-.32-.39.15,0-.43-.27-.41-.46,0-.32.3-1.16-1.27-.78-.38-.62,0-.43.56-.78-.06-.11-1-.45-.62v-.6h-.35l-.09-.54-.3-.41-.34.21-.09.33-.38.14-.31-.56h-.67l-1,.23-.65-.5L50,98.61l-.78.77-.82-.64-.14-.7-.24-.5.44-.12-.15-.86-.42-.28-1.21-.48-.7-1-.14-1.32L44.12,93l-.21.33-.33,1-.42,0-.64.26-.14.47-.32.27-.38.08-.22.59-.9-.13-.8-.31-.36.27,0,1,.15.7-.09.78-.62.59-.94-.66,0-.41-.32-.65L36.59,97l-1.05-.53-1.11-.81L32.86,94l-1.3-.34-1.07-.81V92l-.55-1-.84-1-1.45-1-.57-1-.22-1.42L26,85.64l-.78-1.1-.17-1.4-.8-.67-.52-.73L22.91,79l-.88.37-.65.46-.58-.24L19,79.09l-1.46-.7-.78-.15-.07.21L15.8,77l.57-.6.13-.58h-.07l-.11.44-.77.31-.7-1-.59.36-2.39-1.21-.8,0L10,74.29l-1.08.55L9,74.29,6.27,73.4l-.83.36L5,73.49l-.62-.73L4,72l-.49-1.75-.2-.13L2,67.17,1,65.42l-.77-.76.53-1.58.56-.71,2.55-2.16.62-1,.65-.78.5-1.23,2-1.71.68-.92.48-.93.76-.72L9.61,51l.4-.69.82-2.1-.49-.86V45.23l-.2-3.55.35-1.08-.11-1.2L10,39.13l-.09-1.46-.15-.29.27-1.07.44-.76.56-.28.27-3-.05-.81-.1-.43h-.32l-.37-.15-.39-.67L9.8,30l-1.12.52-.15-.25-.15-.88.29-1.11,1-1,.1-.4v-1.5l.25-.49,1.5.64.66,1.16.37.3,1.13.61V26.33L14.13,25l-.13-.4.08-1-.05-2,.28-.72.61-.65.32-.19.84-2.4-.65-.27h-.31l-1.07-.9-.35.23-.33-.23-.18-.69.07-.77L13,13.18l.18-.54.26-.44-.29-.66L13.36,10l-.53-.31.93-3,.86-.09,1.21.21.35-.64.7-.12.49.21L18,6.21l.36-.35.35-.78.11-1-.39-.46L18.19,3l.43-.21.67-.08.6.07L21,2.66l.26-.34,0-.19L21.36,2l.5-.56.39-.29.21-.29.4-.29.56,0,.75.11V.79l.22.13.09-.14.16-.15.12-.42h.07L25,.33l0,.28,0,.28,0,.28.19.41.4.12L26,2V2.3l.24.41.33,0,1.09.44.66.48.27-.06L29.3,3l.54,0,.42.54.11-.8.87-.25.34.55.65-.22,1.14.5.06.88.27.59.39.47.59.35.4-.5.36-.74,1.06-.53.6-1.08,1.6.62.93,0,.11.38.37.31.27-.28.34-.07L42,4.09l.32-.47L43.2,4l.46-.44,1.87-.15v.94l.7.71.37.73-.8.59,1.28.31.68-.25.41-.56-.2-.1,1.39-1.18L50,3.82l.18,1.78-.44,1.18.08.55-.64,0-.6.19.1.41-.44,1.28-.52.61-.59-.26-.53.11-.93-.33-.21,0,.11.33-.2.54-.18,0L45,9.78l-.32,0L44.44,11l-.24.18-.08-.55-.52-.33-.55-.48.09-.66-.41-.08,0,.39-.84.33-.42.75,0,.81-.74.35-1.46.44-.44.54-.17.45.13.61,1.67,1.92,1.44.41.07.32-1.25,1.9-.42-.06.24.88-.27,1,.11,1.07-.09.41-1.46-.24-.16,2,.2.8,0,.73.09.94-1.28,2.74-.37,2.64-.56.47L37.09,33l.6.32.72.8,1.14.8.42.57L41,35.38l1.25,1.83.06.86.35.39.93,2.09.28-.33.63.2.23.49.69.6.4.61.64,1.32.31-.1-.15-.82.19-1.09.68.17.39-.43,1.4.18.58-.56.74.74.33.61.58.42,2,1.84.7.78,1.09,0,.57.44.64.78.76.34.8.55.47,1,.83.52.66,1L59.9,51,60,53.25l-.17,1.13-.28,1.76.17.83,0,.93.49.49,1,.3.3,1-.19.3.25.87.58.43.43-.24,1.18.28.12-.15,1-.45,2.35-.5,2.25.79,3,.05.41.26.36,1.08.42.52,0,.67-.36.49.1.26.71.32V65l.51-.16.17.22.64.17.22.94-.35.24.26.45v.44l-.25.68.72.56.17.51,0,.45-.26.52,0,.29.93,1.22-.79.72.2.42.42.25.1.25v.41l-.26.6-.66.72-.38-.3-.31-.1h-.71l-.64.19-.93-.41-.76-.17-.53.2-.29.42,0,.71.4,1.41L72,78.23l.62.6,0,.54.09.95.45,1.44.17.33.56.18h1l1.07.45,1.69.24,1.37.59,1.3.82.82.69.54.74.1.52-.14.65-.32.47-.24.78.28,1.33-.47,1.13L80,93.38l.11.43L80,95l.07.68.8,1.09.4.41.67.09,1.64,1.29.54-.1.32.26.15.54.85.33.45,0L86,100l.06,1,.17.73v.79l-.06.85-.25.09v.76l.11.62-.1,1-1.31-.32-.42,0-.46.16-.65-.13-.43-.32-.37-.52-.06.17-.92.3-.54-.51-.25.16-.55.06-.58-.3-.26.1-.13,1-.29.59L78.45,105l-.13-.17-.07-.65-.06.62-.22.79.08.59-.1.43-.16.09-.09.28-.27,0-.16.3-.3.12-.28-.29,0-.28.21,0-.22-.62.44-1.67L76,104.29l0,1.33.25,1.28,0,.73.49.66.21-.17.19-.48.88.09-.07.68-.94,2.7-.91-.54-.57.48-.24.33-.47,0-.32-.31.3-1.1.38-.51.9.71.1-.5-.56-.76-.71-.33-.42,0-.33.16-.07.37.26.6.07,1.21h-.55l-.3.45-1.25.46h-.75l-.71-.39-.76-.06-.87-.31Z"/><text class="cls-2" transform="translate(35.06 61.07)">Purbi<tspan x="-9.84" y="8.71">Singhbhum</tspan></text></g></g></svg>