<svg width="199" height="55" viewBox="0 0 199 55" fill="none" xmlns="http://www.w3.org/2000/svg">
<rect width="199" height="55" rx="27.5" fill="url(#paint0_linear_2976_1300)"/>
<path d="M23.0208 40V16.1145H31.2655C32.7744 16.1145 33.9329 16.4513 34.7412 17.1249C35.5765 17.7985 35.9941 18.7954 35.9941 20.1156V23.9147C35.9941 25.2349 35.6304 26.3126 34.9029 27.1479C34.1754 27.9562 33.0977 28.4008 31.6697 28.4816C32.5858 28.5624 33.2324 28.8588 33.6096 29.3707C34.0138 29.8827 34.3775 30.6775 34.7008 31.7553L37.0045 40H32.7205L30.821 32.0382C30.6323 31.3646 30.4168 30.7718 30.1743 30.2599C29.9318 29.748 29.5411 29.492 29.0023 29.492H27.0219V40H23.0208ZM27.0219 26.7842H29.6085C30.5515 26.7842 31.2116 26.5417 31.5888 26.0567C31.993 25.5717 32.1951 24.8307 32.1951 23.8338V20.8027C32.1951 19.9135 32.0065 19.2669 31.6293 18.8627C31.279 18.4586 30.7266 18.2565 29.9722 18.2565H27.0219V26.7842ZM39.8737 40V16.1145H50.6242V18.8627H43.9152V26.0971H49.4522V29.1282H43.9152V37.3326H50.6242V40H39.8737ZM53.5306 40.0404C53.3151 40.0404 53.0187 40.0404 52.6415 40.0404C52.2643 40.0404 51.9544 40.0269 51.7119 40V37.2922L53.0052 37.3326C53.8405 37.3326 54.4063 37.1844 54.7027 36.888C54.9991 36.5916 55.1473 35.9989 55.1473 35.1097V16.1145H59.0271V34.3418C59.0271 35.7968 58.8655 36.9419 58.5421 37.7772C58.2188 38.6124 57.653 39.2052 56.8447 39.5554C56.0633 39.8788 54.9586 40.0404 53.5306 40.0404ZM62.9626 40V16.1145H73.7131V18.8627H67.0041V26.0971H72.541V29.1282H67.0041V37.3326H73.7131V40H62.9626ZM82.7223 40.485C81.4829 40.485 80.3647 40.3368 79.3678 40.0404C78.3978 39.744 77.6299 39.1378 77.0641 38.2217C76.5252 37.2787 76.2558 35.8776 76.2558 34.0185V21.126C76.2558 19.671 76.5252 18.5663 77.0641 17.8119C77.6299 17.0306 78.3978 16.4917 79.3678 16.1953C80.3647 15.8989 81.4963 15.7507 82.7627 15.7507C84.056 15.7507 85.1741 15.9124 86.1172 16.2357C87.0602 16.5321 87.8011 17.071 88.34 17.8523C88.8789 18.6068 89.1483 19.698 89.1483 21.126V25.8142H85.2684V21.0047C85.2684 20.1695 85.1607 19.5633 84.9451 19.186C84.7296 18.7819 84.4332 18.5125 84.056 18.3777C83.6788 18.243 83.2477 18.1757 82.7627 18.1757C82.2777 18.1757 81.8466 18.243 81.4694 18.3777C81.0922 18.5125 80.7958 18.7819 80.5802 19.186C80.3647 19.5633 80.2569 20.1695 80.2569 21.0047V35.3522C80.2569 36.1605 80.3647 36.7668 80.5802 37.1709C80.7958 37.5751 81.0922 37.8445 81.4694 37.9792C81.8466 38.1139 82.2777 38.1813 82.7627 38.1813C83.2746 38.1813 83.7057 38.1139 84.056 37.9792C84.4332 37.8445 84.7296 37.5751 84.9451 37.1709C85.1607 36.7668 85.2684 36.1605 85.2684 35.3522V31.0682H89.1483V33.9781C89.1483 35.8911 88.8789 37.3056 88.34 38.2217C87.8011 39.1378 87.0602 39.744 86.1172 40.0404C85.1741 40.3368 84.0425 40.485 82.7223 40.485ZM94.8646 40V18.8627H91.0655V16.1145H102.624V18.8627H98.7445V40H94.8646ZM105.036 40V16.1145H115.786V18.8627H109.077V26.0971H114.614V29.1282H109.077V37.3326H115.786V40H105.036ZM118.652 40V16.1145H126.574C127.651 16.1145 128.554 16.2761 129.281 16.5995C130.009 16.9228 130.561 17.4212 130.939 18.0948C131.343 18.7684 131.545 19.6441 131.545 20.7218V34.8672C131.545 36.1875 131.316 37.2248 130.858 37.9792C130.4 38.7336 129.753 39.2591 128.918 39.5554C128.109 39.8518 127.153 40 126.048 40H118.652ZM122.653 37.9388H125.442C126.116 37.9388 126.654 37.7502 127.059 37.373C127.463 36.9688 127.665 36.2279 127.665 35.1501V21.1664C127.665 20.0887 127.463 19.3477 127.059 18.9436C126.654 18.5394 126.116 18.3373 125.442 18.3373H122.653V37.9388Z" fill="white"/>
<ellipse cx="166" cy="27.5" rx="17" ry="17.5" fill="white"/>
<path d="M173 21L160 34M160 21L173 34" stroke="url(#paint1_linear_2976_1300)" stroke-width="3.05882" stroke-linecap="round" stroke-linejoin="round"/>
<defs>
<linearGradient id="paint0_linear_2976_1300" x1="0" y1="27.5" x2="199" y2="27.5" gradientUnits="userSpaceOnUse">
<stop stop-color="#A20106"/>
<stop offset="1" stop-color="#FD1522"/>
</linearGradient>
<linearGradient id="paint1_linear_2976_1300" x1="173" y1="26" x2="160" y2="25" gradientUnits="userSpaceOnUse">
<stop stop-color="#F81420"/>
<stop offset="1" stop-color="#FF000D"/>
</linearGradient>
</defs>
</svg>
