<svg xmlns="http://www.w3.org/2000/svg" viewBox="0 0 92.84 76.64"><defs><style>.cls-1{fill:#3DB3F1;stroke:#000;stroke-miterlimit:11;stroke-width:0.4px;}.cls-2{isolation:isolate;font-size:11px;font-family:Tahoma;}.cls-3{letter-spacing:0em;}.cls-4{letter-spacing:0em;}</style></defs><g id="Layer_2" data-name="Layer 2"><g id="Layer_1-2" data-name="Layer 1"><path class="cls-1" d="M43.85,9.17l1.37-.69,2.44-1,4.74.2,4.51,1.55,0,.39-.36.7-.35.25-.6.95.1.33.26.08.47-.24,0,.51-.28.46.06.36.25.38-.16.89.15.29.58,0,.36.61.38-.09.59.29.1.41-.23.5.08.32.36.58-.17.41-.33.23-.06.25.52,1,.18.53.21.23.57-.25.67.3.44-.12L60.85,22l-.34,1.53.2,1.17.17.62.33.48.65.32-.07.82.14.36.36.36.47.26.26.36-.23.68.52.47.17,1.67-.3.67L63.24,33l-.56.33-.26.56-.9-.06-.05,0,1,.73,2-.82,1.84-1.63,2.75-.2,3.67-.41,2.29.82,2.14,3.26.75-1,.24,1.14v.9l-.23.64v.32l.25.3.89,0,.36-.08.48-1.09,1.49.23,1,0-.26,1.64.13.57,1,.41.23.45.13,1.76.72,1.07.43.22.39-.07.73-.32.47,0,.41.2.94,1.44.44.5.86.34,1.83.44.49.4.17.2.72.79.6.15L90.55,47l-.52.27-.14.25-.06.5L90,49v1.05l-.53.09-.43-.37-.33.11-.27.75-.67.21-.49.29-.33.46L86.53,53l-.63-.2-1.12.09-.25.47-.63.14.13.76,0,.47.11.48-.49.45-.34,0-.19,1-.54.29-.32.3-.06.79-.27.23-.12.49-.26.43.26.64-.18.67.1.41.43.36.12.36.28.4-.07.52-.2.47-.85.35,0,.37-.35,1.92.51,1,.36-.32.88.22.17.58,0,.48-.14.14-.21-.32-.43.25-.93.08L80.58,69l.33.59,0,.64-.5.34h-1l0,.57.22.64-1,.71-.21-.14-.07-.93-.25-.36-.52.43-.64.25-.31.56-.59.06L75.5,73l0,.43.56.61.44-.19.24,0,.06.81.14.44-.09.31-1.39.83-1.07-.39-.76-.64-.13-1.1,0-.58-.23-.21-.52.3-.65-.15-.1.29-.26.19-.61-.23-.57.1-.24.27-.36.2.14.45.53.84-.23.36-.46.42-.34-.05L69.23,76l-.08-.43,0-.83-.88.3-.67-.86,0-1,.24-.94.82-.88.37-1.9-.67-.15-.73.12-.22.7.09,1.05-.32.18-1.17-.45-.67.07L65,70.21l-.43.08-.37-.13-.53-.55-.6.2-.23-.11,0-1-.71-.47-.46.34-1.55-.13-.78.55-.29-.59.06-.55.27-.67-.07-1.09,1-1.42-.19-.77.13-1.3-1.21-1.14.14-1.09.57-.83.31-1,.06-.46-.5-.55-.23-.43.22-.73,0-.21-.36-.33-.64-.31-.26.11L58,56,57.45,56l-.75-1-1,.44-.56-.17L54.84,55l-.33.41-.5.13-.59.33-.54-.13-1,0-.13-1.42L51.07,54l-1.46.25-.46-.69-1,.06L48,54.81l-.54,0-.52.35-.78,1.2-.69.33,0,1.33,1.08.85-.27.43.68,1.48.21,1,.47.45.12.41v1.83l1.65.31.24.15.06.35-.44.74-.61.47H48L47.3,67l-.36-.12-.55,0-.51.38-.54.28-.49.06-.43.54-.69.46-.46-.12-1.53.78-.81.75-1.11.47-.45.32-.32.58-.61.12-.62-.08-2.12-1-.51-.68-.65-.62L33,68.55l-1.42,0,.57-.69v-.27l-.42-.21.14-.31-.09-.19-.21-.06-.08-.27L31,66.25l-.09-.36-.77-.21,0-.27-.21-.35-.41-.17h-.3l-.46.38-.36.17-.45,0-.66-.14L26.92,65l-.07-.44.08-.54.35-1-.12-.45-.67-.46L26.06,62l-.78-1.45.32-.49,1.21-.47.21-1,.25-.06L27.09,58l-.61-1.11-.9.1-.33-.28-.41.11-.4-.07L24,54.34,23.86,53l-.34-.56-.26-.85-.38-.27-.24-.77-.07-.07-.46.29.12-1-.51-.26.42-.91-.81-.7-.14-.61L21,47l-.75-.29L19.89,46l.21-2.34-.05-.49-.23-.81-.32-.7-.4-.32-.33.07-.28.83-.26,1.59L17.81,45l-1.13,1-.45.14-.49-.09-.38.32-.48,1.55-.47.89-.51.3-.29-.06-.67-.71-.24-.73-.28-.12-.79.55-.51-.51-.37-.33-.38.17-.12.48.09.47-.12.39-.5.11-.31.35.07.32-.22.24-.36-.06-.16.38.15.43v.39l-.24.58-.89,1.39-.7-.21-.33-.31L6,51.89l-.38-.32L5.35,51l-.57-1-.39-.38L4,49.42l-.36,0-.1-.9.16-4.91-.08-1.31.26-.39v-.64L3.11,40v-.39l.79-.89.22-.41.15-1.37,0-1.4L4.17,34l-.45-.66V30.83l1.4-.64.29-.44.14-.44L6,28.83l.41-.67.78-.63.14-1.1,0-1.31.44-.83-.14-1.17L7.32,23l-.5.15H6.29l-.41,2.18-.27.38-.83.49-.54.54-.39.07-.53-.22-.26-1-.18-.21-.36-.16-.15-.49L2,24.37l-.31-.57-.25-1.15.44-.89-.09-.46-.59-1.45,0-.45-.93-.49.29-.8.36-.52.43-.29,2.22-1,.24-.23.13-.81-.35-1.11-.24-.5v-.73l.22-1.23.81-1L5.58,9.61l.53-.41,1-.52.27-.54.73-.46.29-.3-.15-.26-.33-.27,0-.61-.74-.45L6.9,5.45l0-.57L7,4.67l.17-.38,1.23.14.56-.19.53-.31.29-1.16L9.52,2.3l-.39-.42.07-.11.74-.13.12-.92.17-.34.27.37.31.08.71-.17.82.52.21.27L12.44,2l-.54-.1-.34.25-.46,1,.09.69,1.67,3.13.8.81.6-.09.15.66.06.83.37.23L15,8.82l0-.54.25-.5L16,6.84l1-.62-.18-.49L17,5.34l.33-.14.25.49.35.25,1.52.28.23.4-.23,1.86.49.74.71.63.77,0,0,.48.21,1.46.35.4,1,.29.18.3-.31.75L23,14l.25.28.17.37-.07.32.13.34.32.23-.18.39v1.44l.84.66.21.39-.12.7,1.47.26.34,0,.47.35.53-1,.43-.48,1.7-1.39.26-.52,0-.47.15-.52,0-.63.23-.42.17-.54.27-.63.67-1.17.32-.84.46-.6.21-.74,0-.73.09-.68L31.8,8l-.09-.45,0-.5.24-.8,0-.62L31.9,5l-.2-.37-.1-.44.33-1.11.26-.52.35-.18.42.28.32-.17.3.12.42.57.71.46,1.35.29.34.83.18,1.55.25.94.22.15.71-.63.63-1,.17.4L38.5,7.36l.13.46.27.39.51.17.3.39.21.35.27.78,0,.74.23.13.4.63.23.22.32.07.2-.86.84-1.17.36-.7h.8Z"/><text class="cls-2" transform="translate(26.64 40.89)"><tspan class="cls-3">B</tspan><tspan x="6.54" y="0">oka</tspan><tspan class="cls-4" x="23.76" y="0">r</tspan><tspan x="27.67" y="0">o</tspan></text></g></g></svg>