<svg xmlns="http://www.w3.org/2000/svg" viewBox="0 0 49.76 101.28"><defs><style>.cls-1{fill:#3DB3F1;stroke:#000;stroke-miterlimit:11;stroke-width:0.4px;}.cls-2{isolation:isolate;font-size:8.76px;font-family:Tahoma;}</style></defs><g id="Layer_2" data-name="Layer 2"><g id="Layer_1-2" data-name="Layer 1"><path class="cls-1" d="M48.31,59.91l-1.1,1-.42.34.23.36-.34.3-.34-.06L46,61.64l-.25-.3-.18-.08-.22,0-.28,0-.5-.14L44,61l-.51-.38-.36,0-.25.67-.29.93-.37.67-.46.73-.57.76-.46.58-.14.68.05.52.29.21.41,0,.42.7.54.88.35.55.27.43-.25.56,0,.4.59.17.16.56.09.7,0,.69.08.63.38.87.19.87.16,1-.34.81.23,1,.11.79.09,1.2-.14,1-.26.54-.36.63-.57.7-.6.51-.39.61-.22.58,0,.67.08.4.3.26.89,0,.22.81.25,1.17-.9.85v.67l0,.75.41.4.43.25.38.39,0,.51-.3.65-.37.23-.41.17-.6.39-.59.08-.65-.26-.22.81-.45.06-.66.22-.43.25L39,94l-.18.54-.36.41-.54-.07-.24.28-.08.54,0,.49-.23,0-.1-.52L37,95.22l-.32-.38-.47-.08-.35.22.07.5,0,1-.18.89-.08.71.09.67.35.63.4.46.81.67-.09.6-.48,0-.55-.06-.69-.06-.74-.26-.31-.51,0-.75-.25-.7-.32-.63-.44-.72-.48-1-.4-.68-.29-.48-.43-.41-.37-.71-.31-.74-.34-.52-.24,0-.42-.43L29.78,92l-.14-.46,0-.62,0-.39-.15-.26L29.21,90l-.32-.25-.48-.41L28,88.92l-.11-.46-.14-.58-.48.09-.71-.18L26,88l-.63-.27L25,87.42l-.33-.24-.36-.2-.35.09-.36.43-.41.69-.54.45-.61.19-.55.21-.52.34-.54-.23-.69-.2-.51-.2-.68-.28-.25.3-.42.34-.46-.17-.27-.38-.26-.21-.31-.08L16,87.88l-.54-.62L15,86.75l-.39-.32-.61.12-.34-.24-.36-.52-.4-.47-.61,0-.5.16-.52-.06-.54-.31-.55-.39-.56-.49-.43-.52-.43-.32-.42.06H7.88l-.42-.13-.73,0-.4-.12-.62-.28-.47-.36-.6-.41-.44.07-.62,0-.48-.33-.69-.38-.6,0-.45.44L1,82.69l-.22,1-.57.25L.4,83l.31-.85.17-.89.06-.81.14-.86.25-.72.06-.61-.06-.77.43-.23.13-.68L2,76l.26-.49L2.61,75l.24-.38L3,74.15l0-.6.05-.6v-.58l.14-.5.11-.22.3-.29.12-.58L4,70.34,4.15,70l0-.34-.1-.31,0-.47V68.4L4,68.26l-.2.11-.15.07-.15-.11,0-.24.06-.24-.25-.09,0-.35.1-.23.2-.1.35-.16.18-.24,0-.33,0-.13.22-.28.21-.29.12-.35-.15-.44-.15-.42L4.22,64v-.69l0-.87L4.54,62l.25-.39.33-.39.18-.58.29-.74.1-.54V59l-.27-.06-.34.25L4.88,59l-.27-.25-.29-.1-.22-.11L4,58.2l-.36.16,0-.48,0-.34,0-.54.13-.57L4,56.14l.41.16.36,0,.36-.07.39-.37.27-.5L6,54.69l.29-.62.23-.72.15-.4L7,52.47l.52-.66L8,52l.43.14L8.88,52l.26-.42.3-.29.63,0h.6l.67.11.07-.64-.45.09L11,50.1l.18-.63.51-.56.21-.59.16-.68V47.1L12,46.19l-.27-.56-.43-.42-.15-.27L11,44.51l-.13-.65.12-.68.22-.48.31-.38.2-.35.07-.72-.33-.67-.37-.78,0-1,.21-.89.19-1-.07-.78v-.81l.1-1.2L11.62,33l-.75-1.24,0-.51-.15-.39-.07-.61,0-1,.27-.87.24-.27.34,0,.63-.62.69-1.64v-.42l.36-.43.5-1,.06-.21L14,22.9l.8-.42h.36l1-.92.25-.8.87-.54.25-.27.07-.6.45-.08.24.23,1,.13.7.24L20.59,18l.12-.18.44.23.41-.87.14-.06.85.17.45.52.14.43.61.57.48.2,1.11.18.58.23L26.36,18l-.27-.69.22-1V16l-.17-.07.48-2.82h.21l.37-.49-.11-.34.11-.37L27,11.82l.06-.2.59-.69.17-.45.08-.94.42-.34.06-.31-.06-.33-.15-.26L28,8.22l.56-2.28.11-.33L28.48,5l0-.55.25-.59.53-3L30,1v.71l1.8.54.76,0,.31.3,1.08.6.15.26.42-1.87L34.86.9l.65-.12.33-.31.55-.25.5.25.58.6L38,1.4l.19.54L39,2l4,2.41.28,0,.43.37.51-.07.08.35.47-.21.56,2.79,1.19,3.08.56,2.18-2.48,4.32.35.73.73.33.59.62L46.54,20l.37.41.41,1,1,1.33.8.53.34.57-.4.06-.49.4-.47,0,0-.14-.29.52.44,1.66-.56,1.76-.78,1.2-.62.45-.34.07-.64.47-.81,1.51-.65,1-.18.54.18.39.44.26.44.38.09.64v.77l0,.65-.24,0-.16.89-.16,1-.64.19.06.74-.41.65v.74l-.35.63,0,.67v.66l.09.89.49-.1.53.12,0,.71,0,.61-.18.62-.31.58-.39.33-.57.31.18.76.31.57.49.58.39.51,0,.5-.89.32.07,1.28.58-.16.44.62.53-.3h.36l.12.35-.48.16-.22.32.45,0-.07.65.35.43,0,.35-.11,1,.13.82.41.57.08.6.27.71.48.48.36.67.37.65.61.5Z"/><text class="cls-2" transform="translate(13.78 56.87)">Godda</text></g></g></svg>