<svg xmlns="http://www.w3.org/2000/svg" viewBox="0 0 86.84 52.28"><defs><style>.cls-1{fill:#3DB3F1;stroke:#000;stroke-miterlimit:11;stroke-width:0.4px;}.cls-2{isolation:isolate;font-size:11px;font-family:Tahoma;}.cls-3{letter-spacing:-0.02em;}</style></defs><g id="Layer_2" data-name="Layer 2"><g id="Layer_1-2" data-name="Layer 1"><path class="cls-1" d="M.29,21.21l.39-.31.72-.26.54-.19v-.83l-.61.47-.06-1.16.36-1.35H2.2l.42-.18.61.13.82-.73L5,16.54l.56-.23,1.21-.46L7,15l.33-.81.55-.51L8.24,13l.07-1.15.39-1.55.41-.39.26-.42.3-1.3L10,6.56l.35-.48,0-1.13.26-.61.55-.09.12-.3h.41l.36.14.49.11.34-.41.34-.06.45.08.59.2.45,0,.36-.11.58.28.38.27.32.16,1,0,1.12.19.65.23.57.12.75,0,.38-.09h.6l.3-.19.33-.43.23-.58.26-.45,0-.75L22.69,2,23,1.24l.16-.61L23.6.26l.52.41.24.24.47.31.22.89.15,1.16-.6.39L24,3.75l-.32.2-.22,1.23-.07,1.59.28.74.56.76.51.13.73-.06.6.42,1.24.52,1.41.62.86.16.52,0,.51.95-.62.75.33.5.65.63.27.88.7-.15.83.36.57-.25V12.23l.6-.17.43-.61L35,12l.43-.68.14.14.08,1.09.32.3,1,.06L38,15.88l1.09,0,.34-.79L41,14.59l.58-.38.61.24.45-.31.12-.52.31-.28,1,.57,1,.83,1.14-.29.56.3-.5.69.55.81,1.27.83,1.34.46.84-.11.81-.64-.31-.8.77-.79,1-.16,0-1.59.38-.87-.09-1.16-.33-1.54.73-1.34.16-.65-.06-.73.15-.85.33-.42.55.09.47.12.19,0,.06.05.31-.09,2.22-.24L58,5.27l.17-.65L58.05,4l-.19-.45-.19-.46.15,0,.36.51.24.2.06,0,1.08.54.63.37.61.48.33.48.35.5.21.65.22.47.61.56.61.48.46.37L64,9h.32l.34.12.34.09.28-.2.44-.17.26.16,0,.47-.2.44.21.4.4.2.1.43.12.61.17.69.42.75.14.85.25.74.34.7.53.7.52.77.66.66.54.33.61-.13.71.24.59.56.53.48.56.36.72.13.71.17.85.2.68.17,1-.16.83.16.64.31h.92l.74-.15.28,1,.4.39L81,22l0,.68.31.66.19.34,0,.07,0,0,.08.09,0,0,0,0,.05,0,0,0,0,0,0,0h.31l.06,0,0,0,0,0,0,0,0,0,0,0,0,0,0-.05,0-.05,0-.12.08-.09.38-.43.2.52-.07.56.5,1,.12.44-.21.39-.55.52L83,27.68l.2.52.31.37.5-.25.91,1.07h.9l.53.25-.13,1.15.15,1.2-.71.68.28,1.1,0,.79.72,3-.41,0,.2,1.19-.73.9-.44-.08-.31.31-.82,1.25-.57-.26-.33-.46.24-.25-.33-1.7-.48-.83.37-.55-.07-.29-.26-.47L82.21,36l-.44.43-.41.91.19.76-.31,1.4.22.59-.09.35,0,1.34.43.36-.3,1.28.14.73.42.51.12.66.27.5-1,1.55-.31.27-.41.18-.53-.07-.48.33-1-.59L78.68,47l.4-.56.18-1.09.4,0,.39-.23.36-.51.11-.67-.87-.31-.56-.33-.59.93-.41.09-.58-.38-.44,1-.38-.18-.53.75-.28.23-.32-.06,0-.76.7-.63,0-.47-.86-.4-.32.59-.39.19L74.32,44l-.38-.52-.4-.22-.25-.37-1-.61-.4-.1-.56.4-.7-.33-.22-.32-.29-.1-.51.16-.32.63.18.59,0,.45.1.56.76.7.85,1.28L72,47.68l.53-.36.32.1.44,1.11-1.09,2.2-.24.73-.51.57-.54-.28-.45-.51-.58.51-1,.19-1.16-.25-.28-.31.46-.14.17-.27,0-.39-.36-.1-.51.51-.18.32-1.06-1.38-.46,0-.31.25-.4.36L63.92,50l-.4-.44-.89-.17L61.87,49l-2.34-2.85-1.25-.51-.93-.89L56.16,44l-.78-.15-1.5-.39-.86-.9-.51-.34-.41.07-.36.35-.19.44-.2,1.32-.47.52L50,45.3,49.33,45l-.86-.71-.28-.54-.13-1.67-1.8-1.89-.33.07-.9-.13-.38.49-.7.42-.48,1-.5.58,0,.68.71.12-.22,2L44,46.48V47l.22.44.09.71-.35.41-.22.66-.55.14V48.29l-.38-.82,0-1-.2-1.34-1.08.28-.39.37-.27,1-1,1.48-1,.36-.95.84-.54.26-.72-.12-.47-.27-.24-.56.09-.89-.14-.49L35.53,47l-.37-.27-.29.11-.47.06-1.23-3.44-.41-.67-.55-.51-.43-.84-.39-.5L31,40.6l-1.76-.74-.57.36-1,.93-.3-.27-.66-1.06-.29-1.11-.26-2.08-.71-1.38-.62-.83-1.74-.35-1.84-1.55L19.79,32l-1.12-.81-.53-.82-4.38-3.19-.36-.8-1-1.35-.75-1.24L11,23.5l-3.3-.57-1.84.91-.74-.19-1.34-.93-.26-.37-.17-.24-.21-.2L3,21.79l-.18-.05-.22.07-.17.11-.31.21-.24.11-.32,0-.26-.12L1,21.87l-.37-.29Z"/><text class="cls-2" transform="translate(28.23 28.02)">Jamta<tspan class="cls-3" x="29.05" y="0">r</tspan><tspan x="32.82" y="0">a</tspan></text></g></g></svg>