<svg xmlns="http://www.w3.org/2000/svg" viewBox="0 0 85.43 92.66"><defs><style>.cls-1{fill:#3DB3F1;stroke:#000;stroke-miterlimit:11;stroke-width:0.4px;}.cls-2{isolation:isolate;font-size:11px;font-family:Tahoma;}</style></defs><g id="Layer_2" data-name="Layer 2"><g id="Layer_1-2" data-name="Layer 1"><path class="cls-1" d="M3.52,14.68,3.1,14,3,13.21l0-.84V11.25l-.53-.47.2-.66-.26-.64-.28-.61V8l.33-.7.35-.49.45-.26L3.4,6l.82-1.34.11-.38V3.48l.51-.68.56-.29h.51L6.11,2l-.27-.74-.35-1L6.4.2l1,0-.12,1L7,1.85l.08.64.83-.15.52-.25.74-.34L9.76,2l.93.78.56.42.28.2.2,0V3.3l.26.21,1.83,1.8.28-.4.28-.58.12-.63L15,3.45l.3-.2.21.14V4.62l.11.26.27,0,.26,0,.25,0,.1-.23.08-.2.21.09.22.21.22.3.17.49.61-.2-.22-.46-.17-.57V3.76l-.08-.38-.16-.54L18,2.58l.22-1,.31-.75.46-.44.6,0,.68.39.48.33.62,0,.44-.07.61.41.47.36.62.27.39.13.74,0,.42.13h.46l.42-.06.44.31.42.53.57.49.55.39.53.31.53.06.5-.16.6,0,.4.47.36.52.35.24.6-.12.39.32.47.5.53.63.56.39.3.08.26.21.27.38L35,8l.42-.34.26-.31.68.29.51.19.69.21.54.23L38.59,8l.55-.21.61-.19.55-.45.4-.69L41.06,6l.36-.1.35.21.34.24.38.31.64.26.55-.21.71.19.48-.09.14.58.11.46.41.44.49.41.32.25.28.26.16.26,0,.39,0,.61.13.47.3.39.41.43.24,0,.35.52.31.74.37.71.42.41.3.48.4.68.47,1,.45.72.32.63.24.69,0,.76.31.51.74.26.69.06.56.06.48,0,.08-.61,1.25-.05.19-.2.35-.48.35-.38.33-.06.3.06.19-.19.31-.24H58l.54.07.24-.06.28-.41.24-.19.48.18.26,0,.54-.31.62-.09.67-.22.33-.46.37-.13.8.07.84.38.55.45.71.63.83.49.86.16.52.49.38.3.2-.08.41-.73.47-.67,1-.34.79-.09.39.72.25.85.35.6-.35.69-.14,1-.07.86-.18,1.35.3,1.08-.07,2,0,2.94,0,2.25.26,3,.12,2.26.42,1.85.44,2.15L73,42.45l.34,1.37.16.76-.12,1.3-.11,1.42-.06,1.87,0,1.48v1.49L73,53.75l.45.14.76-.09.84.28h.56l.85-.31.78,0,1,.18,1.2.74-.17.53-.45.48.09.61.3.48.37.64v.76l-.17.69-.32.48-.07.64.76.49.8.25.65-.16.74.17.5.06.3.72.08.74.39.56.54.29.56.54.38-.14.15.58,0,.49.3.43,0,.56v.57l-.34.4,0,.71-.12.66-.3.64L84,68.7l-.44.17-.69-.47h-.6l-.43-.4-.69-.22-.67.19-.49.1-.54-.16L79,67.56l-.49-.4L78,66.77l-.61-.11-.59-.11-.58,0-.65.12-.48.49-.42.1-.54,0L73.52,67h-.45l-.32.37L72,67.8l.21.18.53.22.45.33.54.4.42.48.4.36.42.49.34.38.38.43.28.44-.29.33-.45.16-.52.07-.29.09-1.14.12-.23.54,0,.62-.2.64-.31.2-.28-.11-.3.42,0,.8.12.76.38.74.22.42,0,.26-.31-.15-.31-.18-.36.17-.34.26-.39.22-.35.08-.39-.3-.45-.13-.42-.15-.52-.18-.49-.5L68,76.23l0-.6-.08-.44L67.57,75h-.3L67,74.93l-.15-.22-.1-.4L66.53,74l-.34,0-.32.06L65.52,74l-.44-.21-.36-.25-.3-.17-.31.08-.06.46.08.52.16.37.12.39,0,.46-.11.31-.23,0-.09.25.08.33-.41.42-.07.26.11.38.34.12.49,0,.44.15.37.17,0,.36-.19.25L65,79l-.14.27-.15.11-.31-.16L64.06,79l-.36.21-.08.5.19.43.18.26.18.28-.09.47-.16.52-.06.49.43.28.62.34.3.19.38.07.06.43.22.38-.16.71-.24.37-.29.27-.21.27-.06.28v.52l-.5-.11L64.23,86l-.37.14-.29.56-.21.47L63,87.5l-.38-.07-.31.16-.28.22-.21.07-.23-.09-.2-.09L61,87.64l-.19-.07-.3,0-.24-.15-.21-.12-.27,0-.39-.18-.24.29-.32.07-.46.17-.23.22-.28.37.08.2.22-.13.18-.17.25-.06.35,0,.26.1-.07.19-.12.17-.25.07-.11.28.19.32.36,0,.36.09,0,.11.44.32.36.47.15,1.2L60.4,92l-.46-.28-.48-.12L59.1,92l-.66.46-.27-.14-.27-.35-.48,0-.18-.3,0-.54-.1-.34-.44-.06-.37.2-.42-.21-1.48-.43-.63-.36,0-.37-.43-.38-.77-.1L52,89l-.29-.47-1,0-.46-.08-.39-.25-.19.49-.15.47-.25.42-.08.31L49,90l-1.12.12-1-.14-.41-.15L46,89.5l-.21-.32-.26-.4,0-.37.26,0,.23-.34.18-.53.2-.6.34.12.51-.13.09-.66.24-.22-.33-1-.63.12L46,85l-.64-.13-.52.06-.53.36-.74-.11-.73,0-.35.43-.37,0-.36-.34L41.29,85l-.53-.16-.55-.23-.63-.11-.46-.26-.45-.38-.57-.28-.59.12-.33.54-.13.65L37,86l-.73.16h-.92l-.65-.31-.83-.15-.95.15-.68-.17-.85-.19-.71-.18-.72-.13-.56-.36-.53-.48-.59-.55-.71-.24-.61.12-.53-.33-.66-.66-.53-.77-.52-.7-.35-.7-.25-.74-.14-.85-.41-.74-.18-.69-.12-.61-.1-.44-.4-.2-.21-.39.2-.45,0-.47-.27-.15-.44.17-.28.2-.34-.1-.34-.12h-.31l-.37-.3-.46-.37-.61-.47-.61-.57-.22-.47-.21-.65-.35-.5-.33-.48L17,70.63l-.63-.37-1.08-.54-.06,0-.24-.2L14.63,69l-.15,0,.19.47.19.44.09.59-.17.66-.35.58L12.21,72l-.31.09-.05,0-.19,0-.47-.11-.55-.1-.34.43-.15.85.06.72-.16.65-.58-.27-.64-.36-.4-.19-.16-1v-.92l-.83-.44-1-.71-1-.21,0-.71.2-1.05.19-1.2.13-.57.25-.91L7,66.2l.34-.12.56-1.22.55-.77,1.43-.36-.1-.83.16-1.28-.34-.89L9.33,60l.18-.54.52-.39.92.21.64.13.9.42,1.57.81.37-.11.4.51.22.32.62.21.41,0,.56.44.38.51.41-.61.5-.65-.26-.66,0-.45,0-.29-.29-.71.35-.76.32-.43.15-.73.19-.76.41-.5.34-.4.31-.34.13-.72L19,54.18l-.71-.3-.75-.31-.68-.36-.46-.54L16,51.86l-.28-1.25,0-1.34,0-1,.09-.82.08-.91-.35-1-.77-1.18-2.65,2L12,46.26l-.18.05-.91.75L10,46.49l-1.15-.17-.62-.75,0-.59,0-.64,0-1,.21-1.18,0-1-.1-.89L7.31,39.8l-1.69-.1-.75-1.91L5.1,37l-.68-.59-.1-.68,0-.71.71-.39.47-.74.29-1,.26-1.53-.6-.25-.38.54-.85-.26-.34.86-.7.56-.45-.45-.62.13-.34-.38-.31-.81-.43-.59.45-.25-.45-.82-.85.52,0-.75.06-.91.13-1,.3-1.05.38-.66.61-1.07L2.1,23.6l.35-1,.24-.45L3,21.64l.17-.74,0-.72.08-.8-.07-.94L3,17.18l.12-.7v-.83Z"/><text class="cls-2" transform="translate(22.57 46.31)">Dumka</text></g></g></svg>