<svg xmlns="http://www.w3.org/2000/svg" viewBox="0 0 111.06 127.53"><defs><style>.cls-1{fill:#3DB3F1;stroke:#000;stroke-miterlimit:11;stroke-width:0.4px;}.cls-2,.cls-3{isolation:isolate;}.cls-3{font-size:11px;font-family:Tahoma;}.cls-4{letter-spacing:-0.02em;}</style></defs><g id="Layer_2" data-name="Layer 2"><g id="Layer_1-2" data-name="Layer 1"><path class="cls-1" d="M72.2,115.55l0-1.14-.5-.19-.29-.76-.75-1.07-.23-.49-.52-.49-.24-.76-.35-.48h-.48l-.38.62-.53.59-.53.26-.69.25-.88.15-.26-.3-.13-.4-.39.36-.19.4-.53.23-.58,0-.45-.33-.47-.57-1.16-.71-.51-.13-.62.29-.61-.82-.6.32-.94.27-.23-.52-.14-.57-.26-.33-.5-.27-.47-.59-1-.72-1-.45-2.06-.7-.67-.73-.8-.33-.68-1-.85-.63-2.21-1.17-1.87-1.27L45,101l-.82-.06-.83-.29-.42.48-.52.39-.63.09-.74-.1-.29-.39-.65.09-.08.63,0,.48-.5,1.2.06.71.32,1.12,0,.46-.33.25-.48-.13-.85-.89-.72.31-1.61,0-.79,1.27-.59.34-1,.88-1.32,1.93-.68.76-.7,1-.44,1.54-.46,1.21-.57,1-.41,1.44-1,2.36L27.38,121l-1.05,1.7-.92-.44-.39-.45-.36-.56-.11-.77v-1.51l.08-1.4-.41-.82-1.91-1.11-.56-.21-.36-.31-.45-1.37-.25-.26-.45-.21-.29.29-.55.12.57,1.68.1.69-.37-.07-.36-.6-.5-1.24-.12-.7-.24-.48-.69-.31-.84-.12-.6.33-1,.28-.68.37-.58-.64-.32-.66-.13-.58-.47-.38-.5-.25-.07-1.6-.37-.46-1.18-.14-.82-.35-.7-.58-2.66-.49-.91.35-.41.79-.43.18-.74-.31-.61,1.34-.53.43-.19,1-.51.44-.9.38-.65.07-.66-.79-.13-.32L.27,110l.31,0,.25-.15.81-.75,2.69-1.44.44-.5.06-.83.32-.64.39-2-.08-.71L5,102.1l-.09-.77.28-.47.54-.48L6.61,99l.66-.51.19-.69-.28-.9,1.24-2.8.39-1.41.72-2-.14-1.78.41-.31.23-.73-.46-1.29-.05-1,.12-.64,1.23-.77,1.69-1.41.69-.45.32.23.64-.14,0-1.37L14,80.38l.19-1.27L13.51,79l-.68.12-.63.27-.75-.23-.21-.4.47-1.1L12,75.38l-1.12,0-.24-.43-.6-.58.15-1-.05-.72.29-1.13.54-1.29-.25-2.36-.36-1v-.73l-.28-.72-.67-.64L8.93,64l-.09-1.78-.49-.51L8.24,61l.35-.67,1.11-.88,0-.73L10,58l0-.86L8.8,56.34l.49-.7.26-.74.14-1.27.28-1,.11-1.28-.28-1-.75-1-.46-.88.23-.55.37-.5.05-.48-.32-1.58.2-.6.42-.29.43-.54,1-.19.28-.35v-1l.28-.7.25-1.28-.67-1.35-.31-.39-1.07-.83,0-.35L10,37l.35-.75.47-.2.37-.75.18-1,.28-.69.05-.81,2-1,.13-1.37.25-.79.06-1.45.41-.55-.16-.89-.07-1.07.11-.92.46-.65.48-.47,0-.49-.23-.26.13-.76-.16-.48V21l.3-.22,1.06-.07.33-.49.12-.47-.7-.93-.1-1,.13-.84v-1.8l.82-3.93,1.19-2.15-.38-.3L18.13,8l.38-.44.67-.32.52.21.51.5.46.65.91-.06.27.2,0,.48-.43.84.12.33.5-.06.2-.74.28.47.6-.59,1-.77.73-1.36.58-.52.65.09,1,.36.56,0L28.27,6l.3-.37.32.26.43-.15.16-.55-.08-.66.2-.24V3.78l.52-.32.25.22.17-.51.41-.73.12-.12.36.17.15-.43.19.26.16-.38.82-.29.7.11.3-.39.14-.79.29-.21.23.27h.35l.32.24L36.36.66l.91-.38.14.76.9-.08.43.22.14,1,1.57,1.29.12,0,1.2-.46.39.26.25,1.18L42,5.67l.2.67L43.35,6l.75,0,.64,1,.39.13.27.58,1.23-.51.33.35.28.51.24,1,.33.29.41.05.16.14.39,1.17.11.6.41.53.64.2.74.06,1.18-.66,1,.19.89.43.45-.05.82-.95.45-.17,1.45.07.67.15L58,9.31l1-.4.86.28.56-.64.48-.88.73.11,1.87.53,1.64.28L65.42,8l.68-1.68.25-.84.74-.06,1,.08.69-.33.42.07.19.69.32.4.47,0,.27.41.22.69.3.45.58.22.61.46.57,1,1.19,0,.48.75.33.64-.28.78-.26,1.92.22,1.72.28,1,.39.88.6.6.8.31-.27,1.43-.51.41-.83-.06-.69-.34h-.41l-.55.66L72.76,22l.19.52.79,1.25.55.58.24.68.08.86.33.73.78.43.57.14.33.61.66.27.44-.2.34-.53.3.05.71-.37.36-.82.48-.27.61.08.78,0,1,.25.21-1.42,1.18.33.78-.45,0-.5-.35,0,.13-.48.33-.08,1.07.61.65-.16.46-.24.36-.41.39-.24.33.12.66,1,.47.44h.58L90.19,23l.28-.24.54.53.39.5.32.64v.67l-.27.55-.3.33.15.3.45.38.22.49.07.65,0,.92-.5,1.9,0,.67.47,1.14.07.84.29.8.42.48.12.49-.36.49L91.94,37l.37.54.6.1.7-.29.44.66.58.57.69.42.59,0,.46.43-.81,1.89,0,.67-.22.67-.42.29-.62.11-1.42,1-.27.61.09.48.35.51.56.34.61-.19.51.29,1,1,.37.61-.84,2.46,1.12.9.18,1,1.14.9.53.87.86.56,1.77.89,1.41,1-.28.33.12.81-.11.62-.49,1.38.82.45.18,1.05.4.54,1.57,1.7,1.13,1,.41.07.33-.14.29-.33.33-.05.28.15.11.37,0,.38.26.58.16,1.5-.14.68.26.27.1.51.24,0,.11.36-.16.63.31.26.1.34-.2.5.17.43-.24,0-.05.45L108,71l-.07,1,.17.52L107,74.32l-1.38,1.47.31.7.27.28.66-.63,1,.16.67.7-.13.32-.61.44-.77,1.11.26.37v.46l.29-.09,0,.17.66.67.28-.14.45.19.35-.49.43.34.19-.37.54-.1.31.06.11.28-.35.37-1,.08-.1.3-.21.18-.41.25-.38,0-.39.18-.78.54-.86,1.15.2.4-.15.3-.33.55-.47.29-.82.84,0,1.35-.38.75-1.25,1.2.16.7L104,90l.77,1.62.8,1.16,2.55,2.32.85,1.33.12.55-1.24,1.74-.23.67.06.59-.18.82-.79.92-.48.85.05.35-.06.73-.46.74,0,1.14.11.41.67,1.05-.22.57-.82,1.2-.35,1-1.06,1.4-.18.46v.46l-.22.68-.42.69-.4,1-.42.74-.56,1.65-.45.89-.22.62-.71,1.16-.22.58-.42.34-.57-.11-.45-.27-.4.28-.15.46-.41.59-.76.69.09,1.13-.4.91-.2,1.22.25.52-.05.28-.49.4.16.63-.06.21h-.27l-.9-1.62-.32,0-.52.43-.46.08H92.94l-2.53-.32-.69.08-1.23.49-.65.39-.41,0-.29-.18,0-.56-.07-.67-.28-.11-.78.1-.44-.2-1.74.43-.21-.11-.18-.23-.95-.37-1.1-.84,0-1L81,121.53l.26-.89.33-.44,1.07-.94.36-.49.35-1.11-.59-1-.21-.53-.1-.57L84,112.72l.29-.74.92.38.62.38L87,113l1.71-1-.28-.79-.33-.62-.62-.34-.37-.44-.69.13.67-1,0-.43-1.32-1.21-.5.63-.34.12-.32.7-.69.19-.54.77-.59.44-.87.28-.75.45-.59.8-.18.67-.45.63-1.27.74-1.2.89-.5.05-.49.19h-.52l-.33.27-.9-.34-.84.1-.67,1Z"/><g class="cls-2"><text class="cls-3" transform="translate(31.19 63.8)"><tspan class="cls-4">P</tspan><tspan x="5.81" y="0">ashchimi</tspan></text><text class="cls-3" transform="translate(31.19 77)">Singhbhum</text></g></g></g></svg>