<svg width="199" height="55" viewBox="0 0 199 55" fill="none" xmlns="http://www.w3.org/2000/svg">
<g clip-path="url(#clip0_2395_2388)">
<path d="M171.5 0H27.5C12.3122 0 0 12.3122 0 27.5C0 42.6878 12.3122 55 27.5 55H171.5C186.688 55 199 42.6878 199 27.5C199 12.3122 186.688 0 171.5 0Z" fill="url(#paint0_linear_2395_2388)"/>
<path d="M166 45C175.389 45 183 37.165 183 27.5C183 17.835 175.389 10 166 10C156.611 10 149 17.835 149 27.5C149 37.165 156.611 45 166 45Z" fill="white"/>
<path d="M26.9295 37H24.5152L29.94 21.9256H32.5677L37.9924 37H35.5781L31.3164 24.6637H31.1986L26.9295 37ZM27.3343 31.0968H35.1659V33.0106H27.3343V31.0968ZM40.1693 37V21.9256H45.5425C46.7152 21.9256 47.6868 22.1391 48.4572 22.566C49.2276 22.9929 49.8042 23.5768 50.187 24.3178C50.5697 25.0538 50.7611 25.8831 50.7611 26.8057C50.7611 27.7331 50.5672 28.5673 50.1796 29.3082C49.7968 30.0443 49.2178 30.6282 48.4425 31.06C47.6721 31.487 46.703 31.7004 45.5351 31.7004H41.8401V29.772H45.329C46.07 29.772 46.6711 29.6444 47.1323 29.3892C47.5936 29.1291 47.9322 28.7758 48.1481 28.3293C48.364 27.8827 48.4719 27.3749 48.4719 26.8057C48.4719 26.2364 48.364 25.731 48.1481 25.2894C47.9322 24.8478 47.5911 24.5018 47.125 24.2516C46.6637 24.0013 46.0552 23.8762 45.2996 23.8762H42.4437V37H40.1693ZM53.4274 37V21.9256H58.8006C59.9734 21.9256 60.945 22.1391 61.7154 22.566C62.4858 22.9929 63.0624 23.5768 63.4451 24.3178C63.8279 25.0538 64.0192 25.8831 64.0192 26.8057C64.0192 27.7331 63.8254 28.5673 63.4378 29.3082C63.055 30.0443 62.476 30.6282 61.7007 31.06C60.9303 31.487 59.9611 31.7004 58.7933 31.7004H55.0983V29.772H58.5872C59.3281 29.772 59.9292 29.6444 60.3905 29.3892C60.8518 29.1291 61.1903 28.7758 61.4062 28.3293C61.6222 27.8827 61.7301 27.3749 61.7301 26.8057C61.7301 26.2364 61.6222 25.731 61.4062 25.2894C61.1903 24.8478 60.8493 24.5018 60.3831 24.2516C59.9219 24.0013 59.3134 23.8762 58.5577 23.8762H55.7018V37H53.4274ZM66.6856 37V21.9256H72.0588C73.2267 21.9256 74.1958 22.1268 74.9662 22.5292C75.7415 22.9316 76.3205 23.4885 76.7033 24.2C77.086 24.9066 77.2774 25.7237 77.2774 26.6511C77.2774 27.5736 77.0836 28.3857 76.6959 29.0874C76.3132 29.7842 75.7341 30.3264 74.9588 30.7141C74.1884 31.1018 73.2193 31.2956 72.0514 31.2956H67.981V29.3377H71.8453C72.5814 29.3377 73.18 29.2322 73.6413 29.0212C74.1075 28.8102 74.4485 28.5035 74.6644 28.1011C74.8803 27.6987 74.9883 27.2154 74.9883 26.6511C74.9883 26.0819 74.8779 25.5887 74.6571 25.1716C74.4411 24.7545 74.1001 24.4356 73.6339 24.2147C73.1727 23.989 72.5667 23.8762 71.8159 23.8762H68.96V37H66.6856ZM74.1271 30.1989L77.8515 37H75.2606L71.6098 30.1989H74.1271ZM93.1394 29.4628C93.1394 31.0723 92.8449 32.4561 92.2561 33.6142C91.6673 34.7673 90.8601 35.6555 89.8345 36.2787C88.8138 36.897 87.6533 37.2061 86.3529 37.2061C85.0477 37.2061 83.8823 36.897 82.8567 36.2787C81.836 35.6555 81.0313 34.7649 80.4424 33.6068C79.8536 32.4487 79.5592 31.0674 79.5592 29.4628C79.5592 27.8533 79.8536 26.472 80.4424 25.3188C81.0313 24.1608 81.836 23.2726 82.8567 22.6543C83.8823 22.0311 85.0477 21.7195 86.3529 21.7195C87.6533 21.7195 88.8138 22.0311 89.8345 22.6543C90.8601 23.2726 91.6673 24.1608 92.2561 25.3188C92.8449 26.472 93.1394 27.8533 93.1394 29.4628ZM90.887 29.4628C90.887 28.2361 90.6883 27.2031 90.2908 26.364C89.8983 25.52 89.3585 24.8821 88.6715 24.4503C87.9894 24.0136 87.2166 23.7952 86.3529 23.7952C85.4844 23.7952 84.7091 24.0136 84.027 24.4503C83.3449 24.8821 82.8052 25.52 82.4077 26.364C82.0151 27.2031 81.8189 28.2361 81.8189 29.4628C81.8189 30.6896 82.0151 31.7249 82.4077 32.569C82.8052 33.4081 83.3449 34.046 84.027 34.4827C84.7091 34.9145 85.4844 35.1304 86.3529 35.1304C87.2166 35.1304 87.9894 34.9145 88.6715 34.4827C89.3585 34.046 89.8983 33.4081 90.2908 32.569C90.6883 31.7249 90.887 30.6896 90.887 29.4628ZM96.5436 21.9256L100.739 34.203H100.908L105.104 21.9256H107.562L102.138 37H99.5099L94.0852 21.9256H96.5436ZM109.739 37V21.9256H119.19V23.8835H112.014V28.4765H118.697V30.427H112.014V35.0421H119.278V37H109.739ZM127.108 37H122.228V21.9256H127.263C128.74 21.9256 130.008 22.2274 131.068 22.831C132.128 23.4296 132.94 24.2908 133.505 25.4145C134.074 26.5333 134.358 27.8754 134.358 29.4407C134.358 31.011 134.071 32.3604 133.497 33.489C132.928 34.6176 132.104 35.4862 131.024 36.0947C129.944 36.6982 128.639 37 127.108 37ZM124.503 35.0127H126.983C128.131 35.0127 129.086 34.7967 129.846 34.3649C130.607 33.9282 131.176 33.2976 131.554 32.4733C131.932 31.644 132.121 30.6331 132.121 29.4407C132.121 28.2581 131.932 27.2546 131.554 26.4303C131.181 25.6059 130.624 24.9802 129.883 24.5533C129.142 24.1264 128.222 23.913 127.123 23.913H124.503V35.0127Z" fill="white"/>
<path d="M158 28.3889L163.147 33.5L174.727 22" stroke="#00C57A" stroke-width="2.09091" stroke-linecap="round" stroke-linejoin="round"/>
</g>
<defs>
<linearGradient id="paint0_linear_2395_2388" x1="0" y1="27.5" x2="199" y2="27.5" gradientUnits="userSpaceOnUse">
<stop stop-color="#12743B"/>
<stop offset="1" stop-color="#00C67B"/>
</linearGradient>
<clipPath id="clip0_2395_2388">
<rect width="199" height="55" fill="white"/>
</clipPath>
</defs>
</svg>
