<svg xmlns="http://www.w3.org/2000/svg" viewBox="0 0 71.73 72.51"><defs><style>.cls-1{fill:#3DB3F1;stroke:#000;stroke-miterlimit:11;stroke-width:0.4px;}.cls-2{isolation:isolate;font-size:8.31px;font-family:Tahoma;}.cls-3{letter-spacing:-0.01em;}</style></defs><g id="Layer_2" data-name="Layer 2"><g id="Layer_1-2" data-name="Layer 1"><path class="cls-1" d="M71,64.32l-.36-.06-.42.2-.42.64-.26,1.49-.16.62-.26.56,0,1.3.12,1.86-.75.89-.34-.09-.5-.51-.24.17.09.61-.44.23-.33-1-.35-.56-1-.87.07-1.09-.35-.57-.44-.3-.65-.2H62.8l-.28.61h-.43l-.37-.73-.39.09-.93-.12L60,67l-.54-.06-.25.11-1.32-.27-.94.3-.27.66-.57.46-.5.22-.32-.18-.24-.49-.65.81-.3.74-.34.1-.45-.09L53,69l-.43-.16-2.28-.45L49.23,68,49,67.2,48,66.58l-.36-.46-1.55-.06-.62-.18-.64-.33-.48-.49-1.49-.86-.63-.48-.09-1-.89-.39-.51-.43-.43-1.12-1.11-.84-.78-.77-2-3.23-.49-.24-.66.06L34.7,56l-.29.75-.25-.06-.59-.55-.45-.87L34,52.72l-.1-.58-.26-.63-.05-.75-.24-.26-.54.1-.39.56-.83.29.09.41.53.7.37,1.1L32.65,55l-.53.46L31.24,55l-.85.11-.64-.71-.45-.75.46-.8,0-.43-1.64-1.18-.22.44.18.45-.07,1-.83.39-1.15.73h-.67l-1.85-.68-.87-.74-.61-.21-.38.65-.58.15-.54-.08L20,53.18l-.33-.57-.36.49-.23,1.12L17.44,53,17,52.58l-1.65.06-1,.4-.4-.13-1-1.15-.53-.28-1.06-.37L10,50.93l-1.72-.72L7.38,50l-.5,0-.16-.14-.07-.41-.22-.41-2-1.26.06-.92L4,45.75,3.57,45l0-.46-.4.09-1.89-.07-.55-.36L.22,42.65l0-.8.14-.6.64-1,.24-.64.84,0L2,39.16l.22-.26L2,38.11l.36-1.26.33-.1,1-1,0-.41-.19-.14-.63.32-.43-.17-.28-.59.33-1.24-.13-.2.83,0,2.61.27,1.68.72,2.59.44,1.32-.58,1.86-.88,1.7-.24,1.28.7,1.8,1,1,.37L21,36l1.15.85,2.77-1.15,1.46-.73.14-1.32-.11-2.95.4-.69.17-.52.36-.13,0-.2.33-.48.26-.38.3-.5.6-1.07.29-.58.28-.58,0-.35-.08-.6-.24-.41-.4-.44-.13-.31-.23-.62-.54-.52-.19-.19-.37-.29-.12-.18-.2-.28,3.94-2.29,1.64-3.66,1.82-3.87,2.5-4,3-3.6L43,2,46,.22l.42.19-.1.22,0,.57.26.34.74.45,0,.61.33.26.15.27-.29.3-.73.45-.27.54-1,.52L45,5.36,43.76,6.45l-.8,1-.23,1.22v.74l.24.49L43.33,11l-.13.8L43,12l-2.22,1-.43.29-.35.52-.29.8.93.49,0,.46L41.22,17l.09.47-.44.88.25,1.16.31.57.35.26.14.49.37.15.17.21.27,1,.53.23.39-.07.54-.54.83-.5.26-.38.42-2.17h.52l.51-.15.25.17L47.12,20l-.44.82,0,1.31-.14,1.1-.78.64-.41.66-.42.49-.14.43-.29.44-1.4.65V29l.45.66.12,1.55,0,1.39L43.51,34l-.22.41-.78.9v.38l.8,1.29v.63l-.26.4.07,1.31L43,44.22l.11.91.35,0,.37.18.39.38.57,1,.23.61.37.32.78.43.33.31.7.22.88-1.39.25-.59v-.39l-.14-.43.16-.37.36.06.22-.25-.08-.31.32-.35.5-.11.12-.39-.09-.47.12-.48.38-.17.37.33.51.51.79-.56.28.13.24.73.67.71.29.06.51-.31.47-.88.48-1.55.38-.33.49.09.45-.13,1.13-1,.42-1.1L57.9,38l.27-.82.33-.07.4.32.33.7.23.81,0,.49-.2,2.33.31.65.75.28.24.32.14.61.81.7-.42.91.51.26-.12,1.05.45-.3.08.07.24.77.37.28.27.84.34.57.09,1.29.48,2.43.41.06.41-.1.32.27.9-.09.62,1.1.18.59-.25.07-.22,1-1.2.47-.32.49.78,1.44.43.07.66.47.13.45-.36,1-.07.55.07.44.31.34.65.14.46,0L68.1,61l.47-.37h.29l.41.17.22.35,0,.27.77.2.1.37.48.31.08.27.21.07.09.18-.14.32.42.2v.28Z"/><text class="cls-2" transform="translate(18.83 43.08) rotate(23.45)"><tspan class="cls-3">R</tspan><tspan x="5.08" y="0">amgarh</tspan></text></g></g></svg>