<svg xmlns="http://www.w3.org/2000/svg" viewBox="0 0 74.4 60.03"><defs><style>.cls-1{fill:#3DB3F1;stroke:#000;stroke-miterlimit:11;stroke-width:0.4px;}.cls-2{isolation:isolate;font-size:11px;font-family:Tahoma;}</style></defs><g id="Layer_2" data-name="Layer 2"><g id="Layer_1-2" data-name="Layer 1"><path class="cls-1" d="M1.57,21.63l.08-.72L2,20.6l-.17-.87L2.25,18l.31-.73,1.53.22.9-.39.47,0,.79-.65.84-.33h.56l1.22-.45.75.08.81.4,1-.18,2,.4.42.18L15.24,18l.39.17.64,0,.58-.35.55-.12,1.35,2.62L18.47,16l1.12-2.9.21-1,.23-.49-.2-.86L20,9.8l1.07-1,.81-1.23.32-.6.19-.34.42-.42L23.24,6l.48-.11.2-.33,0-.35-.05-.43-.5-.14-.49-.09-.35-.2L22.27,4,22,3.74l-.2-.22.1-.25.81-.41.5-.16.14-.15L23.23,2l.25-.41-.17-.35.76-.3.56-.13.5.23.68.35.84.08.46-.39.45-.71L28.05.2l.53.09.35.61.28.92.57,1,.78.36.87.42,1,.68.43.08.68-.16.67-.12.54.16.52.39.67.71.67.41.72.2.32.37.37.29.3.28.26.13.32,0,.24-.12.31-.2.17-.11.22-.07.19,0,.17.13.21.2.16.23.26.38,1.35.92.73.2,1.84-.91,3.3.57.62.33.74,1.24,1,1.35.36.8,4.38,3.19.53.82,1.12.81,1.48.48,1.84,1.54,1.74.35.63.84.7,1.38.26,2.08.29,1.11.66,1.06.3.27,1-.94.57-.35,1.77.74.4.33.38.5.44.84.54.51.42.66,1.22,3.45-.06.57.54.45.37,1.49-.34,2.16L73,37.65l.87,1.68.31,2.09,0,1.23-.34,1h-.46l-.38.14-.36.55L72,47.63l-.51,1.43-.27,1,.22.49.28.21-.38.85-2,.76-1.48.47L65.71,53l-.23-.21.07-1.34L65,50.76l-2.15-.48-1.79.37L60,51.32l-1.52.51-2.07.44-1.61,1-.93.41-.89.16-2.52.07-.38.28.06.51.22.44-.79.47-1.85,1.75-1.38.85L44.83,59l-.91.78-.52.09-1.22-.1-1.06-.35L39,58.9l-1,.53-.54.23-.61-.15-.71-.79-.18-.2-.49-.4-1.82-.44-.87-.34-.43-.5L31.4,55.4,31,55.21l-.47-.05-.72.31-.39.07L29,55.32l-.72-1.07-.13-1.76L27.89,52l-1-.41-.13-.57L27,49.42l-1,0-1.49-.23-.48,1.08-.36.09-.89-.05-.25-.3v-.32l.23-.64v-.9L22.57,47l-.76,1-2.14-3.26-2.29-.82-3.67.41-2.75.2L9.13,46.16l-2,.82-1-.73,0,0,.9.07.26-.57.55-.33,0-1.23.29-.67L8,41.83l-.52-.47.24-.68-.26-.36-.48-.26-.36-.35-.14-.37.07-.82-.64-.31-.34-.49-.16-.62-.21-1.17.35-1.53-.25-2.23-.44.12L4.16,32l-.57.25L3.37,32l-.17-.53-.53-1,.06-.25L3.07,30l.17-.4-.37-.58-.07-.33.22-.5-.09-.41-.6-.29L2,27.62,1.59,27,1,27l-.16-.29L1,25.8l-.24-.38-.07-.36L1,24.6,1,24.09l-.47.24-.25-.07-.1-.34L.81,23l.36-.26.35-.7Z"/><text class="cls-2" transform="translate(13.94 36.81)">Dhanbad</text></g></g></svg>