<svg xmlns="http://www.w3.org/2000/svg" viewBox="0 0 94.95 124.49"><defs><style>.cls-1{fill:#3DB3F1;stroke:#000;stroke-miterlimit:11;stroke-width:0.4px;}.cls-2{isolation:isolate;font-size:12px;font-family:Tahoma;}</style></defs><g id="Layer_2" data-name="Layer 2"><g id="Layer_1-2" data-name="Layer 1"><path class="cls-1" d="M65.1,120.53l-1.35-2.61-.55.12-.58.35-.64,0-.39-.18-1.41-1.5-.43-.17-2-.4-1,.18-.81-.4-.75-.08-1.22.45h-.57l-.83.33-.8.64-.46,0-.91.39-1.53-.23-.3.74-.46,1.71.17.87-.31.31-.09.72-4.51-1.55L38.66,120l-2.44,1-1.37.69-.24-.22h-.8l-.35.7-.85,1.16-.2.87-.32-.07-.23-.22-.4-.63-.23-.13,0-.74-.27-.78-.21-.35-.3-.39-.5-.17-.28-.39-.13-.47.06-1.21-.17-.39-.63,1-.71.63-.22-.15-.25-.94-.18-1.55-.34-.83-1.35-.29-.07-1.13.15-.25.85-.12.65.12.44-1,.06-.94L27,111.6l-.52.09-.15-.46-.49-.07-.22-.43-.78-.41-.42-.06-.39-.5-.21-1.64-.1-1.21-.42-.65-.44-.34-.4-.14.1-.78.77-.8v-.33l-1.08-.05-.22-.56-.24.08-.27-.08-.15-.53.07-.52-.32-.56-.21.12-.27-.21.21-.46-.22-.3-.51.36-.36,0-.72-.41,0-.39-.38-.26-.17-.26.31-.55-.26-.27-.49.4h-.19l-.41-.25-.07-.46L17,98.34l-.61-.45-.47-.17-.24.14-.85,1h-.45l-.81-.24-.25-.25.43-1.21L13,96.88l-1.32-.7-1.27-.93L11,93.81l-.76-.3-.44.5-.44.25-1-.32-.72,0-.5.39-.29.36-.28,0-.39-.4-.9,0L5,94,4.2,94l.21-1.3,0-.66.29-.65-.48-.86-.64-.72L2.18,88.42l-1-.55-.91-1,.35-.73.15-.84.07-.85.35-1.29,3.47-1.42,1.4-.4.49-.31.17-.61V80h.73l.4-.21.61,0,.94-.38.73-.89.82.44L12,78.51l1-.61.53-1.28.27-.26.66.78.42.34.68.89.19-.31.87-.52.79.1.91-.15.21.14.4.57.37.2.35-.26-.45-.69.06-.77.22-.77,0-.88L19,73.21l-.17-.39-.41-.16-.58,0-.49-.13-.15-.6,1.86-1.88.59-.79.07-.47v-.09L20,68l1-.36v-.72l.17-.71-.32-1,.08-.7-.25-.18,0-.37.14-.51v-.68l-.17-.69-.28.08L20,62l-.52.05L19.12,62,19,61.26l-.58-.89v-.75l.29-.68.09-.52.43-.89L19,56.81l.11-.67-.37-.5.31-1.37L19,53.73l.22-.82-.3-.86,0-.53.41-1.26-1.21-1.09L17.7,49l-.16-.31-.46-2,0-.46.72-.79.47-.59.53-.47.24-.51.26-.27,1-2.92.41-1.84-.28-1.38.4-1.93-.14-.4-1.36-1.37L18,32.58l-.43-.22-1.08-.21-.89,0L15,32l-.24-.17-.18-.7L14.26,31l.21-.83-.11-.61.11-1L14,28l-.76-1.64v-.94l.21-.68.5-.71.22-.54-1.41.7-.39-.15-.95-.61-.59-.1-.4-.35-.3-1.34.17-.47.9-1.33.51-1.15.55-.61.1-1,.42-.86.55-.63.58-.46.91-.1,1.89.89.63-.31.73-.1.11-.31-.5-1,0-.68-.33-.13-.1-1-.32-.75-.09-1.1-.2-.72-.63-.63-.12-.89.26-1,.82-.74.89-.32.92-.2.76.09.31-.6.49.11.29.45,1.2-.22.82.22.9.37L23.65,6V5.63L23.1,4.7l.1-.81.71-.08.31.09.14-.19,0-.14,1-.72.62,1,1.08,1.27.7.56,1.56.84.8.32L31.18,7l.57-.08.42-.18.27-.38L32.77,5l.14-.23,2.36-.52.64-2,.36-.32.46-.14.59.17.32-.23.53-.12.41-.34.28-.48.47-.07.42-.1.51-.12.28-.18.21.89,0,.76v.82l-.33.83L40,4.15l-.39.55L39,4.78l.08.49.24.35.38-.36L41,4.92l.56-.19.29-.55,2.43.74,2,1.44.39.52L46.82,8l.52.72.28,1,.6.9.48,2.1L49,14.07l.16.67-.37.57-.42.09.26.67-.22,1.63-.34.87-.5.84L48,21.05l0,.85.12.59.25,1.09.54.4.26.75,1.18.06.79.47.49,1.45.91.77,3-.21,2.16-.83.09-1.61.09-1.25,1.34,1.32.88.76.43.65.59,1,.93.28.42.86.27.15.22-.85.36.58.39.3.36.19L64,28.12l-.25-.51.69-.2.83,0,.45-.24.93.4.88.22.22-.6,1.11.25,0,.49-.43.23.09.62-.88.87-.3.34.18.36-.6.67.6,1.52-.17.9-.71,1.23.21.59.43.19.32,1.74.19.74-.28.29-.64,1.13-.2.65-.35.63,0,.9-.41.84L65,42.3l-.39.88-.28,1.18,2.27.72-.22.35.08.73.43.58,1.23.13.41.52h1.38l1.57,0,.3-.45.29.23,1,2.12.53.35.56,1.17.83.48,1.82,1.68.24.55,1.52,2.37,1,.15.58.28.36-.1,1.26,1.16.61,0,0,.18.11.49-.11.66.11.58.4.24.61.22.08.18-.07.58-.25.51-.2.35-.27.49.11.62.61.18.3.23.31.28,0,1-.07,1,.27.42.16.55.06.67.3.56.54.21.16.94.23.4.5.32.62.13.56.14.28,1,.11.77L88,72l.08.72,0,1.4.25.77.15.68-.49.56.13.65.45.9-.48,1L87.92,80l-.41.55-.37.54.14,1-.07,1.16-.51,1.17L86.25,86l-.71,1.51.94.2.61.17.52.23h.65l.54-.22.5-.53.26-.44.42.21,1.19.36.57.18.62-.44,1.16.89,1,1.05-.55.09-.26.61,0,1.13-.34.48L93,93.14l-.29,1.3-.26.41-.41.39-.39,1.56L91.59,98l-.36.63-.55.51-.33.8-.26.89-1.21.46-.57.22-.91.26-.82.73-.61-.13-.42.18H85l-.37,1.34.07,1.17.61-.47v.83l-.54.18-.72.27-.39.31-.72-.2-.68-.41-.66-.71-.53-.4-.54-.16-.66.12-.69.16-.42-.07-1-.68-.88-.43-.77-.36-.57-1-.28-.92-.35-.61-.53-.09-.49.14-.46.71-.46.39-.84-.09-.67-.35-.51-.22-.55.13-.76.3.17.35-.25.41.06.58-.13.15L69,103l-.82.42-.1.24.21.23.31.2.31.4.35.2.48.09.5.14,0,.43,0,.35-.21.33-.47.1-.4.22-.41.43-.19.34-.33.6L67.45,109l-1.06,1-.21.89.2.86-.23.5-.21,1-1.12,2.9Z"/><text class="cls-2" transform="translate(29.04 91.21)">Giridih</text></g></g></svg>