<svg xmlns="http://www.w3.org/2000/svg" viewBox="0 0 102.42 125.52"><defs><style>.cls-1{fill:#3DB3F1;stroke:#000;stroke-miterlimit:11;stroke-width:0.4px;}.cls-2{isolation:isolate;font-size:11px;font-family:Tahoma;}</style></defs><g id="Layer_2" data-name="Layer 2"><g id="Layer_1-2" data-name="Layer 1"><path class="cls-1" d="M94.9,83.93l.06,1-.41.66,0,1.52.15,1.41L95,89.7l.57.32,1.23-.45.92-.15,1.28.39.63.46.5.91.54.56.42.75.48-.26.51-.06.08.57-.26,1.38.21.35.13.42-.09.62-.42,1.41-.2.19,0-.9-.84-.69-.57-.18-.55.35-.35.85-.54,2.58.71,0,.23.15,0,1.22L99.25,103l.5,1.6.89,2.26.16.26,0,1,.33.5.29,1.63v.93l-.1.87-.37.2-.28,0-1.67.41-.63,2-1.08.4-.51.5-.62.51-.6-.07-.53-.34-1.42-1.75-.5.35-.56.86-.33,2-.72,1-.77.16-.41.33-.06.67-.33.51-.71.58-.77.37-.63-.43-.3-1.08-.55-.37-.62-.26-.3-.89-.7-.49-.67-.32-.36.4-.08.93.13,1.12.64,1.42.76,1.38v1.19l-.24.46-.59-.2-1-.83-.51-.61-.1-.62-.33-.78-.7-.73-.48.2-.39.82.14,1.17.34,1.6,0,.88-.57.63-.95-.32-.55,0-.33-.79-.42-.08-.42-.56v-1.17l.58-3.32-.07-2.41-.5.07-.21.43-.2,1.29-.74-.58-.15-2.54.51-1.36-1,.11-.66,0-.82-.31-2-1.13-.57-.1-.4.56-.34.92-.67.55,0,.61.39-.07v.43l.44.76.21.17-.39,1.18-1.49-.18-.84.44-.3.68-.1.81.07.52-.36.87-1.78.82-.9-.25-.14.49-.4.77-.6.1L64.5,122l-.32-.92-.46.88-.95.35-1.54-.16-1.6.2-.22.6.09.46-1.3,1.37-.64-.16-.75-1.12-.63-.6-.44-.2-1.07-.22L55,122l.2-.92.47-.73L55,120l-.91-1.61-.58-.63H53l-.32.26-.1,1.52-.19.69-.67.29-.07.53-.5-.43-.48-.82-.45-1,.44-.69.64-.11.61-.62h.56l1.16-.2.44-.49.37-1.06-.18-1.34-.54-.57-1.87,0-.5-.51-2.53-.1.15-3.6L45.93,108l-1-.13-.82-.24-.59.2-.07.35,0,2.61-.58.62-.55.18-1.14-.39.49,1.41,0,1-1.26,1.85-.37,1.9-.22.3-.41,0-.59-.71-.44-.74-.73.08-.46.13.17.71-.29.41-.86.3-.49.58-.3.65-.55-.18L33.19,118l-.23.23.47,1.23-.45.57H31.82l-.63-1.22-.66-1-.5-.22-.71-.1-2.22-1.12-.06-.81.34-1.45.62-.9.57-.2.18-.47.67-.07.18-.6.09-1,.54-.94.27-2.62-.18.13,0-1.2.2-.78.95-1.41.58-.1.34.17.4,0,.6-.55,1,.35,1.24-.54v-.61l.16-.44.47-.21.1-.32-.11-.76.24-.9v-.73l-.16-.64-.4-.09-.2-.44.55-1.06,1-1.06.35-1-.06-2.08-.27-.51-.47-.46-.28-.44-.15-.42V89.87l-.14-.64L36,88.42l-.3-.4-.94.07-1.38-.18-.48.3-1.23-.76-.69,0-.72.38-.39.6-.8.66-1.81.81-1.12.06-.7-1.35-.31-1.12.23-.71,0-.65-.37.13-.6,1.09-.78.88-.38.31-1-.2-.43-1-1.1,0-1,.5-.22-.13-.31-1.24-1.14-1.73L17.65,84,18,82.46l-.18-.53-.87-.66-1.13.16-.24.28-.14,1.2-.29.65.14,1-.08.22-.47.52.2,1.36L15,87.74l-.36.85-1.38.91-.69.07L12.11,88l.16-1-.09-.78-.61-1.43-.11-1.08L10.88,82,10.35,81l-.21-.65-.1-.82,0-1.16.15-1.18.11-.47.51-.9.1-.56-.08-1.4-.16-.56-.31-.5-1.07-.14-.38-.14-.23-.68-.56-1L7.31,70l-1-.65-1.19-.05-1,.38-.55-.38-.26-.38L3,67.82l-.28-.52-.79-.84-.55-.22-.42-.4-.24-.48,0-.6-.32-.92L.2,63.22l.22-1,.27-.93.58-1.48L1.75,59l.72-.69.55-1,.23-1,0-.61L2.75,55l-.12-.45,0-.66.19-1.8-.37-.94.08-.78.81-3.82V45.4l.11-.55.31-.46L3.82,44l-.46-1.67.05-.55,1.08-3L6.58,39l.47-1.1.76-.45.68-.25L8.65,37l.16-.85,1,.78.43,0,.46.73.44.28,2.68,1,2.82.85.25-.08.54-1.47.44-.22,2.19-.41.31-.35,1.42-.8.28-.65.59-2.22.88-1.26-.1-.74L22.81,29l-.08-.77.07-.62L23,27l.08-.85-.19-.85-.56-1.66,0-.78.25-.82.83-.87,1-.58.81-.69,0-.44.75-.87.42-2,.17-.32.26.1,1.27,1.16,1.24.12,0-1.13.06-.16,1-.29.07-.69-.07-1.54-.17-.95.35-1.49-.19-1.34,0-1.82-.1-.88L29.71,5l-.07-.62,1.65-.57.61-.35.34-.42-.31-1.54.44-.16.6-.6.55-.26.29-.28,1.77.52.59-.36L37.36,1l.58-.12.87.58L42.44,3l.38-.67.39,0,.18-.25.19-.08.09.35-.21,1.13,1.16.35.54.46.27.44-.06.85-.81,4.28-.05.68.07.54.71,1.3.12.9-.12,1.3,0,.95.57,1.47-.07.33-.61,1-.5,1.41-.29.42L44,20.5l-.52.62-.44.34-.6,1.59L41,24.73l-.29.4-.13.43,1,1.67,1,1.3.34.23.51.06,1.21-.69,1.25.61.57,1.2-.38.39-.41.68,0,1.78-.08.61.24.69.44.67.74.56.65.32.75.2.14-.38V33.78l.12-.63.28-.54.84-1.16.69.31.18.49-.11,1.18.59.56,1.27,2.4.71.41.8-.13.46-.21.49,0,.49.24.66.62.57,1.37,1.17,1.42.69.33,1.21.38.75-.63.36.29.41.67.64.77.73.23.94-.13.65-.52.85.36.53-.86.71-.09.38-.53.35,0,.33.37h.4l.31.6.45.47h.62l.75-.15.6-.17.5-1.22,2-1.53,1,0,.48,1,.39.35,1.8.28.94,0,.71-.21.11.56.41.36.06.34-.44,2.17-.18,1.85.07.27.16.18h.32l1.3-.2.86-.29.15-.33.19-1,.15-.19.32-.13.74,0,1.12-.25.41-.5.26-.55.09-.78.27-.44.36-.31,1.3,0,.51.26.56.45,1-.71.7-.14.73-.41.76-.62.59-.31.6.86.38.06.63,1.29-.06.28-.3.38-1.13,1.24-1,1.65-.24,1L90,47.81l.05.76.23.18.81.25.6.45,0,.32-.32.31.14.89,1,.62.83.31.87.75.53.11.63.38.09.44-.07.76-.59,1.34-.62.16-.32.84-1.74,1-.38,0-.23.12.09.42.29.24.83.39-.1,1.41-.39,1.2L90.8,61l-.72-.1-.54.45-.24.88L89.13,64l-.47,1.36.14.9.34.51L89,68.17l.08.36.84.89.13.26-.51,1.42L89.07,71l-2,.25-.19.54.09.62.34.72.31,1,.09,1.26.34.39,1.73.76.71.6.08,1,.72.77.26,1,.36.87.34.27.48-.14.43,0,.25-.23-.06-.69.2-.07.21.23.3.5.55.63.06.26-.53,1,.18.45.49.33Z"/><text class="cls-2" transform="translate(36.04 75.61)">Gumla</text></g></g></svg>