<svg xmlns="http://www.w3.org/2000/svg" viewBox="0 0 103.68 100.94"><defs><style>.cls-1{fill:#3DB3F1;stroke:#000;stroke-miterlimit:11;stroke-width:0.4px;}.cls-2{isolation:isolate;font-size:11px;font-family:Tahoma;}</style></defs><g id="Layer_2" data-name="Layer 2"><g id="Layer_1-2" data-name="Layer 1"><path class="cls-1" d="M95.24,68.42h-1l-.4,1.83-.41.12-.27.4-.62-.14-.37.86-.32.33-3.32-1.48-.11-.55.19-2.39-.2-.48-.34,0-1,.85-.46,0-.29-.46.09-1.5L86,65.67l-.29.3-.08.6-.06.88.11.57-.15.78,0,1.36-.26.07-.54-.15-.25-.47-.15-.73.36-1.6,0-.79-.92-.21-.26-.22-.09-.79-.56-.35-.17-.34,0-1.15-.32-1-.49-.62-.58-.28-.54-.13-.26-.28-.13-2.33-.17-.62L80,58l-.12-.49-.28-.36-.43-.2-.37.19-.14.51,0,1.47-.18.43L78,60l-.55.18L76,61l-.72.21-.61.47-.52.26-.35,0-.15-1.82-.49-.57-1.1-.63-.17-.49-.14-1.65-.2-.89-.43-1-.67-.85L70,53.32l-.31-.17-.36.37L67.92,54h-.39l-.43.36-.29.07-.34-.19-.86-1.16-1.17.36.08,1.49-.44,1.85-.27,3-.1.37-.45.18-1.4.15-1.22-2-.1-.37.22-.86v-.68L60,55.43l-1-2.38-.24-.2-.61.24L57.89,53,56,52l-.41-.06-.9.38L54,53.68h-.95l-.59.24-.58.62-.8,1.39-.18.77,0,.79.23.67v.47l-.61-.06L50.07,58l-.67-.49-.4-.16-.34.41-.4.23-1.5-.2-.54-.38-.33-.52-1.69.33,0,.6.2,1.55,0,1,.33.8-.14.69-.59.12-1.18-.59-.59.37-1.77-.53-.29.28-.55.27-.61.59-.43.17.3,1.53-.33.42-.61.36-1.65.56.07.62.58,2.37.1.87,0,1.82.18,1.35L36.85,74l.16,1,.08,1.54-.07.69-1,.29-.06.17,0,1.13-1.25-.13-1.26-1.16-.26-.09-.18.31-.41,2-.76.88,0,.44-.81.68-1,.58-.83.87-.25.82-.06.78.57,1.66.19.85-.08.85-.23.55-.06.61.07.77L30,92.52l.11.75-.89,1.26-.59,2.21-.27.65-1.42.8-.31.35L24.46,99l-.44.22-.55,1.47-.24.09-2.82-.85-2.69-1-.43-.29-.46-.73-.43,0-1-.78-.17.84-.15.3-.69.25-.75.44-.47,1.11-2.1-.25-.23-.57L10.05,98,9,96.79l-.14-.32-.13-1.31-.3-.48-.1-.36.39-.21-.4-.39-.56-.3-1.2-.1-.6.2-.37.54L5,95.19l-.51,1.47L3,96.23l-1-.5L1.14,95l-.48-.64-.35-.67-.11-1,.2-1.63.88-2,.19-.92v-.94l.14-.8-.18-.66L.61,83.5l0-1.07,1-.72.57-2.08.44-.86L3,78.3l.47-1.1.87-.46.33-.44L5,75.12l0-1.76.28-.67.75-2.58L6,69.32l.4-2.2L6.14,65.9l.12-1.84L6,63.46l0-.72-.21-.39-.81-.73L4,59.54V59.2l.19-.47.43-.31-.07-.52L6,56.33l.3-.5.64-.71L8,54.54l.45-.37.72-1.87.3-1.44-.21-.48.78-.45.2-.26-.31-.29L9,48.87l-.72.62-.45,0-.79-.37-.8.2-.53,0-.9-.67L4,47.75l-.43-.24L3,47.42l-.64-.14-.42-1.17-.51-.89.24-1.06.69-.91.64-.5.7-.09.13-2.23L5.41,38l0-.48-.65-1.3,0-.51.14-.42.36-.44.37,0L6,35l.45.74.23.17L7,35.47,7.25,34l1.38-1.24-.3-1-.05-1.24.91-1.08.38-1.72L9.94,27l.34-.28,1.89-.55.39-.38.25-.39.29-1,1.83-2.8.91-.47.56.05.93-.46.8-2.54,0-.3-.23-.72-.32-2.3,2.52,1,1.51.26.83.51.84.58.28.53.26.9.38.13.58-.2.39.05.2.37v1l.87,0,.13-.4,0-.4.7-.11.46-.42.7-1.22.41-.27.47-.07.25.25-.12,1.25-.79,1.63-.23.73-.06.59.2,1.29.41-.28.53-.9,0-.54.33-.3h.59l.93-.31,1.48-.16L33,20l.56-1.32,1.29.55,0,.28.49.62.42-.16.48.15.85-.45.31,0,.34-.22-.22-1.33.32-.35.25-1.39.28-1,.14-1.17.27-.44.73.46,1,.81.48.21h1.37l2.38,1,.39-.08,1-1.67.3-.18.84-.12.9.13.44-.14.36-.34.54-1.4.44-.09.39.27.44.84,1-.16,0,.81.2.56.74,1,.12.84-.12.66L52.28,17l-.27.23-.15,1.24.22.44,1,.82.37,1.91.47-.12.78-.6,0,.84L55.92,21l.92,0,.79-.23,0-.54-.16-.56-.45-.76-.15-.54.08-.4.93-.19.34-.32L58.15,17l.21-.47,3,.61.44-.09.72-.8.06-.45-.3-1,0-.69.21-1.15.34-.81,1-.66L64,11l.18-1.09L64,9.44l-.06-.58.51-.13.27.07.59.5.8-.9.11,0,.85.94.36-.14.36,0,.28.13.42.3.26-.16.59-1.3.38-1,.59-1L71.14,6l.69.28.44.51.51-.08.51-.38.25-.75L74,5.09l.31-.89.4-.51.5-.08L76,3.8,77,3.22l-.24-.73,0-1L78,.78l1,.49L79.37,1l.54-.51L80.3.28l.38,1.18.66-.4.13.17-.3,1,.07.27.68.72.49,1.48.58.57.13.49-.8,2.48-.25.67.4,1.13.29-.06.18,0,0,.17-.08.15-.22.05-.4.81-.22.1-.08.23,1.32.16.25-.11.58-.39.52,0,.81.14L86.2,11l.6.19.47-.78.56-.57,1-.52,0,1.69.55,1.9,1.62-1,.68.25,1.19,1.07.78.24h.79l.54.24.37.56.16.72.52-.23.56-.51.69-.27L99,13.84l.22.41.86,1.08.19.7-.2.57-.32.5-.11,1-.27.64,0,.51.84.2.54.65.6,2,.25,1.32.14.07v1l-.36.33-.67.28-.57.47-.37.68-.14.44.36.33,1.08.46.48,1.44.06,1-.07.87-.32.63.18.76-.14,2.25-.56.07-2.29-.31-.59.35-.3.31-.16.4L97.3,36l.08.38-.31.66L97,38.21l.72.47,1.18.19.69.34-.06.64.14,1.69.74,2,.29,1.13.27.26,2.12.8,0,1.3.29-.25.18,1-.1.72-.26.82-.55-.22-.79-.59-.52.56-.23.48-.73.43-.11.49.18.82-.93.94-.38.73-.06.34.19.41-.52,1.58.07.5.25.37L101,57.5l.07.53,0,1.69.32,1.75-.16,1-1,3.28-.15.71.09.75.22.52-.14,1.74-1.1-.37-.37,1-.44.41-.48,0-.17-.4-.06-.67.07-2.1-.16-.92,0-.86-.26-.4-.41.44-.57,2.72-.37.16Z"/><text class="cls-2" transform="translate(30.22 39.58)">Latehar</text></g></g></svg>