<svg xmlns="http://www.w3.org/2000/svg" viewBox="0 0 107.89 115.9"><defs><style>.cls-1{fill:#3DB3F1;stroke:#000;stroke-miterlimit:11;stroke-width:0.4px;}.cls-2{isolation:isolate;font-size:11px;font-family:Tahoma;}.cls-3{letter-spacing:-0.01em;}</style></defs><g id="Layer_2" data-name="Layer 2"><g id="Layer_1-2" data-name="Layer 1"><path class="cls-1" d="M100.91,65.51,101,69l-.12.53V70l.22.62.09.59-.22.94.09.34.27.08.92-.28.84.21.58-.25.24.28,1.81,2.69.06.27-.13,1.35.08.37.94.73.29.22-.71-.1-.09.37-.35.34-.35,0-.48.31-.35.37-.16.53.13,1v.77l-.21.37L104,82l-.71-.48L102.57,83l-.5.16-.41.46-.21.68v.52l-.21.33-.35.26-.1.53-.54.9-.44.11-.37.74-.83,2.46-.5.06-.51.19-.36.4-.24.58.13.51.77.34.41,1.38.26,1.3L99,96l.23,2,.3.79.06.44-.07.11.34.78.68.74,1,.49.59.11v1l.34,2.45v1.89l.19.5,1.09-.23.09.5.42.49.1.6.51.32.11.35-.31.43-.35,1.25.12.32-.08.46-1,1.06-.28.57.28.56.33,1.28-.45.44-.8-.07-1.22-.72-.28-.37-.2-.6.2-.75v-.38l-.84.12-.57-.14L99,112.5l-.72,0-1-.42L96,110.77l-.73-.36-.77,0-.59-.57-.23-.58-.42-.45-1.14.1-.47-.49L91,108l-1.06-.37-1.09,0-1.69-.23-.75.43-.47.56-1,.28-.92,0-1.68-.39-.49.11.24,1.36-.37.81-.53.24-1.34.09-1.24.37-.31-.19-.2-.38-.2-.36.08-.37.1-.45L78,109l-.2-.09-.11-.7,1.28-4.09-.4-2.34L76.3,97.85,74.85,92l1-2,1.35-5.16-.66-1.49-4.65-2-1-4.11,1.67-7.77,2-5.12.32-1.15-.54-.13L73,62.28l-.44-.38-.22.18-.56-.32-.71,1.44.27.55.27.32v.87l-.18.29-.33.2-.42-.07-.28.12-.74,0-1.07-1.31L68,64l-.48.25-.71.84-.48.39-.58.12v.53l.18.55.48.34.12.43-.15.43-.33.33-.6.2-.48.69-.31.17-1.23-.07L63.2,69l-.64,1.74-.34,1.43.34,1.14.42.38-.39,1-1.17.45-1.05-.22-.74.59-.32-.19-.28,0-.76.29-.94,0L56.66,75,56,74.87,56,74l-.08-.44-.28-.42-.84-.05-.47-.35-.8.68,0,.48-1.73,0-.41.21-.29-.49-.1-.77-.59-.23-.28-.26-.33-1.31-.51-.28L49,71l.51,1.11-.3.48-.11.39,0,.8-.52-.09-.47,1.19-.21,0-.79-1.14-1-.55L45,72.73,44.77,72l-.87-1-.22-.44-.29-1.47,0-1L43,68l-.53.12-.41.4L42,69l-1.26.24-.61.27,0,1.58-.16.39-.38.26-.47.11H38.6l-.67-.21-.79-1,.31-.49.33-.09.63-.6.24-1.7-.33.13-.39-.18-.2-.41-.16-.65.32-.52.48-.49-.44-.92L38,63.28l-.15-.66-.54,0-.36.07-.34-.14-1-.83L35.3,63l-1.46-.34-.32-.32-.73-.1-.17-.3-.72-.71-.47-.1-.31-.2-.22-.37-.09-.45-.29-.24h-.43l-.37.7L30,61l-.07.59-1,.54,0,.73-.3.86-.83.13-.44.26-.52.72-1.48-.2L24.25,65l.18.55-.38.35h-.44l-.35-.11,0,.69-.35.06-.08.19.22.29-.17.32-.33.13-.54.64L21,68.72l-.17.56-.31.35-.94,2.17-.75.55-.16,1.11-.4.73-.1.34.17.6.25.45.35.31.42.18.49.93.09.94.12.46-.64.46-.05.41-.38.15.14,1,.52,1.25,0,.53-.21.41-.39,0-.24.13-.12.42-1-.22-.37,0-.34.21-.44.06-.13.31.77,1.55-.13.59.43.86-.13.36-1.14.21-1.71-.1-.21.57-.62.87-.24.91.1.41-.05.5-.24.75v.47l.23.94-.1.56-.44.53v.89l-.72-.09-.09,1.08-.35.85-.35.06-.32-.26h-.49l-.31.84v.48l.11.51-.33.15-.76-.3L9,98l-.3.25-.34.49-.15-.1-.06-.48-.49-.33-.18-.45.52-1,0-.26-.55-.63-.3-.5-.21-.23-.2.07.06.69-.25.23-.43,0-.48.14-.34-.27-.36-.87-.26-1-.72-.77-.08-1-.71-.6-1.73-.76L1,90.1,1,88.84l-.31-1L.3,87.08l-.09-.62.19-.54,2-.25.49.11.51-1.42-.13-.26-.84-.89-.08-.36.12-1.38L2.1,81,2,80.06l.46-1.36.18-1.81L2.83,76l.55-.45.72.1,1.47.45L6,74.91l.1-1.41-.83-.39-.3-.24-.08-.42.22-.12.38,0,1.75-1,.31-.84.63-.16L8.72,69l.08-.76-.09-.44-.63-.38-.53-.11-.87-.75-.84-.31-1-.62-.13-.89L5,64.45l0-.32-.6-.45-.81-.25-.23-.18,0-.76L3.4,60.9l.24-1,1-1.65L5.78,57l.3-.38.06-.28L5.51,55,5.13,55l-.6-.86-.6.31-.75.62,1-3.17-.22-1.5-.07-1.46-1.34-.77-.39-.08-.23-.3-.13-.43,1.08-1.46-.51-1.47L2,43.65l0-.44L2.42,43l.48-.51.36-.68-.15-.34v-.72L3,40.37l.06-.53L3.4,39,4,38l.54-1.2,1.18-1.34L6.16,34l.36-.17.23-.34.36-.94.64-1.11L8.1,30,8,29.49l-.44-.74-.12-1.28-1.29-.92-1.06-.16-.6-1.6-.24-.33L2.8,24.07l-.51-.92-.4-.29L2,22.07h.69L3,21.91l.57-2.73L4,18.75l.26.4,0,.85.16.93L4.37,23l.06.68.17.39.48,0,.44-.41.37-1,1.1.37.14-1.75-.22-.51-.09-.75L7,19.39,8,16.1l.16-1L7.8,13.37l0-1.69-.07-.53-2-1.4-.25-.37-.07-.5.52-1.59-.19-.4.06-.34.38-.74.93-.93-.18-.82L7,3.56l.73-.42L8,2.66,8.5,2.1l.79.58.55.23.26-.83.1-.72L10,.38l.5-.18.4,0,.36,1,.28.26.94.35.2.49L13,3.77l.55,1.13,1,.41L15,4.14l0-.85.38.21.24.61,1.92-.37.24-.47.28-.9,0-.53.54-.34.21-.28L19,.74l.42-.32.18.47L19.8,1,20.91.7l.21.52,0,.54.14.65-.44.3-.6-.07-.33.7.11.53.6.75.75.63.73.81-.16.57.74-.11,1.56.28.8.51L26.35,7l.43,0,.45-.25,2.61-.57.39-.34L31,7l.78-1.7L32,4.42l.68-1L33.44,1l1.05.26,2,1,.71,0,.13.2L37,3.71l.27.59.44.18.63-.32.19.14-.05.41-1,1-.32.11L36.85,7l.16.78-.22.26.11.49-.85-.05-.23.64-.64,1-.14.6v.8l.5,1.58.54.36,1.9.07.4-.1,0,.47.42.72.45,1.15-.07.91L41.27,18l.21.4.08.41.16.14.5,0,.85.21,1.72.72,1.35.17,1,.38.54.27,1.05,1.15.4.13,1-.39,1.66-.06.41.42L54,23.14,54.18,22l.35-.49.33.57.53.24.54.08.58-.15.39-.65.61.21.86.74,1.86.68h.67L62,22.52l.83-.39.08-1-.18-.46L63,20.2l1.64,1.19,0,.43-.47.79.46.75.64.72.84-.12.89.43.53-.47-.08-1.34L67,21.48l-.54-.7-.08-.4.82-.29.4-.57.53-.09.24.25,0,.76.26.63.11.58L68,24.17l.44.86.6.55.25.06.29-.74.49-.24.65-.05.49.23,2,3.23.78.77,1.1.85.44,1.11.51.44.89.38.08,1,.64.47,1.48.86.49.49.64.34.62.18,1.54.06.37.46,1.07.61.2.83,1.05.37,2.28.45.42.17.37.28.45.1.34-.11.29-.73.66-.81.23.48.33.18.5-.22.56-.46.28-.66.94-.3,1.32.28.25-.11.54.06.35.5.94.12.39-.09.36.72h.43l.28-.61H98.8l.65.19.44.3.36.57-.07,1.1,1,.87.34.56.34,1,.44-.22-.09-.62.24-.16.5.5.33.09.76-.89.21,2.53,1,.2.2-.28.45.35.34.6-.36.21-.1.24.77,1.82-.27.5,0,.36h.85l.39.19.16.38,0,.88-.24.15-.84-.59-1.07.76-.91.48,0,.47.66.63,0,.23-.2.38.07,3.1.39.2.23.34,0,.35-.29.43-.72.66-.78.12.07,1.62-.38.31-.56.92-.83.68-.28.73-.28.31-.56.19-.76,2.44Z"/><text class="cls-2" transform="translate(34.77 49.59)"><tspan class="cls-3">R</tspan><tspan x="6.73" y="0">anchi</tspan></text></g></g></svg>