<svg xmlns="http://www.w3.org/2000/svg" viewBox="0 0 48.64 75.09"><defs><style>.cls-1{fill:#3DB3F1;stroke:#000;stroke-miterlimit:11;stroke-width:0.4px;}.cls-2{isolation:isolate;font-size:6.13px;font-family:Tahoma;}.cls-3{letter-spacing:-0.03em;}</style></defs><g id="Layer_2" data-name="Layer 2"><g id="Layer_1-2" data-name="Layer 1"><path class="cls-1" d="M.31,39.52h0l.44-.08,1,.11,1.62-1.19.92,0,.57-.37.31.22.52-.2.32.29v.23l.26.41L6.6,39l.06,1-.08.59.2.24,1.09.26.36.45,1.66-1.06.23-.52.41-2,0-.81-.18-.73-.18-.33,0-.2.23-.09.5.2.88.7.24.45.17-.09,0-.53L13,36.4l.4-.46-.26-.9.14-.91-.51-.38-.08-.37.15-1.06.24-.75.49-.49.7-.39.56.41,1,.42.74-.07,1,.94.07.8.72.29.68-.13,1.12.46,1.2.31,2.12-.5.59-.86.3-.67,0-.37-.12-.36-.19-.17.16-2.77-.33-1.54-.33-.8-.15-.66-.07-.48-.25-.3-.05-.55.31-1.44,0-.52-.26-.39L23,21.36l0-.61-1-.63-.23-.37.13-.71L25,18.1l.77-1,1-1.75,0-.52.24-.53.49-.6.14-.46.06-1.57L28,10.63l-.27-.55-.21-.81V8.43l.13-.74.46-.94L28.15,6l.26-.33.91-.5.2-1.66.56-.24.15-1.09.29-1.11.26-.67L31,.23l1.09.38,1.15.67h.25l.49.36.35.51,0,.66.08.16.82.55.21-.22.67.25,2.6.58.2-.67.56-1,.48-.28.48-.1,1.53.22,1.23.06,1.07.31,1.43.71,1.24,1.2-.27.84,1.51,2.18.3,1.19-1,.72,0,.14-.14.2L47,9.71l-.7.07-.1.82.55.92v.38l-.16.42-.9-.38-.83-.21L43.63,12l-.3-.45-.48-.12-.32.61-.75-.1-.92.2-.89.32-.82.74-.26,1,.12.9.63.62.19.72.1,1.1.32.75.1,1,.33.12,0,.68.5,1-.11.31-.72.11-.63.31-1.89-.9-.92.1-.57.47-.56.62-.41.86-.1,1-.55.61-.51,1.15-.9,1.33-.17.47.29,1.35.41.35.59.09.95.61.39.16,1.41-.71L37,30l-.5.7-.22.69v.93L37,33.92l.51.55-.12,1,.12.6-.22.84.36.15.18.7.24.17.51.11.9,0,1.08.2.42.22,1.39,1.09,1.36,1.36.14.41-.41,1.92.29,1.38-.42,1.84-1,2.93-.26.26-.25.52-.52.47-.47.58-.73.79,0,.46.46,2.05.17.31.36.22,1.22,1.09-.41,1.26,0,.53.3.86-.22.82.07.54-.32,1.37.38.5-.11.68.23.71-.43.89-.1.53-.28.67v.75l.58.9.11.74.38.08.51,0,.38.14.28-.09.18.7v.67l-.15.51,0,.38.25.18-.07.69.31,1-.16.71v.72l-1,.37-.28.69v.09l-.07-.06-2-1.42-1.16-.13-1.94-.91-1.56-1L34.59,71H33.23l-1.65.13h-2l-.88-.52-1.74-1.81H25.65L24.39,69l-1,1.55-1.26,1.3-.88-.39-1.49-1.57.11-.19-.06-.59.24-1-.18-.4-.7.83-.68,0-1.18-.35-.3-.44-.33-1.1-.37-.14-.39.16-.53.55-.48.2-.41-.21-.38-.45-.59-1.88-.39-.11-.27.19,0,.91-.11.31-.35.26-.61-.22-1-.86-.32-.13-.24.23-.2.44-.52,1.53-.29.12-.44-.18V65.58l-.29-4.79-.68-5.18-.29-4.28-.87-2.58L4.87,45.38,3.41,43.44Z"/><text class="cls-2" transform="translate(13.75 47.84)"><tspan class="cls-3">K</tspan><tspan x="3.43" y="0">odarma</tspan></text></g></g></svg>