<svg xmlns="http://www.w3.org/2000/svg" viewBox="0 0 57.62 55.47"><defs><style>.cls-1{fill:#3DB3F1;stroke:#000;stroke-miterlimit:11;stroke-width:0.4px;}.cls-2{isolation:isolate;font-size:11px;font-family:Tahoma;}.cls-3{letter-spacing:0em;}</style></defs><g id="Layer_2" data-name="Layer 2"><g id="Layer_1-2" data-name="Layer 1"><path class="cls-1" d="M.56,10.18.7,9.49.37,8.7l0-1L.2,6.14l0-.6,1.7-.33.33.52.54.38,1.5.2.4-.23L5,5.67l.4.16.67.49.53.56.6,0V6.46L7,5.79,7,5l.19-.77L8,2.84l.58-.62L9.13,2h.95L10.71.58l.9-.37L12,.26l1.91,1.05.29.07.61-.24.24.21,1,2.38.76,1.18V5.6l-.22.85.1.37,1.22,2,1.4-.16.44-.18.11-.37.27-3,.43-1.86-.08-1.48,1.17-.37.87,1.16.34.19.28-.07.43-.36H24l1.44-.47.36-.37.31.18.46.76.67.85.43.95.2.89L28,6.72l.17.5,1.1.62.48.57.16,1.82.35,0,.52-.25.61-.48.72-.21,1.38-.75L34,8.33l.41-.45.19-.43,0-1.47.14-.5.37-.19.42.19.28.36.12.49.3.15.17.62.13,2.33.26.28.54.13.57.28.5.62.32,1,0,1.15.17.35.55.35.1.78.25.22.92.21,0,.8-.36,1.6.15.72.25.47.53.15.27-.07.05-1.36.14-.78-.1-.57.06-.88.07-.6.3-.3.34.11-.1,1.5.29.46.47,0,1-.85.34,0,.19.48-.18,2.39.11.55,3.32,1.48.32-.33.37-.86.62.14.27-.39.41-.13.39-1.83,1,0-.08.79.41.29.51.92,1.43.39.24.33.6,1.6,1.06.15,1.29.92.12,1.28.43.74.13.5-.35,1.5-.64,1.1-.36.94-.24.35-.36.17L55,30.1l-1.18,1.33-.54,1.2-.56,1-.35.89-.06.53.1.36,0,.72.15.35-.36.68-.48.5-.43.23,0,.45.37.76.51,1.47L51.08,42l.13.43.23.3.39.08,1.34.77L53.24,45l.22,1.51-1,3.17-.73.41-.7.14-1,.71-.56-.46L49,50.24l-1.3,0-.35.31-.27.43L47,51.8l-.27.54-.4.51-1.12.25-.75,0-.32.14-.14.19-.2,1-.14.33-.86.3-1.3.2-.32,0L41,55.07l-.07-.26L41.12,53l.43-2.18-.06-.33-.41-.36L41,49.53l-.7.2-.94,0-1.81-.27-.39-.36-.47-1-1,0-2,1.53-.51,1.22-.6.17-.75.14h-.61l-.45-.47-.31-.59H30l-.33-.37-.35,0-.37.53-.72.09-.52.86-.85-.36-.66.53-.93.12-.74-.23-.63-.76-.42-.68-.35-.28-.76.63-1.21-.39-.68-.33L19.26,48l-.58-1.38L18,46l-.49-.24-.49,0-.47.2-.79.14-.71-.41L13.8,43.31l-.58-.56.1-1.18-.18-.49-.68-.31-.84,1.16-.28.55-.13.62v1.69l-.14.37-.76-.2-.65-.32-.73-.55-.44-.67-.25-.69.08-.62,0-1.78.4-.67.39-.39-.58-1.21-1.25-.61-1.21.7-.5-.06-.34-.24-1-1.3-1-1.67.13-.43.29-.39,1.49-1.69.61-1.59.44-.34.52-.61.4-.27.29-.42.51-1.41.61-1,.06-.34L8,24.92l0-1L8,22.67l-.12-.9-.72-1.3-.07-.55.06-.68L8,15l.06-.85-.28-.44-.54-.46-1.16-.35.21-1.13-.09-.34L6,11.47l-.18.24-.4,0-.37.66L1.43,10.77Z"/><text class="cls-2" transform="translate(13.83 32.95)">Loha<tspan class="cls-3" x="23.35" y="0">r</tspan><tspan x="27.26" y="0">d.</tspan></text></g></g></svg>