<svg xmlns="http://www.w3.org/2000/svg" viewBox="0 0 81.07 124.81"><defs><style>.cls-1{fill:#3DB3F1;stroke:#000;stroke-miterlimit:11;stroke-width:0.4px;}.cls-2{isolation:isolate;font-size:11px;font-family:Tahoma;}.cls-3{letter-spacing:-0.02em;}</style></defs><g id="Layer_2" data-name="Layer 2"><g id="Layer_1-2" data-name="Layer 1"><path class="cls-1" d="M80.58,90.7l.06.59.22.42-.17,1.09-.32.5-1,.65-.35.82-.2,1.15,0,.68.31,1-.07.45-.71.8-.44.08-3-.6-.21.47.11.46-.34.33-.93.19-.07.4.14.54.45.76.16.56,0,.53-.8.23-.92,0-1.31.73.06-.85-.79.61-.46.11-.38-1.9-1-.83-.22-.43L68.67,99,69,98.8l.44.14.12-.67-.12-.83-.75-1-.2-.56v-.82l-1,.17L67,94.41l-.39-.27-.45.08-.54,1.41-.36.33-.43.14L64,96l-.83.12-.3.18-1,1.67-.38.08L59,97H57.66l-.48-.2-1-.81-.74-.46-.26.44-.14,1.17-.28,1-.25,1.4-.33.34.22,1.33-.33.23-.32,0-.85.45-.47-.15-.42.16-.49-.62,0-.29-1.3-.54-.56,1.31-.31.38-1.49.17-.92.3h-.6L46,103l0,.55-.53.9-.41.27-.2-1.29.06-.58.23-.73.78-1.64L46,99.19l-.25-.26L45.3,99l-.41.26-.7,1.23-.47.42L43,101l0,.41-.13.4-.88,0v-1l-.2-.37-.4,0-.57.2-.38-.13-.26-.91L39.92,99l-.84-.59-.83-.5-1.51-.26-2.52-1L34.53,99l.24.71,0,.31L34,102.56l-.94.47-.55-.06-.91.47-1.83,2.81-.29,1-.25.4-.4.37-1.89.56-.33.27-.37.77-.39,1.71-.91,1.09,0,1.24.31,1-1.39,1.23-.23,1.45-.32.48-.24-.17-.45-.73-.36-.24-.38,0-.35.44-.14.43v.51l.66,1.29,0,.49-1.58,2.45-.13,2.23-.7.08-1.05-1.29-.24-1.08-.41-4-.17-5.77-.29-2.35L17,108.52l-.54-1.17L15.38,106,13,104.42l-1.53-1.73-.83-1-.87-1.24L8.08,97.84l-1-1.57-.64-1L5,93.48l-2.09-2.3-1-1.51-.32-1,.81-.87,1-2.56.24-1,1.46-1,.2-.35.4-2.24L5.8,79l.57-.3L7.18,78l.64-.27.51-.59.38-.63,1.34-.23.35-.45.6,0,.27.26.05.31,1-.7.93-.89h.36l.31.28.4.61.31,0,.34-.59.61-1.83,1.13.95,1.31.33.46-.2.15-.32.05-.42-.18-.43-1.09-1.29-.17-.37.1-1.55-.3-.94-.32-.26-.23-1.12-1.2-.49-.82-.51-.79-.33-1.29-.88-.55-.51L10.33,63l-.8-.83L8.16,60.94l-1-1.37-.76-1.94L4.34,53.74l-.74-1.1-1-2L.75,48.25.69,47.13l.13-.38,1-1.23.37-.9L2.23,44l-.34-1.23L.44,40.2l-.19-.51,0-1.28.35-1.07L1,36.18l.35-.41,1.2-1.07,1-.72L4,33.41l.36-.59.22-.73.26-3.34-.28-2-.14-2.86V21.75l.1-1.5,1.77-4.51.3-.4.09-.5,1.12-.51,2.49-.82,1.57-.46.64-.06.46-.24.47-.53.37-.58L15,10.17l1-1.36.76-1.57L17.55,6l.71-2.56L19.61.25l1,.37,1.3.52.12.56.41.11.48-.31.27.18.23.71.32.14.12.37.52-.06.88,1-.19.74.31.06L26,6.26l-.18.44.16.5.53-.06L26.8,7l.14.79-.3.93.57.27.26.56.49.19.23.68-.1,1,.37.71.11,1,.62.88.46.36.1.3-.32,2.68.26,1.45L30.51,20l.41,1.08.92.91,1.33-.73.24-1.62.43-.33.79-.26.35-.31-.31-1.85-.07-1.56,1-1.51H36l1.15.28.39.63-.9,1.3,0,.67L36.4,17l.78.7,1.07.39.82-.09.31-.72v-.38l.43-.57-.42-.16-1-2.55v-.71h.9l.56-.31.14-.84,1.21-.23.06,1,.59.57.28,1.13.9.28.33-2.1,1.49-.4-.08,1.33.71.05.75.62.17.42-.15.58.9.11.14-1,.44.08.21-.48.49-.11-.09-.76,1-.09.19-.61-.86-.3-.27-1.41,1.12.12,1.35-.37.46.4.48,2.2.77,1.07.26.8.09,1,.66.62.26,1.27L54.37,19l-.07.83-.41,1-1.4.39L51,22.07l-.92,2.05.51,1.09.31,1,2.27.46,1.6,2.26,0,.38-.33.1-.84-.21-.46.8.34.45.68-.48.31.21V31l-.2.78.6.87.66.47-.22.75,1.15.53.87.15.63.6.61,0,.68-.55.88.17.29,1.44.73.5.59-.23.22.38-.51.95,2.87,1.2-.45,2.33-.08,1.53,2.86-.39.18-.77.82.15.78,2.92L68.8,46l.35.43.72.38.33-.05.89-.26.17.36-.13.47-.34.26,1,1.37-1.6,1.51.29.88,0,.77-.49.23-1.86.46.44-.46.26-.45-.13-.28-.47.35-1-.33-.13.93-1.2,2.4.39.65,2.15,1,.45.39L69,58.3l-.11,1.29.34.43,1.27.8,1.34.25,1-.16,1.05.16.8-1,.8.54.09.56-.94,1.07L75,63.68l.33.46.36.93.68.38.5,1,.23,1L80,69.14,79.2,72.4l-.77.27-1.16,1.77,1,3.56,1.2,1-.81,2.06-.3.48-1.11.35.08.85.74.89.32.57-.8.85-.28,1.47.52,1.9.74,1.65.46.81.25.15.34-.2Z"/><text class="cls-2" transform="translate(19.56 62.42)"><tspan class="cls-3">P</tspan><tspan x="5.81" y="0">alamu</tspan></text></g></g></svg>