<svg xmlns="http://www.w3.org/2000/svg" viewBox="0 0 94.91 118.88"><defs><style>.cls-1{fill:#3DB3F1;stroke:#000;stroke-miterlimit:11;stroke-width:0.4px;}.cls-2{isolation:isolate;font-size:11px;font-family:Tahoma;}.cls-3{letter-spacing:-0.02em;}</style></defs><g id="Layer_2" data-name="Layer 2"><g id="Layer_1-2" data-name="Layer 1"><path class="cls-1" d="M54.27,113.68l-.29.26,0-1.31-2.11-.79-.28-.26-.29-1.14-.74-1.94-.14-1.7.06-.63-.68-.35-1.19-.19-.72-.46.12-1.19.3-.66-.08-.39.13-.76.17-.4.3-.31.58-.35,2.3.31.55-.07.14-2.25-.18-.77.32-.63.07-.86-.06-1-.48-1.44L51,93.93l-.36-.33.14-.44.36-.69.57-.47.67-.27.36-.34v-1l-.14-.06L52.39,89l-.6-2-.54-.64-.84-.2,0-.51.27-.64.12-1,.32-.5.19-.57-.19-.7-.86-1.09L50,80.79l-1.75.07-.69.28-.55.51-.53.23-.16-.72L46,80.6l-.53-.25h-.8l-.77-.24L42.67,79,42,78.79l-1.63,1-.55-1.91,0-1.69-1.05.53-.56.56-.47.79-.6-.19-.73.34-.81-.14-.52,0-.58.38-.25.12L33,78.5l.08-.23.22-.11.41-.8.21,0,.08-.16L33.91,77l-.18-.06-.29.06L33,75.86l.25-.67.8-2.47-.13-.5-.58-.56-.48-1.48-.69-.72-.07-.27.31-1L32.31,68l-.65.39-.39-1.17-.39.19-.54.51-.46.28-.95-.48-1.12.73,0,1,.23.74-1.09.58-.79-.2-.5.09-.4.5-.31.89-.41.5-.25.75-.51.38-.51.08-.44-.52L22.11,73l-.85.23-.59,1-.38,1-.58,1.29-.26.17-.43-.3-.28-.14-.36,0-.35.13-.86-.93-.11,0-.8.91-.59-.5-.27-.07-.51.12-1,.14-.34.2L13.33,76l-.46-.81-.74-1.65-.53-1.9.29-1.47.8-.85-.32-.57-.75-.89L11.55,67l1.1-.35.31-.48.81-2.06-1.21-1-1-3.56,1.15-1.77.78-.27.81-3.26L11.4,52.63l-.24-1-.49-1L10,50.18l-.35-.93-.34-.46-.36-1.46.94-1.07-.09-.56L9,45.16l-.8,1-1-.16-1,.16-1.34-.25-1.26-.8-.34-.43.11-1.29-.08-1.29-.45-.39-2.15-1-.39-.65,1.2-2.41.13-.92,1,.33L3,36.69l.13.29-.27.45-.43.46,1.85-.46.49-.23,0-.77-.3-.88L6.07,34l.34-.78L7,33l-.11-.59.34-1-.14-1.32.78-.25L8.21,29l.34-1.39.84-.81-.64-.88-.05-1,.82-1.09.13-.53-.41-.54-.26-1,2.09-.06.44.41,1.06-.83,1-.59-.15-.82-.54-1,.22-.66.43-.78.74-.68.79.27.18,1.24.84-.4.45.05.7.42,1.2,0,.28-.36.43.24.37-.26.62.52,1.48.22,1.58.67.19-.31.3-2,.5-.32.06-1.85-.26-.3,0-.38.81-1.38.51-2.11.53-.39,1.05-.37,1.29-1.46.67.52.47,0,.77-.57,1.58-2.13L31.91,5l2.18-.74,1.76-.43.4-1.78.62-.53.59-1.1.66,1.16L40,1.06l1.37,1.85-.49,3.54-.08,2.2.66.07-.08,1.17-.22.27.39.93.79-.41.57-1.45,1,.72,0,.44.28.13.33-.14L45,9.09l.55.16.37.42h.4l-.22,2.63.21,1.63-.22,1.31.46.76,1,2.58.65.65.24,1.63-.63,1,.37.4.55,0,1-.47L51,21.42l1,.22,1.35.65,2.15-.58,2.27-5,2.11-.53.41-.43.63-.4,1.19-.46.38.31.39-.14.28.81,1.15.44.44-.19L65,15l.44-.83.46-.7.74-.58,0,2.51-.2,1.21.08.63-.15.27-.28.19-.12.55.19.21-.58,1.79,1.58.84-.4,1.33.07.8L67,24l.86,1.19.44.8.41,1.33.32-.36.39-.22,1,0,1,.19.45.32.76-.65.07-1.66-.26-1.09.26-.17h.6l.79.12.76.73.37.07.31,1.28.47.25,1.17,0,.34.29.07.45.19.23.48.13.28.41.46-.08.71-1.44.57-.3,1.63-.35.37-.31.48.11.54,0,1.17.24,1,.28.49.28h.49l1.15.33.63-.06.49-.43h.51l.66.6,1,.54,1.59,1.44.52.11.81.62,1,.16-.15.47-.8.7-.4.28-.37-.25,0-.44-.29-.4-.82-.13-.26.52.08.56L92,31v.78l-.64.29.06,2-.13.73-.07,1-.31.27-.13.49.21.42-.32,1.08-.59.91-.62.46-.18.5.25,1.29-.58.52.52.65.13,1,0,1.09-.28.21-.71-.07-.44.1-.38-1L86,42.63l-1,0-1,.13-1.1-1-.42-.12-.88.14-.43-.06L80.12,42l-1-.76L78.54,41l-.92,0-.83-.14L75.73,41,75.37,41l-.68-.42-.88,1.55-.41.52-.12.59-.22.42.09.45-.56.72.12.66.55.92.18,1-.18.76,0,.86-.36,1.56.54-.1.34.19.82,2.61.9,1.31.41.76-.17.35-.3.14-.21.35.35.07.16.34-.24.32.41.21-.09.94.11.56.29.24.86.24.77.43.56.58.66.51.22.32.95.53.74.15.7.3,1.44,1.31.37.63.23,1.1-.24,1.67.1.93.58,2.21,0,.43-.23.21-.55.23-1.49.49-.44,1.72-.1,1-.93.75-.19,1.27-.3.59-.49.56-.31.7,0,.71.09.85-.41.3-.36.72-.84.67-.45-.14-1.22-.66L73.85,80l-.61.25-.64-.61L72.16,79l.13-.58-.45-.6-.9-.63L70.42,77l-.24.32-1-.66-.25.21L68,76.83l-.62.76-.73,1.49-1.09-.29.59-1.46,0-.91-.4-.71-1.42,0-.4-.13-1.11,0-.2.11-.72.12-.23.29-.28,1,.13.54v.81l.77,0,.57.38.69.17.23.18v.62l-.69.59-.5.59-.45.76.47,1.32-.3.29-.13.4.2.48.44.26-.15.78-1.92,0-.83,2.2.45.91,0,.78.11.56,1.18.85-.39,1,.13.22-.36.57.1.72.77.94,1,.84.24.34.41.28.55.9.13.54-.13.62-.61,0-.52-.15-.08.76.09,1.13-.3.3.17.72-.06,1.42.23.47.14.67.06.81-.1.6-.28.67.21.87,0,.69.14,1.36v1l.4.5.94.87.21.79-.34.25-.56-.58-.35-.11-.41.1-.18.33,0,.28.41.07.07.66.43.19V113l-.11.71-.42.31-.12.49-.21.27-.54.35v.53l-.29.9-.24.47-1.92.36-.24-.6-.38-.21,0,.85-.45,1.17-1-.41-.55-1.13L57,115.61l-.2-.49-.94-.35-.28-.26-.36-1-.4,0Z"/><text class="cls-2" transform="translate(28.57 50.6)">Chat<tspan class="cls-3" x="22.19" y="0">r</tspan><tspan x="25.97" y="0">a</tspan></text></g></g></svg>