<svg xmlns="http://www.w3.org/2000/svg" viewBox="0 0 64.24 80.41"><defs><style>.cls-1{fill:#3DB3F1;stroke:#000;stroke-miterlimit:11;stroke-width:0.4px;}.cls-2{isolation:isolate;font-size:11px;font-family:Tahoma;}</style></defs><g id="Layer_2" data-name="Layer 2"><g id="Layer_1-2" data-name="Layer 1"><path class="cls-1" d="M48,11.47l-.4,1v.83l-.12.71.2,1.26.07.94-.08.8,0,.72-.17.74-.28.56-.24.45-.35.94-.42,1.17-.61,1.06-.39.66-.29,1.05-.13,1-.06.91,0,.75.85-.52.45.82-.45.25.43.58.31.81.34.39.62-.13.45.44.7-.55.34-.86.85.26.38-.54.6.25-.26,1.53-.29,1-.47.74-.71.39,0,.71.09.68.69.58-.23.8.75,1.92,1.69.1,1.06.54.1.89,0,.95-.21,1.18,0,1,0,.65,0,.59.62.75,1.15.16.89.57.91-.75.18,0,.15.07,2.65-2L60,42.33l.35,1-.08.92-.09.82,0,1,0,1.34.28,1.25.35.81.46.54.68.36.75.31.71.3.6.3-.12.72-.31.35-.34.4-.41.5-.19.75-.15.73-.32.44-.35.76.29.71,0,.29,0,.45.26.65-.5.66-.41.6-.38-.5-.56-.45-.41,0-.62-.2-.22-.32-.4-.51-.37.11-1.57-.81L56,56.2l-.64-.13-.92-.21-.52.38-.18.54.22.74.34.89-.16,1.28.1.83-1.43.36-.55.76-.56,1.23-.34.12-.86-.28-.25.9-.13.58L50,65.38l-.2,1.05,0,.72,1,.2,1,.72.83.43v.93l.16.95.4.19.64.37.58.27-.73,1.34.33,1.54.09,1.16-.37.87v1.59l-1,.16-.76.79.31.8-.82.64-.84.11-1.33-.46-1.28-.83-.55-.81.5-.69-.56-.3-1.13.29-1-.83-1-.57-.31.28-.12.52-.45.31-.6-.24-.58.38-1.58.53-.34.79-1.08,0-1.09-2.94-1-.06-.32-.3-.07-1.09L36.66,74l-.43.68-.65-.58-.43.61-.6.17v1.53l-.57.25-.83-.36-.7.15-.27-.88L31.54,75l-.33-.5.62-.75-.51-.94-.52,0L30,72.57,28.53,72l-1.24-.52-.6-.42-.73.06-.5-.13-.57-.76-.28-.74.07-1.59.22-1.23.32-.2.63-.09.59-.39-.15-1.16-.22-.89-.47-.31-.24-.23-.52-.42-.46.37-.16.61-.29.79-.09.61,0,.75-.26.45-.23.58-.33.43-.3.19h-.6l-.38.09-.75,0-.57-.12-.65-.23-1.12-.19-1,0-.32-.16-.38-.28-.58-.28-.35.11-.46,0-.59-.2-.45-.08-.34.06-.34.41-.49-.1L13,66.63h-.41l-.12.29-1-1L10.25,65l-.61.44-.58-.18-1.19-.37-.42-.2-.26.43-.49.53-.54.23H5.5L5,65.64l-.61-.18-.94-.2.7-1.51.45-1.65.52-1.16.07-1.16-.15-1,.37-.54.41-.54.11-1.3.48-1L6,54.53l-.12-.65.48-.56-.15-.69-.25-.76,0-1.4-.08-.73L5.66,49l-.12-.78-.28-1-.55-.15-.63-.13-.49-.31-.24-.41-.16-.93-.54-.22-.3-.56-.06-.66-.15-.56-.28-.41.08-1,0-1-.31-.29-.3-.22-.61-.19-.1-.62L.92,39l.2-.34.25-.52.07-.57-.07-.19L.75,37.2.36,37l-.11-.59.1-.65-.11-.5,0-.18.29-.74.71-.38.4-1.15.15-1.41L1.4,29.63l.21-.84-.21-.66.22-.46.79-.13.9-.3H4L4,26l.39-.75-.1-1.06,0-1-.69-.66.54-1.22L4,20.4l.21-.62,0-.78.52-.13L5,18.6l-.06-1.49.85-2.73,1.86-2.51.72.39.59-.48.46,0L10,12l.48-1.16.68-.7-.34-1.5h.39l.35-.53.66,0,1.06-.7.51-.68L13.91,5l.61-1,.53-.61L15.58,3l.3-.77.67-.33,0,.68,0,.09-.16.36-.1.69,1.24,0-.06,1.41.93.68.73.41.73.07.47,1.24,1.06.56,1.3.35,1-.76.4.15.53-.75.91.21L27,6.63,27.92,6l1.35.34.36-.7.46-.78.64-.42-.11-1.86L31.27.47l.34.44L33.17.68l.67.12,0-.54.21,0,.38.68.34.64.25.79,0,.72.78.35V2.86l-.18-.62-.23-.45-.31-.34-.16-.3,0-.57.65.26.26.44.23.5.09.39.07.31.06.32.15.36.17.15.42.41-.14.54,0,.73.15.59.14.59-.46.35-.21.33-.09.45,0,.39,0,.18.48.07.39,0,.51-.62.48-.16.34.15.43.32.62-.29.57,0,.16.76V9.33l.87.15.78.35L42.36,9l.43-.51.82-.15.39-.5.33-.33.28.6.51.37,0,.82.27.06.66-.11.55.7.29.73.48.49Z"/><text class="cls-2" transform="translate(7.78 40.21)">Deoghar</text></g></g></svg>