<svg xmlns="http://www.w3.org/2000/svg" viewBox="0 0 77.47 135.63"><defs><style>.cls-1{fill:#3DB3F1;stroke:#000;stroke-miterlimit:11;stroke-width:0.4px;}.cls-2{isolation:isolate;font-size:11px;font-family:Tahoma;}.cls-3{letter-spacing:0em;}.cls-4{letter-spacing:-0.01em;}</style></defs><g id="Layer_2" data-name="Layer 2"><g id="Layer_1-2" data-name="Layer 1"><path d="M70,110.62l-.64.49-.69.92-.24,1.06.51.89.42,1.17.64.14.61.08.43.25.82.9.9.67.53,0,.8-.21.79.38.44,0,.73-.63.89.51.3.3-.19.26-.79.45.21.48-.29,1.44L75.42,122l-.45.37L73.9,123l-.63.71-.3.5-1.51,1.56-1.5-.1-1.79.31-1.33.64-1.46.26-1.12.26-.66,1.53-.2,2.46.59,4.25-1.33-.28-.81-.51-1-.11-.7-.23-.88-.66-.74.44-2.43-.77-1.4-.36-.89-.06-1.7-.48-1.08-.56-.47.91-.61-.12-.29-1-1.2-1.12-1.17-.19L46.57,129l-.21-1.18-.09-.54-1.78-.72-.5-1.92.17-.72.78-.46-.12-.6L44.1,122l-1.57-1.14-.79-.88-.69-1.22,0-1.07.78-.54.18-.37.81-1.09.27-1.23-.24-1.45L42.57,112l.07-1.64-.06-1.54-.24-.71-1.54-1.73,0-1.18-.18-1.2-.32-.75-.81-.93-.45-.83.31-1.23L39,99.64l-.72-.45-.67-.26-.45.43-.57.36-.6-.81-.85-.26-.31-.58.24-.69L35,96.45l-.7-.61L33.06,96l-.82,0-1.93-.84H29.18l-1.06-.42-1-.75-1-.16h-1.1l-.37-.91.63-.49,1-.55.33-1L26,90l-1-.32-1.16,0-.68-.75-.57-2.27L22.76,84l-.54-1.14L21.07,81.4,20,79.34l-.49-1.72L19.39,76l.1-1.4,1-1.28-.18-.71-.54-1.34-.31-.39-.57-.34-2.32-1.09-1.09-.29L14.36,69l-.53.07-.57-.15-1.49-1.69-.2-.45-.22-.57.15-1-.05-.69-.16-.8L11,63.15h-.41l-.7.35-.6.11-.61,0-.25-.14L7.52,61.6l-.95-.68-2.21-.29-.5,0-1.19.64L.78,61l-.42-.24L2,59.45l.39-.53.08-.63L3,57.23l.09-1.48.27-.44.37-1L3.88,53l.85-2.09.39-1.2.12-.85.82-1.95V46.3l-.21-.68,0-.52.24-.41.1-.46-.25-1.49,0-.66.37-.6,1.07-.65.24-.34v-.77l.89-1.85.1-1.4-.25-1.26-.45-1.14-.59-.43-.41-.14-.49-.33-.12-.08,0-.6-.49-1.2,0-.15L6.09,31l.69-.67.64-.89L8.66,28,9,27.75l.45-.08,1.28.12.32-.17.36-.7.44-.35.7-1.86.48-.33.6-.2v-.31l-.39-.21-.46-.6-.05-.67L12.45,22l0-.95-.12-.28-.43-.22-.18-.47-.26-.28-.06-1.08L11,18.45,10,18l-.47-.1-1.23.21-.13-.47.18-3.47-.85.1-.28-.16-.87-2.51.29-.8.3-.44.11-.49V9.13l.46-1,.09-.62,0-.57-.21-.55,0-.59.09-.57.26-.35.47-.32,2.74-.93,1-.12,1.81-.48.92-.11,2-.84L17.33,2l1.19-.37L19.7,1.6l1.49.22,1.17.05.77-.08.5.3,2.49,1,2.21.29.8.23,4.65-.41,1.84.07.86.13,1.21-.11L39.07,4l.69.45,1.49.33,1.47-.53L44.58,4,48,2.15l.66-.5.67-.32.47-.06,1,.13.76-.32L52.77.82,54.24.63l.68-.25,1-.17L57,.86l-.08.5-.31.41-1.77,4.5-.1,1.51V9.89l.14,2.85.28,2-.25,3.34-.22.74-.36.58-.5.57-1,.72-1.2,1.07-.35.42-.46,1.15-.35,1.08,0,1.27.19.51,1.45,2.56L52.53,30l-.08.63-.37.91-1,1.23-.13.37.06,1.12,1.81,2.38,1,2,.73,1.09,2.09,3.9.77,1.94,1,1.36,1.38,1.22.79.83L62.17,51l.55.51,1.29.88.79.32.82.51,1.2.49.23,1.12.33.26.29,1-.09,1.54.17.38,1.08,1.29.18.42,0,.43-.15.31-.47.2L67,60.23l-1.13-.95-.6,1.83L65,61.7l-.31,0-.39-.61L64,60.83h-.36l-.94.9-1,.69,0-.31-.27-.26-.6,0-.35.45L59,62.51l-.38.62-.51.59-.64.27-.81.76L56.1,65,56,66.67l-.4,2.23-.2.35-1.45,1-.25,1-1,2.56-.81.87.33,1,1,1.52,2.08,2.29,1.44,1.79.65,1,1,1.56L60,86.48l.88,1.24.82,1,1.53,1.73L65.69,92l1.1,1.38.53,1.17.48,1.59.29,2.35.17,5.77.41,4,.24,1.08Z"/><path class="cls-1" d="M70,110.62l-.64.49-.69.92-.24,1.06.51.89.42,1.17.64.14.61.08.43.25.82.9.9.67.53,0,.8-.21.79.38.44,0,.73-.63.89.51.3.3-.19.26-.79.45.21.48-.29,1.44L75.42,122l-.45.37L73.9,123l-.63.71-.3.5-1.51,1.56-1.5-.1-1.79.31-1.33.64-1.46.26-1.12.26-.66,1.53-.2,2.46.59,4.25-1.33-.28-.81-.51-1-.11-.7-.23-.88-.66-.74.44-2.43-.77-1.4-.36-.89-.06-1.7-.48-1.08-.56-.47.91-.61-.12-.29-1-1.2-1.12-1.17-.19L46.57,129l-.21-1.18-.09-.54-1.78-.72-.5-1.92.17-.72.78-.46-.12-.6L44.1,122l-1.57-1.14-.79-.88-.69-1.22,0-1.07.78-.54.18-.37.81-1.09.27-1.23-.24-1.45L42.57,112l.07-1.64-.06-1.54-.24-.71-1.54-1.73,0-1.18-.18-1.2-.32-.75-.81-.93-.45-.83.31-1.23L39,99.64l-.72-.45-.67-.26-.45.43-.57.36-.6-.81-.85-.26-.31-.58.24-.69L35,96.45l-.7-.61L33.06,96l-.82,0-1.93-.84H29.18l-1.06-.42-1-.75-1-.16h-1.1l-.37-.91.63-.49,1-.55.33-1L26,90l-1-.32-1.16,0-.68-.75-.57-2.27L22.76,84l-.54-1.14L21.07,81.4,20,79.34l-.49-1.72L19.39,76l.1-1.4,1-1.28-.18-.71-.54-1.34-.31-.39-.57-.34-2.32-1.09-1.09-.29L14.36,69l-.53.07-.57-.15-1.49-1.69-.2-.45-.22-.57.15-1-.05-.69-.16-.8L11,63.15h-.41l-.7.35-.6.11-.61,0-.25-.14L7.52,61.6l-.95-.68-2.21-.29-.5,0-1.19.64L.78,61l-.42-.24L2,59.45l.39-.53.08-.63L3,57.23l.09-1.48.27-.44.37-1L3.88,53l.85-2.09.39-1.2.12-.85.82-1.95V46.3l-.21-.68,0-.52.24-.41.1-.46-.25-1.49,0-.66.37-.6,1.07-.65.24-.34v-.77l.89-1.85.1-1.4-.25-1.26-.45-1.14-.59-.43-.41-.14-.49-.33-.12-.08,0-.6-.49-1.2,0-.15L6.09,31l.69-.67.64-.89L8.66,28,9,27.75l.45-.08,1.28.12.32-.17.36-.7.44-.35.7-1.86.48-.33.6-.2v-.31l-.39-.21-.46-.6-.05-.67L12.45,22l0-.95-.12-.28-.43-.22-.18-.47-.26-.28-.06-1.08L11,18.45,10,18l-.47-.1-1.23.21-.13-.47.18-3.47-.85.1-.28-.16-.87-2.51.29-.8.3-.44.11-.49V9.13l.46-1,.09-.62,0-.57-.21-.55,0-.59.09-.57.26-.35.47-.32,2.74-.93,1-.12,1.81-.48.92-.11,2-.84L17.33,2l1.19-.37L19.7,1.6l1.49.22,1.17.05.77-.08.5.3,2.49,1,2.21.29.8.23,4.65-.41,1.84.07.86.13,1.21-.11L39.07,4l.69.45,1.49.33,1.47-.53L44.58,4,48,2.15l.66-.5.67-.32.47-.06,1,.13.76-.32L52.77.82,54.24.63l.68-.25,1-.17L57,.86l-.08.5-.31.41-1.77,4.5-.1,1.51V9.89l.14,2.85.28,2-.25,3.34-.22.74-.36.58-.5.57-1,.72-1.2,1.07-.35.42-.46,1.15-.35,1.08,0,1.27.19.51,1.45,2.56L52.53,30l-.08.63-.37.91-1,1.23-.13.37.06,1.12,1.81,2.38,1,2,.73,1.09,2.09,3.9.77,1.94,1,1.36,1.38,1.22.79.83L62.17,51l.55.51,1.29.88.79.32.82.51,1.2.49.23,1.12.33.26.29,1-.09,1.54.17.38,1.08,1.29.18.42,0,.43-.15.31-.47.2L67,60.23l-1.13-.95-.6,1.83L65,61.7l-.31,0-.39-.61L64,60.83h-.36l-.94.9-1,.69,0-.31-.27-.26-.6,0-.35.45L59,62.51l-.38.62-.51.59-.64.27-.81.76L56.1,65,56,66.67l-.4,2.23-.2.35-1.45,1-.25,1-1,2.56-.81.87.33,1,1,1.52,2.08,2.29,1.44,1.79.65,1,1,1.56L60,86.48l.88,1.24.82,1,1.53,1.73L65.69,92l1.1,1.38.53,1.17.48,1.59.29,2.35.17,5.77.41,4,.24,1.08Z"/><text class="cls-2" transform="translate(16.83 57.54)">Gar<tspan class="cls-3" x="17.08" y="0">h</tspan><tspan class="cls-4" x="23.16" y="0">w</tspan><tspan x="31.23" y="0">a</tspan></text></g></g></svg>