<svg xmlns="http://www.w3.org/2000/svg" viewBox="0 0 95.8 122.86"><defs><style>.cls-1{fill:#3DB3F1;stroke:#000;stroke-miterlimit:11;stroke-width:0.4px;}.cls-2{isolation:isolate;font-size:11px;font-family:Tahoma;}</style></defs><g id="Layer_2" data-name="Layer 2"><g id="Layer_1-2" data-name="Layer 1"><path class="cls-1" d="M7.45,23.08l.91.21L8.68,23,9,21.69l.28-.44,1.11-.68.6-1.41.41,0,.17.1.65-.43,2.19-.93.76,0,.27-.85.68-.49.52-.25L16.62,16l-.27-.24-.14-.32-.12-.78-.25-.26-.27-1.1L14.93,13l-.28-.29-.06-.47.14-.5.23-.18L16,11.09l.44,0,.25.18L17.4,11l.65-.1.83,0,.91.16.41-.77,1.31.05.84.19.48-1.14.71-.06L24,8.09l.74-.9.83-.37,1.57-.06,1.29.17-.1-.36L28.43,6l0-.75-.22-.66-.05-.72.33-1.05L29,2.6l1,0,1.58.28.63.27L32.61,3l.94-.09.66-.24H35l1.6-.23h.95l1.3-.4.06-.37.54-.27.69-.58L41,.3l.37-.1.45.08,1.72,1.09.6.16.92-.46L48.15,5l1.46,2,1.75,3.36.87,2.59.29,4.28.68,5.18.29,4.79v1.72l.44.19.29-.13.52-1.52.2-.44.24-.24.32.14,1,.85.61.23.35-.26.11-.31,0-.91.27-.19.39.11.59,1.88.38.45.41.21.48-.2.53-.56.39-.15.37.14.33,1.1.3.44,1.18.35.68,0,.7-.83.18.4-.24,1,.06.59-.11.18L66,33l.88.38,1.26-1.29,1-1.56,1.26-.12h1.27l1.74,1.81.88.52h2L78,32.58h1.36l1.55.13,1.56,1,1.94.91,1.16.13,1.95,1.42.06.06-.06.47-.6.79L85,39.4l.15.6.49.13.57,0,.41.16.18.39.53,1.82,0,.88-.21.77-.07.77.45.69-.35.26-.37-.19-.39-.58L86.18,45l-.9.14-.8-.1-.86.52-.19.32-.69-.9-.42-.34-.66-.78-.26.27-.54,1.28-1,.6-1.11.37-.82-.43-.73.88-1,.38-.6,0-.4.22h-.74l0,.5-.18.6-.48.31-1.41.4L69,50.64l-.34,1.3-.07.84-.16.84-.34.73.91,1,1,.55,1.37,1.37L72,58l.49.87-.29.64,0,.66L72,61.43l.75,0,.3.23.91,0,.38.4.28,0,.29-.36.51-.39.72,0,1,.32.43-.24L78,61l.76.3-.54,1.44,1.28.93,1.31.7.73.28-.43,1.2.24.25.82.24h.44l.85-1,.25-.14.46.17.61.46.37.4.07.46.41.25.19,0,.48-.41.27.27-.31.55.17.26.38.26,0,.39.72.41.36,0,.5-.36.23.3-.21.46.26.21.21-.11.32.55-.06.52.15.53.27.08.23-.08.23.57,1.07,0,0,.33-.78.8-.09.78.39.14.44.34.43.65.1,1.21.21,1.64.38.5.43.06.77.41.23.44.49.07.15.45.52-.08.77,1.24-.06,1-.45,1-.64-.12-.85.12-.16.25.08,1.13-.72-.46-.42-.57-.29-.12-.32.17-.43-.28-.35.18-.26.52-.33,1.11.1.44.21.37.12.66,0,.62-.24.8,0,.5.08.45.51.32L91,89l0,.73-.22.75-.46.59-.31.84-.68,1.17-.27.63-.16.54-.24.42,0,.63-.15.52,0,.47-.26.52-1.71,1.39-.42.48-.54,1-.47-.35-.33,0-1.47-.26.11-.7-.2-.39-.85-.66V95.94l.18-.38-.33-.24L82.15,95l.07-.32-.17-.37L81.8,94l-.1-.45.3-.75-.18-.3-1-.29-.35-.39-.21-1.47,0-.48-.76,0-.72-.63-.49-.74.24-1.86-.24-.4L76.73,86l-.35-.25-.25-.49-.33.14-.18.39.18.49-1,.62-.69.94-.25.5,0,.54-.16.54-.37-.23-.06-.83-.15-.66-.59.09-.8-.81L70,83.8l-.09-.69.45-1,.34-.25.54.1.12-.55-.21-.27-.83-.52-.7.17-.32-.08L69,80.39l-.17.34-.12.92-.75.13-.07.11.4.42.22.47-.29,1.16-.52.31-.56.19L66,84.3l-.18.38-.43-.19L62.4,86.22l-3.12,1.93-3,3.6-2.5,4L52,99.65l-1.65,3.67-3.93,2.28.2.29.11.18.37.29.19.18.55.53.23.62.13.31.39.43.25.41.07.6,0,.35-.28.58-.3.58L47.67,112l-.3.5-.26.37-.33.48,0,.21-.36.13-.17.52-.4.68.11,3-.14,1.32-1.46.73-2.77,1.15-1.15-.86-1.93-.73-1-.37-1.79-1-1.28-.7-1.7.24-1.86.87-1.32.58-2.6-.44-1.67-.71-2.61-.27-.83,0-.71,0-2-1L18,116.29l-.81,2.47-.68,1-.14.85-.78,1.7-.8-1.11-.39.34-2.61.57-.45.25-.43,0-1.37.34-.8-.51-1.56-.28-.74.11.16-.57-.73-.81L5.12,120l-.6-.75-.11-.53.33-.7.6.07.44-.3-.14-.65,0-.54L5.47,116l-1.11.33-.24-.14-.18-.47.11-.7v-.86L3.61,114l-.07-.66-.41-.07,0-.27.18-.34.41-.09.35.1.56.58L5,113l-.21-.78-.94-.87-.4-.51v-1l-.14-1.36,0-.68L3.09,107l.28-.67.1-.6-.06-.81-.14-.66L3,103.73l.06-1.42-.17-.72.3-.3-.09-1.13.08-.76.52.15.61,0L4.48,99l-.13-.54-.55-.9-.41-.28-.24-.34-1-.84-.76-.93-.1-.73.36-.56-.13-.23.38-1L.75,91.73l-.11-.57,0-.78-.45-.91.83-2.2,1.92,0,.15-.79-.44-.26-.2-.47.13-.41.3-.28-.47-1.33L2.89,83l.5-.59.69-.59v-.62L3.86,81l-.69-.17-.57-.38-.77,0v-.82l-.13-.54.28-1,.23-.29.72-.12.2-.11,1.11,0,.4.13,1.42,0,.4.71,0,.91-.59,1.46L7,81.11l.73-1.49.62-.76.91.08.25-.21,1,.66.24-.32.52.16.9.63.45.6-.13.58.44.62.64.61.61-.24,2.05.18,1.22.66.45.14.84-.67.36-.72.41-.3-.09-.85,0-.71.31-.7.49-.56.3-.58.19-1.28.93-.75.09-1,.45-1.72,1.49-.48.55-.24.23-.2,0-.44-.59-2.21-.09-.93L24,67l-.23-1.1-.37-.63L22,63.91l-.7-.3-.74-.15-.95-.53-.22-.32-.66-.51-.56-.58-.77-.43-.86-.24-.29-.24-.11-.56.09-.94-.41-.21.24-.32-.16-.33-.35-.08.21-.35.3-.13.17-.36-.41-.76-.9-1.31-.82-2.61-.34-.19-.54.1L13.54,51l0-.86.18-.76-.18-1L13,47.47l-.11-.66.56-.72-.09-.45.22-.42.12-.59.4-.52L15,42.56l.68.42.36.07,1.06-.17.83.14.92,0,.56.23,1,.76,1.07-.23.43.06.88-.14.42.12,1.1,1,1-.13,1,0L28,45.85l.38,1,.44-.1.71.07.28-.21,0-1.09-.13-1-.52-.65.58-.52-.25-1.29.18-.5.62-.45.59-.92.32-1.08L31,38.69l.13-.49.31-.27.07-1,.13-.73-.06-2,.64-.29v-.78L32,32.71l-.08-.56.26-.52.82.13.29.4,0,.44.37.25.4-.28.8-.69L35,31.4l-1-.16-.81-.62-.52-.11-1.59-1.43-1-.55-.66-.59h-.51l-.49.43-.63.06-1.15-.33h-.49l-.49-.28-1-.28-1.17-.24-.54,0-.48-.11-.37.31-1.63.35-.57.3-.71,1.44-.46.09-.28-.42L18,29.15l-.19-.23-.07-.45-.34-.29-1.17,0-.47-.24-.31-1.29-.37-.07-.76-.73-.79-.11-.6,0-.26.17.26,1.09-.07,1.66-.76.65-.45-.32-1-.19-.95,0-.39.22L9,29.3,8.6,28l-.44-.8L7.3,26l-.18-.78-.07-.8Z"/><text class="cls-2" transform="translate(27.95 74.93)">Hazaribagh</text></g></g></svg>