<svg xmlns="http://www.w3.org/2000/svg" viewBox="0 0 71.49 99.72"><defs><style>.cls-1{fill:#3DB3F1;stroke:#000;stroke-miterlimit:11;stroke-width:0.4px;}.cls-2{isolation:isolate;font-size:11px;font-family:Tahoma;}</style></defs><g id="Layer_2" data-name="Layer 2"><g id="Layer_1-2" data-name="Layer 1"><path class="cls-1" d="M.55,38.94.7,39l.35-.48.29-.25.36-.15.76.3.33-.15-.11-.51v-.48L3,36.46h.5l.31.26.36-.06.35-.85.08-1.09.72.1v-.89l.43-.54.11-.55-.24-.94v-.47l.24-.75.06-.5-.11-.41.24-.91L6.68,28l.2-.57,1.71.1,1.14-.22L9.87,27l-.44-.86.14-.59L8.79,24l.14-.31.43-.06.35-.21.36,0,1,.22.12-.42.24-.13.39,0,.22-.41,0-.53-.52-1.25-.14-1.05.38-.15.06-.41.63-.46-.12-.46-.08-.94-.5-.93-.42-.18-.34-.32-.25-.44-.18-.6.1-.34.41-.73.16-1.11.74-.55L12.87,10l.3-.35.18-.56,1-.66.54-.65.34-.12.17-.32L15.21,7l.09-.19.34-.06,0-.69.35.11h.44l.39-.36-.18-.54,1.13-.35,1.47.2.53-.73.43-.25L21,4l.31-.86,0-.73,1-.54.07-.59-.28-.4L22.45.2l.42,0,.29.24.09.45.22.37.31.2.47.1.73.71.16.3.73.1.32.32,1.47.34L28,2l1,.83.34.14.36-.08.54.05.16.66L30.28,5l.45.93-.49.48-.32.53.17.65.2.41.38.18L31,8l-.24,1.7-.64.6-.33.09-.31.49.79,1,.67.21h.55L32,12l.38-.26.17-.39-.05-1.58.61-.27,1.26-.24.11-.45.4-.4.54-.12.41.12-.06,1L36,11l.23.44.87,1,.18.69,1.19.39,1,.55.8,1.14.2,0L40.94,14l.52.09,0-.8.11-.39.31-.48-.51-1.11.31-.15.5.28.33,1.31.28.26.59.23.1.77.3.49.41-.21,1.73,0,0-.48.8-.68.46.35.84.05.28.42.09.44,0,.86.69.12.67.51,1,0,.76-.29.28,0,.32.19.73-.59,1.05.22L54.94,15l.39-1-.42-.38-.34-1.14L54.91,11l.64-1.74.25.28L57,9.64l.32-.17.48-.7.6-.19.32-.33.16-.43-.13-.43-.48-.34-.18-.55V6l.59-.13.47-.38.71-.84.49-.25.59.09L62,5.77l.74,0,.29-.12.42.07.32-.2L64,5.27V4.4l-.28-.32-.27-.55.72-1.44.56.32.21-.18.44.38,1.33.8.53.13-.32,1.14-2,5.13L63.2,17.57l1,4.12,4.65,2,.66,1.49-1.34,5.16-1,2,1.46,5.88,2.23,3.89.39,2.34L70,48.49l.11.69-.75-.35-1.44,1.92-1,1.67-.25.58.13.82.13.22.79-.06,1.3.44-.33.54-.93.86-.35.63-.8,2.06-1.92.65-.14-.61,0-1.18-.09-.89-1.16.85-.53.66-.25.52-.76-.34,0,.38-.38.27.2,1.45-.43,1.19-.54.21-.19.95,0,.83-.63.21.22,1.2v1.62l-.45.17-.82.95-.45.06-.89-.43-1-.19-1.18.65-.74,0-.64-.2-.41-.53-.11-.6-.4-1.17L52.77,65l-.41,0L52,64.66l-.24-1-.28-.5-.33-.36-1.24.52-.26-.58-.39-.13-.64-1-.75-.06-1.11.4-.2-.68L47,60.07l-.24-1.18-.39-.27-1.2.47L45,59l-1.57-1.29-.14-1-.43-.22-.91.07-.13-.75-.91.38-1.29.2-.33-.24H39L38.72,56l-.29.21-.14.79-.3.38-.7-.1-.82.29-.16.37-.19-.26-.15.44-.36-.18-.12.12-.41.74-.17.51L34.66,59l-.52.32v.49l-.2.24.08.66-.16.55-.43.14-.32-.25-.3.37-.67,1.28-.56,0-1-.37L30,62.41l-.58.53-.73,1.36-1,.77-.6.58-.27-.46-.2.74-.5,0L26,65.66l.43-.85,0-.47-.27-.21-.91.06-.46-.65-.52-.49-.51-.22-.68.32-.37.45-.22.74.38.29-1.19,2.15-.82,3.94v1.79l-.13.85.1,1,.7.94-.12.47-.33.49L20,76.33l-.29.22v.69l.16.47-.13.77.23.25,0,.5-.48.46-.46.65-.11.93.06,1.06.17.9-.41.54-.06,1.46-.25.79-.14,1.37-2,1-.05.8-.28.7-.18,1-.37.74-.47.21-.35.75-.35.51,0,.36,1.08.82.31.4L16.29,96,16,97.31l-.29.69,0,1-.28.34-1,.19-.33-.37-.27-.6-.24-1V95.82l.08-.63-.33-.44L12.2,94.3,12,93.93l.13-1.34-.54-1.9.46-2.31.51-1.76L12.16,86l-.67-.36-.58-.55-.2-.81.68-2.18.36-1.7L12,79l.34-1.38v-1l-.45-.81-.23-.8-.42-.82-1.73-.2-.65-.57-.35-.92-.7-.27-.48-.51L7,70l-.2-.24-.5.1-1-.19H4l.63-2,1.68-.41.27,0,.37-.2L7,66.26l0-.92-.29-1.63-.32-.5,0-1.05-.16-.26L5.4,59.64,4.9,58l.31-2.49,0-1.22L5,54.18l-.71,0,.55-2.58.34-.85.56-.35.56.18.84.69,0,.9.2-.19.42-1.41.09-.62-.12-.42-.22-.35.26-1.39-.07-.56-.52.06-.48.26-.41-.75-.55-.56-.5-.92-.62-.46-1.29-.38-.91.14L1.2,45l-.56-.32L.38,43.5.23,42.09l0-1.52.41-.66Z"/><text class="cls-2" transform="translate(19.39 39.5)">Khunti</text></g></g></svg>