<svg xmlns="http://www.w3.org/2000/svg" viewBox="0 0 55.46 82.54"><defs><style>.cls-1{fill:#3DB3F1;stroke:#000;stroke-miterlimit:11;stroke-width:0.4px;}.cls-2{isolation:isolate;font-size:11px;font-family:Tahoma;}.cls-3{letter-spacing:-0.02em;}</style></defs><g id="Layer_2" data-name="Layer 2"><g id="Layer_1-2" data-name="Layer 1"><path class="cls-1" d="M1.85,44.89,1,44.23l-.4-.46-.36-.63L.2,42.46l.08-.7.18-.89,0-.95-.07-.51.34-.21.48.08.32.38.25.44.1.52.22,0,0-.49.08-.54.24-.29.54.08L3.4,39l.19-.55L3.76,38l.43-.26.65-.22.46-.06.21-.8.65.25.6-.07.6-.39.41-.17L8.14,36l.3-.66.05-.5-.38-.39-.43-.25-.41-.4,0-.75v-.67l.91-.86L7.9,30.4l-.22-.82-.89,0-.3-.25-.08-.41,0-.66.23-.58L7,27.08l.61-.5.56-.71.36-.62.27-.54.14-1-.09-1.19-.11-.79-.24-1,.35-.81-.17-1L8.48,18l-.38-.87L8,16.54l0-.7-.1-.7-.15-.55-.59-.17V14l.26-.55L7.19,13l-.35-.55-.53-.88-.43-.7-.4,0-.3-.22,0-.51.13-.69.47-.58L6.3,8.1l.46-.72.37-.68.3-.93.24-.66.37,0,.51.38.6.16.51.13.28,0,.22,0,.18.07.25.31.34.17.34.06.34-.3-.24-.36.43-.35,1.1-1,.78-.13.61,0,.64.08.58-.12.35-.5L15.74,3l-.14-.8.08-1,.59-.29.64-.63.36,0,.32.54.54.79.53.54.59.61.59.18.57-.05.69-.11.53,0,.78.4.63.39.5.46.4.44.45.26.06.42-.36-.19-.61-.29-.71-.43-.36-.37-.51-.26-.6.12-.1.44.25.3-.12.36-.1.36.25.26.59.24.57.2.37.1.08.36.07.34.17.38.5.14.07-.39.37.56.56.27.5.2.23.44.55-.06.38.35.4,0,.4.13.63.12.69.56.54.39.34-.32,0-.32.36.36.35.32.59.52.38.53.22.19-.16.5.08.33.4-.07.36-.17.31,0,.23.18L33,12l.2.16.4.28.39.21,0,.39.1.39.33.11.21-.46.28-.61.72-.85.42-1,.36-.82.24-.59h.28l.49-.54.63,0,.08.35-.55.81-.23.32.29.38.7.47,1.05.62.91-.45,1-.76.36.36.37.42.19.58.16.62.22.72.21.49.16.32-.19.39-.15.45.08.63.16.45.38-.18.32-.43.34-.71.6.17h.62l.46-.15.55-.36h.52l.4.27.31.41.31.32H48l.18-.51-.12-.54-.32-.45-.24-.39,0-.87,1.31.45.91.51.66.25.36-.08.42-.7.3-.56.49.39.18.39.13.58.18.53.37.4.51-.06.54.2.14.43.12.54,0,.37,0,.27-.2-.07-.22.08-.14.47-.14.56.3.39-.13.65-.13.6-.39.68-.35.55-.33.51,0,.55.39.53.49.25.5-.11.34.32.35.37.53.28.19.52-.34.5-.14.51-.1.62v.65l0,.74-.14.57-.21.31-.24.14h-.21l-.32-.13L53,27.25l-.36.08-.21.27-.23.4.26.3.49.11.37-.12.36-.17.36,0,0,.46,0,.35.07.49L54,30l-.22.16-.33-.06-.26-.16-.28.11-.3.12-.28-.06L52,29.81l-.32-.16-.22-.22-.23.11-.14.28L51,30.2l.08.2.18-.08.07.14.21-.08.33.35.52.25.2,0,.07-.4.49,0,.55,0h.43l.55,0,0,.53,0,.69.16.41.09.35-.13.37-.2.54-.14.49-.23.19-.4-.16-.21.16-.14.25-.47.14-.13.68,0,.39-.27,1.27-.68,0-.43.26-.83,0-.29.06-.15.3,0,.29-.36.19L49.3,38l-.27-.2-.34-.25-.13.13.08.44-.19.37-.33-.24-.4-.23-.66-.26-.81-.26L46,37.31l-.07-.54-.06-.44-.32-.25-.35-.24-.27-.35-.27-.25L44.38,35,44,34.81l-.29-.07-.35,0-.4-.26-.45-.19-.55-.18-.6,0-1.06,0-.16.8,0,.62.58,0,.47.07.83.39.61.4.48.46.33.48.34.64.23.7.16.56-.06.38-.23.33-.39-.15-.24.35,0,.46-.09.74,0,.75.15.51.23.45v.42l-.15.41-.13.31v.34l.15.38-.17.25-.45.3-.14.43.12.41.14.44.36-.11.25-.41.21-.53,0-.42,0-.43,0-.34.14-.34.14-.13.1.17,0,.44.1.23.2.35.16.42-.07.36-.11.26,0,.34.21.07.35-.17.32.1.16-.19,0-.34.23-.08.1.29,0,.28-.1.32-.05.23-.07.35-.36,0-.4.14-.27.65-.13.53.23.25.25.28.11.37.32.23-.13.41.11.44,0,.46-.12.51L45,52l0,.31-.38-.07-.46-.1-.45.34-.16.38-.13.27,0,.24-.32.25L43,54l-.32-.06-.19.28-.13.43L42.2,55l.24.37.19.35v.43l-.23.3-.4.42-.15.56.33.42.53.13.59-.09.28-.3.4-.66.12.48.22.36,0,.4.11.36-.27.32-.33.11-.28.22-.35.31-.36,0-.22.5v.47l.22.13.27,0,.08.21-.05.65v.54l-.39.2-.4.52-.24.74-.28.56-.27,1-.32.44-.28.5-.41.56-.33.55-.16.69-.35.26-.34.73-.07.71.38.41,0,.34-.2.29-.25.16-.07.37.1.53-.2.72-.23.59-.43-.14-.41.43-.25.24-.28.29-.27.69-.45.1,0,.42-.35.15-.3,0-.3.19L35.53,75,35.09,75l-.42-.27-.56-.29,0,.76-.07.51L33.9,76l-.22.32-.16.5.08.38.06.54-.15.57-.2.53-.54,0-.46.32-.45.25-.39.38-.19.6-.18.29h-.36l-.42,0L30,81l-.2.21-.35-.1-.37-.2-.16.41-.14.5-.2.41-.29-.16L28,81.6l-.22-.49-.06-.41-.22-.27L27,80.25l-1.21-.73-1-.18-.79-.06-.85.32h-.56l-.84-.28-.76.09-.45-.14.16-1.61,0-1.5,0-1.47.06-1.87.11-1.42L21,70.1l-.16-.76L20.47,68l-.27-1.56-.43-2.15-.42-1.86-.13-2.25-.26-3,0-2.25,0-2.94L19,50l-.3-1.08.18-1.35.08-.86.13-1L19.4,45l-.34-.6-.26-.85-.38-.72-.79.09-1,.34-.47.67-.4.72-.21.09-.38-.3L14.65,44l-.86-.16L13,43.31l-.71-.63-.55-.45-.84-.38-.8-.07-.36.13-.34.46-.67.21-.62.09L7.53,43l-.26,0-.47-.18L6.55,43l-.28.41L6,43.43l-.54-.08H5.11l-.31.24-.19.18-.3-.05L4,43.78l-.34.38-.36.48-.19.2Z"/><text class="cls-2" transform="translate(17.31 28.95)"><tspan class="cls-3">P</tspan><tspan x="5.81" y="0">akur</tspan></text></g></g></svg>