<svg xmlns="http://www.w3.org/2000/svg" viewBox="0 0 54.95 88.7"><defs><style>.cls-1{fill:#3DB3F1;stroke:#000;stroke-miterlimit:11;stroke-width:0.4px;}.cls-2{isolation:isolate;font-size:8.64px;font-family:Tahoma;}</style></defs><g id="Layer_2" data-name="Layer 2"><g id="Layer_1-2" data-name="Layer 1"><path class="cls-1" d="M2.62,21.7l0-3.85.13-1.25,0-1.31,1.55-2.93.76.32.09-.39V11.9l-.38-.85.26-.56-.72-.3L3.59,7.76l.51-.13.38-1.26L5.4,8.16l1.45,0L8.17,9.72l.4.19.65-.06.43-.21-.13-2L9.79,6.5l.31-2.59.28-.1.07-1,2-.41L13,1.47,13.78,1,13.72.6l.12-.22.79,1.08L13.88,2.6l.08.6.84.59v.26l1.1,1,.73.46.7-.58.94.66.37-.68,0-.4.6.93.24-.07,1.84.71L22,5.74l2.64-.06V6l-.33,0,0,.47.78-.06.55.23-.22.62.36.44-.47.58-.13.88.23.49.53.35.48.15.51.44.22.45L27,12.67l.1.46,1.38.41,1,0,3.32.54.66.37,1.47.06L35,15l.16.36,0,.57L35.42,17v1.12l-.25,1.59,0,1.31-.44,2-.15,1.16-.65,2.4-.18,1,0,1.87-.2,1.63,0,1.71.3,2.16.4,1.09.35.54L36,38.19l.73.63,2.11,1.35,1.53.62.8.67,1.3.82,1,.89,1.32,1.64.43.9,0,.14,1.26,1.6,1,1.32.1.15.33,1.74.73,1,.52.84.62.79.61.74.9.85.75.94.42.5.63.54.56.76.5.88.36.83.05,1.05.08.83.11.93.11.95-.12.71-.29.87-.3.53-.55.31-.92.3-.8.59-.86.42-.8.52-.75.78-1.07.6-1.48.22-.83.19.24.67.35,0,.32.69,0,.14-.17.3-.07.79-.11.66.21.22L47,73l-.23.27-.57,0-.44.45-.5-.1-.73-.33-.57-.09-.16.06-.14.31.19.36.22.4.19.47.06.59,0,.33.31.29.18.29v.42l-.09.6-.19.54h-.19l-.06-.3L44,77.7l-.21.53-.16.64-.17.54.17.33-.12.26-.56.32-.16.58-.41.48-.44.43-.36,0-.45-.25-.38-.35-.37.29-.16-.36v-.53l0-.69.3-.37.22-.39-.06-.63-.1-.43h-.4l-.38.68-.17.87-.05.66-.23.36-.37.36-.42.1-.21.89-.22.86.22.19h.46l.51,0,1.49,2,0,.87.24.39.32.45.13.54-.19.51H40.9l-.31-.32L40.28,87l-.4-.27h-.52l-.55.36-.46.15h-.62l-.6-.17-.34.71-.32.43-.38.18L35.93,88l-.08-.62L36,86.9l.19-.38L36,86.19l-.21-.48L35.6,85l-.15-.62-.2-.58-.37-.41L34.52,83l-1,.77-.92.44-1-.62-.7-.47-.29-.37.23-.33.55-.81-.07-.35-.64,0-.49.53h-.28l-.24.59-.35.82-.43,1-.72.85-.28.62-.2.45L27.32,86l-.1-.38,0-.4L26.87,85l-.41-.28-.2-.15-.34-.33L25.69,84l-.31,0-.36.18-.4.07L24.54,84l.16-.49-.21-.2-.39-.52-.59-.53-.35-.31-.36-.37,0,.32-.34.32-.54-.39-.69-.56-.63-.12-.4-.13-.4,0-.38-.34-.55,0-.23-.44-.49-.19-.57-.28-.37-.56-.07.39-.5-.14-.17-.37-.07-.35-.08-.36-.37-.1-.57-.2-.59-.23-.25-.27.1-.36.13-.36-.26-.29.1-.44.61-.13.5.26.36.37.71.44.61.28.36.19-.06-.42-.45-.26-.4-.43-.5-.46-.62-.4-.79-.4-.53,0-.68.11-.58.06-.59-.18-.59-.61L11.41,74l-.54-.79-.32-.55-.36,0-.64.63L9,73.64l-.08,1,.14.8.12.72-.35.49-.58.12-.64-.08-.61,0-.78.12-.8-.45-.6-.51-.37-.64L4,74.56l-.48-.48-.27-.71-.08-.61-.4-.56-.13-.83.11-1,0-.35-.35-.43L2.54,69l-.45,0,.22-.32.48-.16-.13-.35H2.3l-.52.3-.44-.62L.76,68,.69,66.75l.89-.32,0-.5-.39-.51-.49-.58L.4,64.27l-.17-.76L.8,63.2l.38-.33.32-.58.18-.62.05-.61.05-.71-.53-.12-.5.1-.08-.89v-.66l0-.67L1,57.48l0-.74.41-.65-.06-.74.64-.2.16-1,.15-.9.25.06.05-.65v-.77l-.09-.64-.44-.38-.44-.26-.18-.39.18-.54.65-1,.81-1.5.64-.47.33-.07.63-.45L5.5,45l.56-1.76-.44-1.66L5.91,41l0,.14.47,0,.49-.4.4-.06L7,40.2l-.8-.53-1-1.33-.41-1-.37-.42-.3-1.15-.58-.62L2.8,34.8l-.35-.73,2.48-4.32-.56-2.18L3.18,24.49Z"/><text class="cls-2" transform="translate(5.63 57.91)">Sahibganj</text></g></g></svg>