<svg xmlns="http://www.w3.org/2000/svg" viewBox="0 0 76.56 93.94"><defs><style>.cls-1{fill:#3DB3F1;stroke:#000;stroke-miterlimit:11;stroke-width:0.4px;}.cls-2{isolation:isolate;font-size:6.53px;font-family:Tahoma;}.cls-3{letter-spacing:-0.02em;}.cls-4{letter-spacing:-0.01em;}.cls-5{letter-spacing:0em;}.cls-6{letter-spacing:0em;}.cls-7{letter-spacing:-0.01em;}</style></defs><g id="Layer_2" data-name="Layer 2"><g id="Layer_1-2" data-name="Layer 1"><path class="cls-1" d="M57.77,84l-.39-.68-.49-.17-.7-.45-.85-.79-2.1,2.77,1,1.29-.65,1.91-.69-.55-.7.83-.72.51-.2,0-.41.84h-.3l-.92-.23-.36.12-1.19,1.38-.3.83-.08.5.14.58,0,.53-.62.49-1.41-1-1.77-.89-.86-.56-.53-.87-1.14-.9-.18-1-1.12-.9.84-2.46-.37-.62-1-.94-.51-.3-.61.2-.56-.34-.35-.51-.09-.48.27-.61,1.43-1,.62-.1.42-.29.21-.68,0-.66.82-1.89-.47-.44-.59,0-.69-.42-.58-.57-.44-.66-.7.29-.6-.11L37,74.32l.51-1.4.36-.49-.12-.49-.42-.47-.28-.8-.07-.84-.48-1.15,0-.66.5-1.9,0-.93L37,64.54l-.22-.48-.45-.38-.14-.3.29-.33.28-.55v-.67l-.32-.64-.39-.5-.54-.53-.28.24-.64,1.73H34l-.47-.43-.66-1-.32-.12-.4.24-.36.41-.46.24-.65.15L29.59,61l-.33.08-.13.48.35,0,.06.5-.78.44-1.19-.32-.21,1.42-1.05-.25-.78,0-.61-.09-.48.28-.36.82-.71.37-.29,0-.34.53-.45.2-.65-.27-.34-.61-.56-.14L20,64l-.33-.73-.08-.86-.24-.68-.54-.58L18,59.88l-.19-.52.42-1.59.56-.67h.4l.7.34.82.06.52-.41.26-1.43-.8-.31-.6-.6-.39-.88-.27-1-.22-1.72.25-1.91.28-.78-.33-.65-.48-.74L17.7,47l-.56-1-.62-.46-.58-.22-.29-.45-.23-.7-.27-.4-.47-.06-.32-.4-.19-.68-.42-.07-.69.33-1-.08-.75.06-.25.84-.68,1.67-.35.59-1.64-.29-1.87-.52-.73-.11-.48.88-.56.64L4,46.29l-1,.4-.43,1.82-.67-.15L.43,48.29V46.66l-.21-1.2.62-.21.05-.82.2-1,.53-.2.43-1.19-.2-1.45.38-.28,0-.38.76.34.26-.52.52-.66,1.16-.85.09.9,0,1.17.14.61L7,40.31l.8-2.06.36-.63.92-.86.33-.53-1.29-.45-.8.06-.13-.21-.13-.82.26-.59,1-1.67,1.44-1.91.76.35.2.09.07.5-.1.45-.08.37.19.36.21.38.31.19L12.62,33,14,32.87l.54-.24.37-.81-.24-1.36.49-.11,1.67.39.93,0,1-.28.48-.56.75-.43,1.69.23,1.09,0,1.06.37.64.46.47.49,1.14-.1.41.45.24.58.58.57.78,0,.73.36,1.3,1.29,1,.42.73,0,.51.29.57.14.84-.12v.38l-.2.75.19.6L34,37l1.21.72.8.07.46-.44-.34-1.28-.27-.56.28-.57,1-1.06.08-.46-.12-.31.35-1.26.31-.43-.11-.35-.51-.32-.1-.6-.42-.49-.09-.5-1.09.23-.2-.5V27l-.33-2.45,0-1-.58-.11-1-.49-.68-.74-.34-.78.06-.11,0-.44-.3-.79-.23-1.95L31.38,17l-.26-1.3-.41-1.38L29.94,14l-.13-.51.24-.58.35-.4.51-.19.5-.06.84-2.46.37-.74L33.05,9l.55-.9.1-.53.35-.26.21-.33V6.42l.21-.68.41-.46.5-.16.74-1.43.71.48.39.07.21-.38V3.09l-.13-1,.16-.53.34-.37.49-.31.34.05L39,.59,39.1.22l.71.1L41,.83l.67.84.5,1.17.35.57.3-.23.18.58.2.15.06-.49.39-.17,1.09.14.78,0,.31-.19.12-.43.38-.58L46.79,2l.32,0,1.16,0,1.19-.81.84-.06.57.26.74-.24.36.17h.38l.43.47.43.16.7-.38.38-.35.4.09.49.2.52,1.06.67,1,.06.6-.25.57-.24,1.23.39.44,1.17.43,1.12.57,1.14-.39.23.46,0,.33.86,1.08.55-.12.79.38.17-.19.81-.23.16-.24L64.58,9l.14.46.82.37.16.36-.46,1.47.09,1,.37.5.83.5.24.43.17,1.63.38.51L68,16l.22.73.46.95.6.54.33,1.4.28.18.29-.18,2-.3.36.27-.42.48.37,1.65.27.52.63.31.47,0,1-.17.4.1.37-.17.23.65.39.45-.11,1-.35.79-.37.34-.61.08-.49-.2-.7.11-.35.64L72.16,26l-.86.09-.93,3,.53.31-.21,1.54.29.66-.26.43-.18.55.26,1.82-.07.77.18.69.33.24.35-.24,1.06.9.31,0,.66.26-.85,2.4-.31.2-.61.65-.28.71,0,2-.08,1,.13.4-.47,1.32V47l-1.13-.6-.37-.3L69,44.9l-1.5-.64-.25.5v1.49l-.1.41-1,1-.29,1.11.14.89.16.25,1.12-.53.29.25.39.67.37.15h.31l.11.43,0,.8-.28,3-.55.29-.44.75-.27,1.08.14.29.1,1.46.36.26L68,59.93,67.67,61l.21,3.56v2.08l.49.87-.82,2.09-.4.69-.06,1.92-.76.72-.48.92-.68.93-2,1.7-.5,1.23-.65.78-.62,1L58.86,81.7l-.56.71Z"/><text class="cls-2" transform="translate(35.1 43.07)">Sa<tspan class="cls-3" x="7.07" y="0">r</tspan><tspan x="9.31" y="0">ai</tspan><tspan class="cls-4" x="14.23" y="0">k</tspan><tspan class="cls-5" x="17.42" y="0">ela</tspan><tspan x="-2.53" y="7.84">khars</tspan><tspan class="cls-6" x="13.06" y="7.84">a</tspan><tspan class="cls-7" x="16.46" y="7.84">w</tspan><tspan x="21.25" y="7.84">an</tspan></text></g></g></svg>